<svg width="336" height="280" viewBox="0 0 336 280" fill="none" xmlns="http://www.w3.org/2000/svg">
<g filter="url(#filter0_d_72_41)">
<path d="M305 75C303.253 73.5694 302.416 72.695 301.016 71.0164C299.367 72.8069 298.418 73.7694 296.638 75.395C298.309 76.8339 299.171 77.7176 300.621 79.3785C302.196 77.5898 303.163 76.6339 305 75Z" fill="#E9C46A"/>
</g>
<path d="M32.395 75.395C30.5696 73.8724 29.6854 72.9528 28.1974 71.1974C26.6224 72.9205 25.7132 73.8438 23.9998 75.395C25.7496 76.9223 26.6595 77.8525 28.1974 79.5926C29.6967 77.8675 30.6239 76.9517 32.395 75.395Z" fill="#E9C46A"/>
<g filter="url(#filter1_d_72_41)">
<path d="M245.278 15.2782C243.592 13.8714 242.775 13.0218 241.4 11.3998C239.945 12.9919 239.105 13.845 237.522 15.2782C239.138 16.6894 239.979 17.5488 241.4 19.1566C242.785 17.5628 243.642 16.7166 245.278 15.2782Z" fill="#E9C46A"/>
</g>
<path d="M76.5244 15.9128C74.5915 14.3006 73.6552 13.3269 72.0796 11.468C70.4117 13.2927 69.449 14.2704 67.6347 15.9128C69.4876 17.5301 70.451 18.5151 72.0796 20.3577C73.6671 18.5311 74.6489 17.5613 76.5244 15.9128Z" fill="#E9C46A"/>
<path d="M0.290039 6.43768C2.93138 4.23461 4.21082 2.90397 6.36386 0.363861C8.64292 2.85725 9.95849 4.19325 12.4377 6.43768C9.90577 8.64771 8.58925 9.99362 6.36386 12.5115C4.19447 10.0155 2.85287 8.69026 0.290039 6.43768Z" fill="#E9C46A"/>
<g filter="url(#filter2_d_72_41)">
<path d="M321 6.20624C323.264 4.31786 324.361 3.17728 326.206 1.00001C328.16 3.13724 329.287 4.28241 331.412 6.20624C329.242 8.10058 328.114 9.25424 326.206 11.4125C324.347 9.27296 323.197 8.13705 321 6.20624Z" fill="#E9C46A"/>
</g>
<g filter="url(#filter3_f_72_41)">
<rect x="128.352" y="73.0795" width="4.52089" height="146.929" fill="#EDE0D4" fill-opacity="0.79"/>
</g>
<g filter="url(#filter4_f_72_41)">
<rect x="187.901" y="73" width="4.52089" height="148.755" transform="rotate(4.22122 187.901 73)" fill="#EDE0D4" fill-opacity="0.79"/>
</g>
<g filter="url(#filter5_f_72_41)">
<rect x="119.765" y="73" width="4.52089" height="88.2831" transform="rotate(5.43786 119.765 73)" fill="#EDE0D4" fill-opacity="0.79"/>
</g>
<g filter="url(#filter6_f_72_41)">
<rect width="4.52089" height="76.642" transform="matrix(-0.9955 0.0947661 0.0947661 0.9955 210.965 73.2865)" fill="#EDE0D4" fill-opacity="0.79"/>
</g>
<g filter="url(#filter7_d_72_41)">
<path d="M165.942 184.431C165.325 180.674 167.871 177.129 171.628 176.512C175.297 175.91 178.788 178.328 179.476 181.982C181.698 193.773 183.045 202.779 184.883 215.434C185.374 218.811 183.568 222.11 180.458 223.514L179.95 223.743C178.818 224.254 177.554 224.397 176.337 224.15C173.923 223.662 172.064 221.732 171.665 219.303L165.942 184.431Z" fill="url(#paint0_linear_72_41)"/>
<path d="M165.159 193.766C169.43 190.423 169.08 183.852 164.477 180.983C161.771 179.295 158.292 179.411 155.775 181.369C146.796 188.353 143.04 192.86 134.266 200.437C131.442 202.875 130.951 207.106 133.25 210.043C135.58 213.02 139.882 213.545 142.859 211.216L165.159 193.766Z" fill="url(#paint1_linear_72_41)"/>
<path d="M172.361 216.386C173.132 212.75 176.862 210.564 180.411 211.667C183.318 212.571 185.17 215.421 184.791 218.442C183.613 227.837 182.637 234.005 180.947 243.473C180.279 247.218 176.735 249.735 172.976 249.151C168.996 248.533 166.352 244.699 167.188 240.76L172.361 216.386Z" fill="url(#paint2_linear_72_41)"/>
<path d="M142.954 209.256C144.776 206.189 143.667 202.221 140.52 200.542C137.758 199.068 134.328 199.86 132.518 202.415C126.774 210.524 123.047 216.261 117.588 224.863C115.57 228.042 116.468 232.252 119.604 234.335C122.903 236.525 127.364 235.507 129.386 232.102L142.954 209.256Z" fill="url(#paint3_linear_72_41)"/>
</g>
<g filter="url(#filter8_d_72_41)">
<path d="M108.168 161.635C108.88 158.918 111.661 157.294 114.378 158.006L137.466 164.062C140.183 164.774 141.808 167.555 141.096 170.272C140.383 172.989 137.603 174.614 134.886 173.901L111.797 167.845C109.08 167.133 107.455 164.353 108.168 161.635Z" fill="url(#paint4_linear_72_41)"/>
<path d="M222.041 143.318C220.395 141.042 217.215 140.532 214.939 142.178L195.599 156.167C193.323 157.814 192.812 160.993 194.459 163.269C196.105 165.545 199.284 166.056 201.56 164.409L220.901 150.42C223.177 148.774 223.687 145.594 222.041 143.318Z" fill="url(#paint5_linear_72_41)"/>
<path d="M131.205 171.121C129.696 168.528 130.515 165.206 133.055 163.611L154.232 150.31C157.653 148.162 162.175 149.947 163.206 153.852C163.894 156.458 162.757 159.201 160.428 160.556L138.812 173.132C136.156 174.677 132.75 173.777 131.205 171.121Z" fill="url(#paint6_linear_72_41)"/>
<path d="M203.42 160.798C203.931 157.858 202.057 155.029 199.148 154.36C190.105 152.277 183.303 150.766 174.533 149.112C170.559 148.362 167.003 151.655 167.394 155.681C167.659 158.421 169.723 160.646 172.435 161.117L196.918 165.375C199.977 165.907 202.888 163.858 203.42 160.798Z" fill="url(#paint7_linear_72_41)"/>
<path d="M154.995 150.624C155.028 150.126 155.385 149.706 155.873 149.601C163.944 147.863 168.992 148.172 177.132 149.612C177.678 149.708 178.072 150.193 178.063 150.748C177.859 162.371 178.501 169.427 179.658 181.472C179.721 182.136 179.2 182.711 178.533 182.711H156.099C155.508 182.711 155.017 182.255 154.973 181.666C154.088 169.729 154.182 162.616 154.995 150.624Z" fill="url(#paint8_linear_72_41)"/>
</g>
<g filter="url(#filter9_d_72_41)">
<circle cx="164.518" cy="142.023" r="12.4324" fill="url(#paint9_linear_72_41)"/>
</g>
<path d="M279.512 31H52.3457C52.3457 35.3461 48.0191 36.9953 45 38.8229V77.9375C46.7611 80.4294 52.3179 81.1764 51.7362 86.6296H279.649C277.606 82.0702 278.791 80.7249 283 77.0683V38.8229C278.422 35.9832 276.574 34.4769 279.512 31Z" fill="url(#paint10_linear_72_41)"/>
<path d="M273.807 34.4769H57.8594C57.8594 38.2797 53.7465 39.7227 50.8765 41.3219V75.5472C52.5506 77.7276 57.833 78.3812 57.28 83.1528H273.938C271.996 79.1633 273.123 77.9862 277.123 74.7866V41.3219C272.771 38.8372 271.014 37.5191 273.807 34.4769Z" stroke="#EDE0D4" stroke-width="0.2"/>
<rect x="216.5" y="70.9838" width="1.17531" height="3.47685" fill="#D9D9D9"/>
<rect x="216.5" y="77.9375" width="1.17531" height="3.47685" fill="#D9D9D9"/>
<rect x="216.5" y="64.0301" width="1.17531" height="3.47685" fill="#D9D9D9"/>
<rect x="216.5" y="57.0764" width="1.17531" height="3.47685" fill="#D9D9D9"/>
<rect x="216.5" y="50.1227" width="1.17531" height="3.47685" fill="#D9D9D9"/>
<rect x="216.5" y="43.169" width="1.17531" height="3.47685" fill="#D9D9D9"/>
<rect x="216.5" y="36.2153" width="1.17531" height="3.47685" fill="#D9D9D9"/>
<path d="M64.5855 50.008C64.9855 50.024 65.5215 50.04 66.1935 50.056C66.8815 50.072 67.5615 50.08 68.2335 50.08C69.0015 50.08 69.7455 50.072 70.4655 50.056C71.1855 50.04 71.6975 50.032 72.0015 50.032C74.2255 50.032 75.8895 50.472 76.9935 51.352C78.0975 52.232 78.6495 53.368 78.6495 54.76C78.6495 55.336 78.5375 55.944 78.3135 56.584C78.0895 57.208 77.7055 57.792 77.1615 58.336C76.6335 58.864 75.9055 59.296 74.9775 59.632C74.0495 59.968 72.8815 60.136 71.4735 60.136H69.0255V59.656H71.2335C72.1775 59.656 72.8895 59.44 73.3695 59.008C73.8655 58.576 74.2015 58.008 74.3775 57.304C74.5695 56.6 74.6655 55.84 74.6655 55.024C74.6655 53.504 74.4415 52.368 73.9935 51.616C73.5455 50.864 72.7775 50.488 71.6895 50.488C71.0655 50.488 70.6575 50.624 70.4655 50.896C70.2895 51.168 70.2015 51.72 70.2015 52.552V64.312C70.2015 64.936 70.2655 65.4 70.3935 65.704C70.5215 66.008 70.7695 66.208 71.1375 66.304C71.5055 66.4 72.0495 66.456 72.7695 66.472V67C72.2735 66.984 71.6335 66.968 70.8495 66.952C70.0655 66.936 69.2415 66.928 68.3775 66.928C67.6895 66.928 67.0175 66.936 66.3615 66.952C65.7055 66.968 65.1135 66.984 64.5855 67V66.52C65.0975 66.488 65.4815 66.424 65.7375 66.328C65.9935 66.232 66.1615 66.04 66.2415 65.752C66.3375 65.464 66.3855 65.032 66.3855 64.456V52.552C66.3855 51.96 66.3375 51.528 66.2415 51.256C66.1615 50.968 65.9855 50.776 65.7135 50.68C65.4575 50.568 65.0815 50.504 64.5855 50.488V50.008ZM95.2485 50.008V50.488C94.7365 50.552 94.3445 50.688 94.0725 50.896C93.8165 51.088 93.6485 51.4 93.5685 51.832C93.4885 52.264 93.4485 52.872 93.4485 53.656V60.016C93.4485 61.056 93.3765 62.008 93.2325 62.872C93.0885 63.736 92.8325 64.48 92.4645 65.104C92.0485 65.792 91.4405 66.336 90.6405 66.736C89.8405 67.136 88.8245 67.336 87.5925 67.336C86.8565 67.336 86.1045 67.248 85.3365 67.072C84.5685 66.912 83.8805 66.6 83.2725 66.136C82.7605 65.704 82.3685 65.216 82.0965 64.672C81.8245 64.128 81.6405 63.488 81.5445 62.752C81.4485 62 81.4005 61.112 81.4005 60.088V52.552C81.4005 51.96 81.3525 51.528 81.2565 51.256C81.1765 50.968 81.0085 50.776 80.7525 50.68C80.4965 50.568 80.1125 50.504 79.6005 50.488V50.008C80.0005 50.024 80.5365 50.04 81.2085 50.056C81.8965 50.072 82.6085 50.08 83.3445 50.08C84.0805 50.08 84.7845 50.072 85.4565 50.056C86.1445 50.04 86.7125 50.024 87.1605 50.008V50.488C86.6165 50.504 86.2005 50.568 85.9125 50.68C85.6405 50.776 85.4565 50.968 85.3605 51.256C85.2645 51.528 85.2165 51.96 85.2165 52.552V61.6C85.2165 62.4 85.2645 63.112 85.3605 63.736C85.4725 64.344 85.6485 64.856 85.8885 65.272C86.1445 65.672 86.4885 65.976 86.9205 66.184C87.3525 66.392 87.8885 66.496 88.5285 66.496C89.6485 66.496 90.5205 66.232 91.1445 65.704C91.7845 65.176 92.2325 64.448 92.4885 63.52C92.7605 62.576 92.8965 61.496 92.8965 60.28V53.944C92.8965 53.064 92.8405 52.392 92.7285 51.928C92.6165 51.448 92.3925 51.104 92.0565 50.896C91.7365 50.688 91.2405 50.552 90.5685 50.488V50.008C90.8725 50.024 91.2725 50.04 91.7685 50.056C92.2645 50.072 92.7285 50.08 93.1605 50.08C93.5445 50.08 93.9205 50.072 94.2885 50.056C94.6725 50.04 94.9925 50.024 95.2485 50.008ZM96.5074 50.008C96.9074 50.024 97.4434 50.04 98.1154 50.056C98.8034 50.072 99.4834 50.08 100.155 50.08C100.923 50.08 101.667 50.072 102.387 50.056C103.107 50.04 103.619 50.032 103.923 50.032C106.147 50.032 107.811 50.472 108.915 51.352C110.019 52.232 110.571 53.368 110.571 54.76C110.571 55.336 110.459 55.944 110.235 56.584C110.011 57.208 109.627 57.792 109.083 58.336C108.555 58.864 107.827 59.296 106.899 59.632C105.971 59.968 104.803 60.136 103.395 60.136H100.947V59.656H103.155C104.099 59.656 104.811 59.44 105.291 59.008C105.787 58.576 106.123 58.008 106.299 57.304C106.491 56.6 106.587 55.84 106.587 55.024C106.587 53.504 106.363 52.368 105.915 51.616C105.467 50.864 104.699 50.488 103.611 50.488C102.987 50.488 102.579 50.624 102.387 50.896C102.211 51.168 102.123 51.72 102.123 52.552V64.312C102.123 64.936 102.187 65.4 102.315 65.704C102.443 66.008 102.691 66.208 103.059 66.304C103.427 66.4 103.971 66.456 104.691 66.472V67C104.195 66.984 103.555 66.968 102.771 66.952C101.987 66.936 101.163 66.928 100.299 66.928C99.6114 66.928 98.9394 66.936 98.2834 66.952C97.6274 66.968 97.0354 66.984 96.5074 67V66.52C97.0194 66.488 97.4034 66.424 97.6594 66.328C97.9154 66.232 98.0834 66.04 98.1634 65.752C98.2594 65.464 98.3074 65.032 98.3074 64.456V52.552C98.3074 51.96 98.2594 51.528 98.1634 51.256C98.0834 50.968 97.9074 50.776 97.6354 50.68C97.3794 50.568 97.0034 50.504 96.5074 50.488V50.008ZM111.765 50.008C112.165 50.024 112.701 50.04 113.373 50.056C114.061 50.072 114.741 50.08 115.413 50.08C116.181 50.08 116.925 50.072 117.645 50.056C118.365 50.04 118.877 50.032 119.181 50.032C121.405 50.032 123.069 50.472 124.173 51.352C125.277 52.232 125.829 53.368 125.829 54.76C125.829 55.336 125.717 55.944 125.493 56.584C125.269 57.208 124.885 57.792 124.341 58.336C123.813 58.864 123.085 59.296 122.157 59.632C121.229 59.968 120.061 60.136 118.653 60.136H116.205V59.656H118.413C119.357 59.656 120.069 59.44 120.549 59.008C121.045 58.576 121.381 58.008 121.557 57.304C121.749 56.6 121.845 55.84 121.845 55.024C121.845 53.504 121.621 52.368 121.173 51.616C120.725 50.864 119.957 50.488 118.869 50.488C118.245 50.488 117.837 50.624 117.645 50.896C117.469 51.168 117.381 51.72 117.381 52.552V64.312C117.381 64.936 117.445 65.4 117.573 65.704C117.701 66.008 117.949 66.208 118.317 66.304C118.685 66.4 119.229 66.456 119.949 66.472V67C119.453 66.984 118.813 66.968 118.029 66.952C117.245 66.936 116.421 66.928 115.557 66.928C114.869 66.928 114.197 66.936 113.541 66.952C112.885 66.968 112.293 66.984 111.765 67V66.52C112.277 66.488 112.661 66.424 112.917 66.328C113.173 66.232 113.341 66.04 113.421 65.752C113.517 65.464 113.565 65.032 113.565 64.456V52.552C113.565 51.96 113.517 51.528 113.421 51.256C113.341 50.968 113.165 50.776 112.893 50.68C112.637 50.568 112.261 50.504 111.765 50.488V50.008ZM139.863 50.008C139.799 50.712 139.751 51.392 139.719 52.048C139.703 52.704 139.695 53.208 139.695 53.56C139.695 53.88 139.703 54.184 139.719 54.472C139.735 54.76 139.751 55 139.767 55.192H139.215C139.055 54.024 138.807 53.104 138.471 52.432C138.135 51.744 137.695 51.264 137.151 50.992C136.623 50.704 135.999 50.56 135.279 50.56H134.295C133.831 50.56 133.479 50.6 133.239 50.68C132.999 50.76 132.839 50.92 132.759 51.16C132.679 51.4 132.639 51.768 132.639 52.264V64.744C132.639 65.24 132.679 65.608 132.759 65.848C132.839 66.088 132.999 66.248 133.239 66.328C133.479 66.408 133.831 66.448 134.295 66.448H135.471C136.191 66.448 136.823 66.296 137.367 65.992C137.927 65.672 138.399 65.136 138.783 64.384C139.183 63.632 139.487 62.616 139.695 61.336H140.247C140.199 61.848 140.175 62.52 140.175 63.352C140.175 63.72 140.183 64.24 140.199 64.912C140.215 65.584 140.263 66.28 140.343 67C139.527 66.968 138.607 66.952 137.583 66.952C136.559 66.936 135.647 66.928 134.847 66.928C134.447 66.928 133.935 66.928 133.311 66.928C132.687 66.928 132.015 66.936 131.295 66.952C130.575 66.952 129.847 66.96 129.111 66.976C128.375 66.976 127.679 66.984 127.023 67V66.52C127.535 66.488 127.919 66.424 128.175 66.328C128.431 66.232 128.599 66.04 128.679 65.752C128.775 65.464 128.823 65.032 128.823 64.456V52.552C128.823 51.96 128.775 51.528 128.679 51.256C128.599 50.968 128.423 50.776 128.151 50.68C127.895 50.568 127.519 50.504 127.023 50.488V50.008C127.679 50.024 128.375 50.04 129.111 50.056C129.847 50.056 130.575 50.064 131.295 50.08C132.015 50.08 132.687 50.08 133.311 50.08C133.935 50.08 134.447 50.08 134.847 50.08C135.583 50.08 136.415 50.08 137.343 50.08C138.287 50.064 139.127 50.04 139.863 50.008ZM136.119 58.216C136.119 58.216 136.119 58.296 136.119 58.456C136.119 58.616 136.119 58.696 136.119 58.696H131.919C131.919 58.696 131.919 58.616 131.919 58.456C131.919 58.296 131.919 58.216 131.919 58.216H136.119ZM136.815 55.048C136.751 55.96 136.719 56.656 136.719 57.136C136.735 57.616 136.743 58.056 136.743 58.456C136.743 58.856 136.751 59.296 136.767 59.776C136.783 60.256 136.823 60.952 136.887 61.864H136.335C136.255 61.304 136.103 60.784 135.879 60.304C135.671 59.824 135.367 59.44 134.967 59.152C134.567 58.848 134.047 58.696 133.407 58.696V58.216C133.887 58.216 134.295 58.12 134.631 57.928C134.967 57.72 135.239 57.456 135.447 57.136C135.671 56.8 135.847 56.448 135.975 56.08C136.103 55.712 136.199 55.368 136.263 55.048H136.815ZM156.826 50.008C156.762 50.824 156.714 51.608 156.682 52.36C156.666 53.112 156.658 53.688 156.658 54.088C156.658 54.44 156.666 54.776 156.682 55.096C156.698 55.416 156.714 55.688 156.73 55.912H156.178C155.922 54.568 155.594 53.504 155.194 52.72C154.81 51.936 154.346 51.384 153.802 51.064C153.258 50.728 152.618 50.56 151.882 50.56H151.33V64.264C151.33 64.904 151.394 65.384 151.522 65.704C151.666 66.024 151.922 66.24 152.29 66.352C152.658 66.448 153.194 66.504 153.898 66.52V67C153.402 66.984 152.738 66.968 151.906 66.952C151.09 66.936 150.234 66.928 149.338 66.928C148.458 66.928 147.626 66.936 146.842 66.952C146.058 66.968 145.426 66.984 144.946 67V66.52C145.666 66.504 146.21 66.448 146.578 66.352C146.946 66.24 147.194 66.024 147.322 65.704C147.45 65.384 147.514 64.904 147.514 64.264V50.56H146.986C146.25 50.56 145.61 50.728 145.066 51.064C144.522 51.384 144.058 51.936 143.674 52.72C143.29 53.488 142.954 54.552 142.666 55.912H142.114C142.146 55.688 142.162 55.416 142.162 55.096C142.178 54.776 142.186 54.44 142.186 54.088C142.186 53.688 142.17 53.112 142.138 52.36C142.122 51.608 142.082 50.824 142.018 50.008C142.754 50.024 143.554 50.04 144.418 50.056C145.298 50.072 146.178 50.08 147.058 50.08C147.938 50.08 148.73 50.08 149.434 50.08C150.154 50.08 150.946 50.08 151.81 50.08C152.69 50.08 153.57 50.072 154.45 50.056C155.33 50.04 156.122 50.024 156.826 50.008ZM171.105 50.008C171.041 50.712 170.993 51.392 170.961 52.048C170.945 52.704 170.937 53.208 170.937 53.56C170.937 53.88 170.945 54.184 170.961 54.472C170.977 54.76 170.993 55 171.009 55.192H170.457C170.297 54.024 170.049 53.104 169.713 52.432C169.377 51.744 168.937 51.264 168.393 50.992C167.865 50.704 167.241 50.56 166.521 50.56H165.537C165.073 50.56 164.721 50.6 164.481 50.68C164.241 50.76 164.081 50.92 164.001 51.16C163.921 51.4 163.881 51.768 163.881 52.264V64.744C163.881 65.24 163.921 65.608 164.001 65.848C164.081 66.088 164.241 66.248 164.481 66.328C164.721 66.408 165.073 66.448 165.537 66.448H166.713C167.433 66.448 168.065 66.296 168.609 65.992C169.169 65.672 169.641 65.136 170.025 64.384C170.425 63.632 170.729 62.616 170.937 61.336H171.489C171.441 61.848 171.417 62.52 171.417 63.352C171.417 63.72 171.425 64.24 171.441 64.912C171.457 65.584 171.505 66.28 171.585 67C170.769 66.968 169.849 66.952 168.825 66.952C167.801 66.936 166.889 66.928 166.089 66.928C165.689 66.928 165.177 66.928 164.553 66.928C163.929 66.928 163.257 66.936 162.537 66.952C161.817 66.952 161.089 66.96 160.353 66.976C159.617 66.976 158.921 66.984 158.265 67V66.52C158.777 66.488 159.161 66.424 159.417 66.328C159.673 66.232 159.841 66.04 159.921 65.752C160.017 65.464 160.065 65.032 160.065 64.456V52.552C160.065 51.96 160.017 51.528 159.921 51.256C159.841 50.968 159.665 50.776 159.393 50.68C159.137 50.568 158.761 50.504 158.265 50.488V50.008C158.921 50.024 159.617 50.04 160.353 50.056C161.089 50.056 161.817 50.064 162.537 50.08C163.257 50.08 163.929 50.08 164.553 50.08C165.177 50.08 165.689 50.08 166.089 50.08C166.825 50.08 167.657 50.08 168.585 50.08C169.529 50.064 170.369 50.04 171.105 50.008ZM167.361 58.216C167.361 58.216 167.361 58.296 167.361 58.456C167.361 58.616 167.361 58.696 167.361 58.696H163.161C163.161 58.696 163.161 58.616 163.161 58.456C163.161 58.296 163.161 58.216 163.161 58.216H167.361ZM168.057 55.048C167.993 55.96 167.961 56.656 167.961 57.136C167.977 57.616 167.985 58.056 167.985 58.456C167.985 58.856 167.993 59.296 168.009 59.776C168.025 60.256 168.065 60.952 168.129 61.864H167.577C167.497 61.304 167.345 60.784 167.121 60.304C166.913 59.824 166.609 59.44 166.209 59.152C165.809 58.848 165.289 58.696 164.649 58.696V58.216C165.129 58.216 165.537 58.12 165.873 57.928C166.209 57.72 166.481 57.456 166.689 57.136C166.913 56.8 167.089 56.448 167.217 56.08C167.345 55.712 167.441 55.368 167.505 55.048H168.057ZM186.316 50.008C186.252 50.712 186.204 51.392 186.172 52.048C186.156 52.704 186.148 53.208 186.148 53.56C186.148 53.88 186.156 54.184 186.172 54.472C186.188 54.76 186.204 55 186.22 55.192H185.668C185.508 54.024 185.26 53.104 184.924 52.432C184.588 51.744 184.148 51.264 183.604 50.992C183.076 50.704 182.452 50.56 181.732 50.56H180.748C180.284 50.56 179.932 50.6 179.692 50.68C179.452 50.76 179.292 50.92 179.212 51.16C179.132 51.4 179.092 51.768 179.092 52.264V64.744C179.092 65.24 179.132 65.608 179.212 65.848C179.292 66.088 179.452 66.248 179.692 66.328C179.932 66.408 180.284 66.448 180.748 66.448H181.924C182.644 66.448 183.276 66.296 183.82 65.992C184.38 65.672 184.852 65.136 185.236 64.384C185.636 63.632 185.94 62.616 186.148 61.336H186.7C186.652 61.848 186.628 62.52 186.628 63.352C186.628 63.72 186.636 64.24 186.652 64.912C186.668 65.584 186.716 66.28 186.796 67C185.98 66.968 185.06 66.952 184.036 66.952C183.012 66.936 182.1 66.928 181.3 66.928C180.9 66.928 180.388 66.928 179.764 66.928C179.14 66.928 178.468 66.936 177.748 66.952C177.028 66.952 176.3 66.96 175.564 66.976C174.828 66.976 174.132 66.984 173.476 67V66.52C173.988 66.488 174.372 66.424 174.628 66.328C174.884 66.232 175.052 66.04 175.132 65.752C175.228 65.464 175.276 65.032 175.276 64.456V52.552C175.276 51.96 175.228 51.528 175.132 51.256C175.052 50.968 174.876 50.776 174.604 50.68C174.348 50.568 173.972 50.504 173.476 50.488V50.008C174.132 50.024 174.828 50.04 175.564 50.056C176.3 50.056 177.028 50.064 177.748 50.08C178.468 50.08 179.14 50.08 179.764 50.08C180.388 50.08 180.9 50.08 181.3 50.08C182.036 50.08 182.868 50.08 183.796 50.08C184.74 50.064 185.58 50.04 186.316 50.008ZM182.572 58.216C182.572 58.216 182.572 58.296 182.572 58.456C182.572 58.616 182.572 58.696 182.572 58.696H178.372C178.372 58.696 178.372 58.616 178.372 58.456C178.372 58.296 178.372 58.216 178.372 58.216H182.572ZM183.268 55.048C183.204 55.96 183.172 56.656 183.172 57.136C183.188 57.616 183.196 58.056 183.196 58.456C183.196 58.856 183.204 59.296 183.22 59.776C183.236 60.256 183.276 60.952 183.34 61.864H182.788C182.708 61.304 182.556 60.784 182.332 60.304C182.124 59.824 181.82 59.44 181.42 59.152C181.02 58.848 180.5 58.696 179.86 58.696V58.216C180.34 58.216 180.748 58.12 181.084 57.928C181.42 57.72 181.692 57.456 181.9 57.136C182.124 56.8 182.3 56.448 182.428 56.08C182.556 55.712 182.652 55.368 182.716 55.048H183.268ZM188.687 50.008C189.087 50.024 189.623 50.04 190.295 50.056C190.983 50.072 191.663 50.08 192.335 50.08C193.103 50.08 193.847 50.072 194.567 50.056C195.287 50.04 195.799 50.032 196.103 50.032C197.591 50.032 198.823 50.2 199.799 50.536C200.791 50.856 201.527 51.328 202.007 51.952C202.503 52.576 202.751 53.328 202.751 54.208C202.751 54.752 202.639 55.304 202.415 55.864C202.191 56.408 201.807 56.92 201.263 57.4C200.735 57.864 200.007 58.24 199.079 58.528C198.151 58.8 196.983 58.936 195.575 58.936H193.271V58.456H195.335C196.279 58.456 196.991 58.28 197.471 57.928C197.967 57.56 198.303 57.08 198.479 56.488C198.671 55.88 198.767 55.208 198.767 54.472C198.767 53.208 198.543 52.232 198.095 51.544C197.647 50.84 196.879 50.488 195.791 50.488C195.167 50.488 194.759 50.624 194.567 50.896C194.391 51.168 194.303 51.72 194.303 52.552V64.456C194.303 65.032 194.343 65.464 194.423 65.752C194.519 66.04 194.695 66.232 194.951 66.328C195.207 66.424 195.591 66.488 196.103 66.52V67C195.671 66.968 195.127 66.952 194.471 66.952C193.815 66.936 193.151 66.928 192.479 66.928C191.711 66.928 190.983 66.936 190.295 66.952C189.623 66.952 189.087 66.968 188.687 67V66.52C189.199 66.488 189.583 66.424 189.839 66.328C190.095 66.232 190.263 66.04 190.343 65.752C190.439 65.464 190.487 65.032 190.487 64.456V52.552C190.487 51.96 190.439 51.528 190.343 51.256C190.263 50.968 190.087 50.776 189.815 50.68C189.559 50.568 189.183 50.504 188.687 50.488V50.008ZM193.223 58.528C193.911 58.544 194.503 58.576 194.999 58.624C195.511 58.672 195.959 58.72 196.343 58.768C196.727 58.8 197.071 58.824 197.375 58.84C198.831 58.968 199.903 59.28 200.591 59.776C201.295 60.272 201.751 61.016 201.959 62.008L202.511 64.48C202.655 65.12 202.807 65.568 202.967 65.824C203.127 66.08 203.359 66.208 203.663 66.208C203.871 66.192 204.039 66.144 204.167 66.064C204.311 65.968 204.463 65.832 204.623 65.656L204.959 65.944C204.527 66.44 204.063 66.792 203.567 67C203.071 67.224 202.471 67.336 201.767 67.336C200.903 67.336 200.191 67.152 199.631 66.784C199.071 66.416 198.703 65.736 198.527 64.744L198.095 62.344C197.983 61.672 197.847 61.088 197.687 60.592C197.527 60.08 197.303 59.68 197.015 59.392C196.743 59.088 196.359 58.936 195.863 58.936H193.271L193.223 58.528Z" fill="#EDE0D4"/>
<path d="M249.729 50.008V50.488C249.217 50.504 248.833 50.568 248.577 50.68C248.321 50.776 248.145 50.968 248.049 51.256C247.969 51.528 247.929 51.96 247.929 52.552V64.456C247.929 65.032 247.969 65.464 248.049 65.752C248.145 66.04 248.321 66.232 248.577 66.328C248.833 66.424 249.217 66.488 249.729 66.52V67C249.281 66.968 248.713 66.952 248.025 66.952C247.353 66.936 246.665 66.928 245.961 66.928C245.193 66.928 244.473 66.936 243.801 66.952C243.129 66.952 242.585 66.968 242.169 67V66.52C242.713 66.488 243.121 66.424 243.393 66.328C243.681 66.232 243.873 66.04 243.969 65.752C244.065 65.464 244.113 65.032 244.113 64.456V51.472H244.281L238.329 67.024H237.945L231.465 51.568V63.064C231.465 63.944 231.513 64.624 231.609 65.104C231.705 65.568 231.913 65.904 232.233 66.112C232.569 66.304 233.089 66.44 233.793 66.52V67C233.489 66.968 233.089 66.952 232.593 66.952C232.097 66.936 231.633 66.928 231.201 66.928C230.833 66.928 230.457 66.936 230.073 66.952C229.689 66.952 229.369 66.968 229.113 67V66.52C229.625 66.44 230.009 66.304 230.265 66.112C230.521 65.92 230.689 65.608 230.769 65.176C230.865 64.728 230.913 64.12 230.913 63.352V52.552C230.913 51.96 230.865 51.528 230.769 51.256C230.689 50.968 230.513 50.776 230.241 50.68C229.985 50.568 229.609 50.504 229.113 50.488V50.008C229.369 50.024 229.689 50.04 230.073 50.056C230.457 50.072 230.833 50.08 231.201 50.08C231.889 50.08 232.561 50.072 233.217 50.056C233.889 50.04 234.481 50.024 234.993 50.008L240.033 62.176L239.433 62.728L244.257 50.08C244.529 50.08 244.809 50.08 245.097 50.08C245.385 50.08 245.673 50.08 245.961 50.08C246.665 50.08 247.353 50.072 248.025 50.056C248.713 50.04 249.281 50.024 249.729 50.008ZM264.172 50.008C264.108 50.712 264.06 51.392 264.028 52.048C264.012 52.704 264.004 53.208 264.004 53.56C264.004 53.88 264.012 54.184 264.028 54.472C264.044 54.76 264.06 55 264.076 55.192H263.524C263.364 54.024 263.116 53.104 262.78 52.432C262.444 51.744 262.004 51.264 261.46 50.992C260.932 50.704 260.308 50.56 259.588 50.56H258.604C258.14 50.56 257.788 50.6 257.548 50.68C257.308 50.76 257.148 50.92 257.068 51.16C256.988 51.4 256.948 51.768 256.948 52.264V64.744C256.948 65.24 256.988 65.608 257.068 65.848C257.148 66.088 257.308 66.248 257.548 66.328C257.788 66.408 258.14 66.448 258.604 66.448H259.78C260.5 66.448 261.132 66.296 261.676 65.992C262.236 65.672 262.708 65.136 263.092 64.384C263.492 63.632 263.796 62.616 264.004 61.336H264.556C264.508 61.848 264.484 62.52 264.484 63.352C264.484 63.72 264.492 64.24 264.508 64.912C264.524 65.584 264.572 66.28 264.652 67C263.836 66.968 262.916 66.952 261.892 66.952C260.868 66.936 259.956 66.928 259.156 66.928C258.756 66.928 258.244 66.928 257.62 66.928C256.996 66.928 256.324 66.936 255.604 66.952C254.884 66.952 254.156 66.96 253.42 66.976C252.684 66.976 251.988 66.984 251.332 67V66.52C251.844 66.488 252.228 66.424 252.484 66.328C252.74 66.232 252.908 66.04 252.988 65.752C253.084 65.464 253.132 65.032 253.132 64.456V52.552C253.132 51.96 253.084 51.528 252.988 51.256C252.908 50.968 252.732 50.776 252.46 50.68C252.204 50.568 251.828 50.504 251.332 50.488V50.008C251.988 50.024 252.684 50.04 253.42 50.056C254.156 50.056 254.884 50.064 255.604 50.08C256.324 50.08 256.996 50.08 257.62 50.08C258.244 50.08 258.756 50.08 259.156 50.08C259.892 50.08 260.724 50.08 261.652 50.08C262.596 50.064 263.436 50.04 264.172 50.008ZM260.428 58.216C260.428 58.216 260.428 58.296 260.428 58.456C260.428 58.616 260.428 58.696 260.428 58.696H256.228C256.228 58.696 256.228 58.616 256.228 58.456C256.228 58.296 256.228 58.216 256.228 58.216H260.428ZM261.124 55.048C261.06 55.96 261.028 56.656 261.028 57.136C261.044 57.616 261.052 58.056 261.052 58.456C261.052 58.856 261.06 59.296 261.076 59.776C261.092 60.256 261.132 60.952 261.196 61.864H260.644C260.564 61.304 260.412 60.784 260.188 60.304C259.98 59.824 259.676 59.44 259.276 59.152C258.876 58.848 258.356 58.696 257.716 58.696V58.216C258.196 58.216 258.604 58.12 258.94 57.928C259.276 57.72 259.548 57.456 259.756 57.136C259.98 56.8 260.156 56.448 260.284 56.08C260.412 55.712 260.508 55.368 260.572 55.048H261.124Z" fill="#EDE0D4"/>
<g filter="url(#filter10_f_72_41)">
<ellipse cx="155.5" cy="268" rx="57.5" ry="7" fill="#EDE0D4"/>
</g>
<defs>
<filter id="filter0_d_72_41" x="292.638" y="71.0164" width="16.3618" height="16.3621" filterUnits="userSpaceOnUse" color-interpolation-filters="sRGB">
<feFlood flood-opacity="0" result="BackgroundImageFix"/>
<feColorMatrix in="SourceAlpha" type="matrix" values="0 0 0 0 0 0 0 0 0 0 0 0 0 0 0 0 0 0 127 0" result="hardAlpha"/>
<feOffset dy="4"/>
<feGaussianBlur stdDeviation="2"/>
<feComposite in2="hardAlpha" operator="out"/>
<feColorMatrix type="matrix" values="0 0 0 0 0 0 0 0 0 0 0 0 0 0 0 0 0 0 0.25 0"/>
<feBlend mode="normal" in2="BackgroundImageFix" result="effect1_dropShadow_72_41"/>
<feBlend mode="normal" in="SourceGraphic" in2="effect1_dropShadow_72_41" result="shape"/>
</filter>
<filter id="filter1_d_72_41" x="233.521" y="11.3998" width="15.7568" height="15.7568" filterUnits="userSpaceOnUse" color-interpolation-filters="sRGB">
<feFlood flood-opacity="0" result="BackgroundImageFix"/>
<feColorMatrix in="SourceAlpha" type="matrix" values="0 0 0 0 0 0 0 0 0 0 0 0 0 0 0 0 0 0 127 0" result="hardAlpha"/>
<feOffset dy="4"/>
<feGaussianBlur stdDeviation="2"/>
<feComposite in2="hardAlpha" operator="out"/>
<feColorMatrix type="matrix" values="0 0 0 0 0 0 0 0 0 0 0 0 0 0 0 0 0 0 0.25 0"/>
<feBlend mode="normal" in2="BackgroundImageFix" result="effect1_dropShadow_72_41"/>
<feBlend mode="normal" in="SourceGraphic" in2="effect1_dropShadow_72_41" result="shape"/>
</filter>
<filter id="filter2_d_72_41" x="317" y="1" width="18.4126" height="18.4125" filterUnits="userSpaceOnUse" color-interpolation-filters="sRGB">
<feFlood flood-opacity="0" result="BackgroundImageFix"/>
<feColorMatrix in="SourceAlpha" type="matrix" values="0 0 0 0 0 0 0 0 0 0 0 0 0 0 0 0 0 0 127 0" result="hardAlpha"/>
<feOffset dy="4"/>
<feGaussianBlur stdDeviation="2"/>
<feComposite in2="hardAlpha" operator="out"/>
<feColorMatrix type="matrix" values="0 0 0 0 0 0 0 0 0 0 0 0 0 0 0 0 0 0 0.25 0"/>
<feBlend mode="normal" in2="BackgroundImageFix" result="effect1_dropShadow_72_41"/>
<feBlend mode="normal" in="SourceGraphic" in2="effect1_dropShadow_72_41" result="shape"/>
</filter>
<filter id="filter3_f_72_41" x="127.952" y="72.6795" width="5.321" height="147.729" filterUnits="userSpaceOnUse" color-interpolation-filters="sRGB">
<feFlood flood-opacity="0" result="BackgroundImageFix"/>
<feBlend mode="normal" in="SourceGraphic" in2="BackgroundImageFix" result="shape"/>
<feGaussianBlur stdDeviation="0.2" result="effect1_foregroundBlur_72_41"/>
</filter>
<filter id="filter4_f_72_41" x="176.551" y="72.6" width="16.2585" height="149.484" filterUnits="userSpaceOnUse" color-interpolation-filters="sRGB">
<feFlood flood-opacity="0" result="BackgroundImageFix"/>
<feBlend mode="normal" in="SourceGraphic" in2="BackgroundImageFix" result="shape"/>
<feGaussianBlur stdDeviation="0.2" result="effect1_foregroundBlur_72_41"/>
</filter>
<filter id="filter5_f_72_41" x="110.998" y="72.6" width="13.6667" height="89.1142" filterUnits="userSpaceOnUse" color-interpolation-filters="sRGB">
<feFlood flood-opacity="0" result="BackgroundImageFix"/>
<feBlend mode="normal" in="SourceGraphic" in2="BackgroundImageFix" result="shape"/>
<feGaussianBlur stdDeviation="0.2" result="effect1_foregroundBlur_72_41"/>
</filter>
<filter id="filter6_f_72_41" x="206.064" y="72.8865" width="12.5637" height="77.5255" filterUnits="userSpaceOnUse" color-interpolation-filters="sRGB">
<feFlood flood-opacity="0" result="BackgroundImageFix"/>
<feBlend mode="normal" in="SourceGraphic" in2="BackgroundImageFix" result="shape"/>
<feGaussianBlur stdDeviation="0.2" result="effect1_foregroundBlur_72_41"/>
</filter>
<filter id="filter7_d_72_41" x="112.511" y="176.42" width="76.4521" height="80.815" filterUnits="userSpaceOnUse" color-interpolation-filters="sRGB">
<feFlood flood-opacity="0" result="BackgroundImageFix"/>
<feColorMatrix in="SourceAlpha" type="matrix" values="0 0 0 0 0 0 0 0 0 0 0 0 0 0 0 0 0 0 127 0" result="hardAlpha"/>
<feOffset dy="4"/>
<feGaussianBlur stdDeviation="2"/>
<feComposite in2="hardAlpha" operator="out"/>
<feColorMatrix type="matrix" values="0 0 0 0 0 0 0 0 0 0 0 0 0 0 0 0 0 0 0.25 0"/>
<feBlend mode="normal" in2="BackgroundImageFix" result="effect1_dropShadow_72_41"/>
<feBlend mode="normal" in="SourceGraphic" in2="effect1_dropShadow_72_41" result="shape"/>
</filter>
<filter id="filter8_d_72_41" x="104" y="141.213" width="123.006" height="49.4982" filterUnits="userSpaceOnUse" color-interpolation-filters="sRGB">
<feFlood flood-opacity="0" result="BackgroundImageFix"/>
<feColorMatrix in="SourceAlpha" type="matrix" values="0 0 0 0 0 0 0 0 0 0 0 0 0 0 0 0 0 0 127 0" result="hardAlpha"/>
<feOffset dy="4"/>
<feGaussianBlur stdDeviation="2"/>
<feComposite in2="hardAlpha" operator="out"/>
<feColorMatrix type="matrix" values="0 0 0 0 0 0 0 0 0 0 0 0 0 0 0 0 0 0 0.25 0"/>
<feBlend mode="normal" in2="BackgroundImageFix" result="effect1_dropShadow_72_41"/>
<feBlend mode="normal" in="SourceGraphic" in2="effect1_dropShadow_72_41" result="shape"/>
</filter>
<filter id="filter9_d_72_41" x="148.086" y="129.591" width="32.8647" height="32.8649" filterUnits="userSpaceOnUse" color-interpolation-filters="sRGB">
<feFlood flood-opacity="0" result="BackgroundImageFix"/>
<feColorMatrix in="SourceAlpha" type="matrix" values="0 0 0 0 0 0 0 0 0 0 0 0 0 0 0 0 0 0 127 0" result="hardAlpha"/>
<feOffset dy="4"/>
<feGaussianBlur stdDeviation="2"/>
<feComposite in2="hardAlpha" operator="out"/>
<feColorMatrix type="matrix" values="0 0 0 0 0 0 0 0 0 0 0 0 0 0 0 0 0 0 0.25 0"/>
<feBlend mode="normal" in2="BackgroundImageFix" result="effect1_dropShadow_72_41"/>
<feBlend mode="normal" in="SourceGraphic" in2="effect1_dropShadow_72_41" result="shape"/>
</filter>
<filter id="filter10_f_72_41" x="93.7" y="256.7" width="123.6" height="22.6" filterUnits="userSpaceOnUse" color-interpolation-filters="sRGB">
<feFlood flood-opacity="0" result="BackgroundImageFix"/>
<feBlend mode="normal" in="SourceGraphic" in2="BackgroundImageFix" result="shape"/>
<feGaussianBlur stdDeviation="2.15" result="effect1_foregroundBlur_72_41"/>
</filter>
<linearGradient id="paint0_linear_72_41" x1="150.737" y1="176.42" x2="150.737" y2="249.235" gradientUnits="userSpaceOnUse">
<stop offset="0.535" stop-color="#1D1D1D"/>
<stop offset="1" stop-color="#363636"/>
</linearGradient>
<linearGradient id="paint1_linear_72_41" x1="150.737" y1="176.42" x2="150.737" y2="249.235" gradientUnits="userSpaceOnUse">
<stop offset="0.535" stop-color="#1D1D1D"/>
<stop offset="1" stop-color="#363636"/>
</linearGradient>
<linearGradient id="paint2_linear_72_41" x1="150.737" y1="176.42" x2="150.737" y2="249.235" gradientUnits="userSpaceOnUse">
<stop offset="0.535" stop-color="#1D1D1D"/>
<stop offset="1" stop-color="#363636"/>
</linearGradient>
<linearGradient id="paint3_linear_72_41" x1="150.737" y1="176.42" x2="150.737" y2="249.235" gradientUnits="userSpaceOnUse">
<stop offset="0.535" stop-color="#1D1D1D"/>
<stop offset="1" stop-color="#363636"/>
</linearGradient>
<linearGradient id="paint4_linear_72_41" x1="165.503" y1="141.213" x2="165.503" y2="182.711" gradientUnits="userSpaceOnUse">
<stop offset="0.41" stop-color="#00435B"/>
<stop offset="1" stop-color="#008EC1"/>
</linearGradient>
<linearGradient id="paint5_linear_72_41" x1="165.503" y1="141.213" x2="165.503" y2="182.711" gradientUnits="userSpaceOnUse">
<stop offset="0.41" stop-color="#00435B"/>
<stop offset="1" stop-color="#008EC1"/>
</linearGradient>
<linearGradient id="paint6_linear_72_41" x1="165.503" y1="141.213" x2="165.503" y2="182.711" gradientUnits="userSpaceOnUse">
<stop offset="0.41" stop-color="#00435B"/>
<stop offset="1" stop-color="#008EC1"/>
</linearGradient>
<linearGradient id="paint7_linear_72_41" x1="165.503" y1="141.213" x2="165.503" y2="182.711" gradientUnits="userSpaceOnUse">
<stop offset="0.41" stop-color="#00435B"/>
<stop offset="1" stop-color="#008EC1"/>
</linearGradient>
<linearGradient id="paint8_linear_72_41" x1="165.503" y1="141.213" x2="165.503" y2="182.711" gradientUnits="userSpaceOnUse">
<stop offset="0.41" stop-color="#00435B"/>
<stop offset="1" stop-color="#008EC1"/>
</linearGradient>
<linearGradient id="paint9_linear_72_41" x1="164.518" y1="129.591" x2="164.518" y2="154.455" gradientUnits="userSpaceOnUse">
<stop offset="0.355" stop-color="#59656A"/>
<stop offset="1" stop-color="#FEFEFE"/>
</linearGradient>
<linearGradient id="paint10_linear_72_41" x1="45" y1="58.8148" x2="283" y2="58.8148" gradientUnits="userSpaceOnUse">
<stop stop-color="#480914"/>
<stop offset="1" stop-color="#A1283D"/>
</linearGradient>
</defs>
</svg>
