<svg   width="338" height="280" viewBox="0 0 338 280" fill="none" xmlns="http://www.w3.org/2000/svg">
<rect x="74" y="84" width="184" height="2" fill="#BDBDBD"/>
<g   filter="url(#filter0_d_76_196)">
<path  d="M307 75C305.253 73.5694 304.416 72.695 303.016 71.0164C301.367 72.8069 300.418 73.7694 298.638 75.395C300.309 76.8339 301.171 77.7176 302.621 79.3785C304.196 77.5898 305.163 76.6339 307 75Z" fill="#E9C46A"/>
</g>
<path  d="M34.395 75.395C32.5696 73.8724 31.6854 72.9528 30.1974 71.1974C28.6224 72.9205 27.7132 73.8438 25.9998 75.395C27.7496 76.9223 28.6595 77.8525 30.1974 79.5926C31.6967 77.8675 32.6239 76.9517 34.395 75.395Z" fill="#E9C46A"/>
<g  filter="url(#filter1_d_76_196)">
<path   d="M247.278 15.2782C245.592 13.8714 244.775 13.0218 243.4 11.3998C241.945 12.9919 241.105 13.845 239.522 15.2782C241.138 16.6894 241.979 17.5488 243.4 19.1566C244.785 17.5628 245.642 16.7166 247.278 15.2782Z" fill="#E9C46A"/>
</g>
<path    d="M78.5244 15.9128C76.5915 14.3006 75.6552 13.3269 74.0796 11.468C72.4117 13.2927 71.449 14.2704 69.6347 15.9128C71.4876 17.5301 72.451 18.5151 74.0796 20.3577C75.6671 18.5311 76.6489 17.5613 78.5244 15.9128Z" fill="#E9C46A"/>
<path  d="M2.29004 6.43768C4.93138 4.23461 6.21082 2.90397 8.36386 0.363861C10.6429 2.85725 11.9585 4.19325 14.4377 6.43768C11.9058 8.64771 10.5892 9.99362 8.36386 12.5115C6.19447 10.0155 4.85287 8.69026 2.29004 6.43768Z" fill="#E9C46A"/>
<g   filter="url(#filter2_d_76_196)">
<path d="M323 6.20624C325.264 4.31786 326.361 3.17728 328.206 1.00001C330.16 3.13724 331.287 4.28241 333.412 6.20624C331.242 8.10058 330.114 9.25424 328.206 11.4125C326.347 9.27296 325.197 8.13705 323 6.20624Z" fill="#E9C46A"/>
</g>
<g class="swinging-puppet"  filter="url(#filter3_f_76_196)">
<rect x="130.352" y="73.0795" width="4.52089" height="146.929" fill="#EDE0D4" fill-opacity="0.79"/>
</g>
<g class="swinging-puppet"  filter="url(#filter4_f_76_196)">
<rect x="189.901" y="73" width="4.52089" height="148.755" transform="rotate(4.22122 189.901 73)" fill="#EDE0D4" fill-opacity="0.79"/>
</g>
<g class="swinging-puppet"  filter="url(#filter5_f_76_196)">
<rect x="121.765" y="73" width="4.52089" height="88.2831" transform="rotate(5.43786 121.765 73)" fill="#EDE0D4" fill-opacity="0.79"/>
</g>
<g class="swinging-puppet" filter="url(#filter6_f_76_196)">
<rect width="4.52089" height="76.642" transform="matrix(-0.9955 0.0947661 0.0947661 0.9955 212.965 73.2865)" fill="#EDE0D4" fill-opacity="0.79"/>
</g>
<g  class="swinging-puppet"  filter="url(#filter7_d_76_196)">
<path d="M167.942 184.431C167.325 180.674 169.871 177.129 173.628 176.512C177.297 175.91 180.788 178.328 181.476 181.982C183.698 193.773 185.045 202.779 186.883 215.434C187.374 218.811 185.568 222.11 182.458 223.514L181.95 223.743C180.818 224.254 179.554 224.397 178.337 224.15C175.923 223.662 174.064 221.732 173.665 219.303L167.942 184.431Z" fill="url(#paint0_linear_76_196)"/>
<path d="M167.159 193.766C171.43 190.423 171.08 183.852 166.477 180.983C163.771 179.295 160.292 179.411 157.775 181.369C148.796 188.353 145.04 192.86 136.266 200.437C133.442 202.875 132.951 207.106 135.25 210.043C137.58 213.02 141.882 213.545 144.859 211.216L167.159 193.766Z" fill="url(#paint1_linear_76_196)"/>
<path d="M174.361 216.386C175.132 212.75 178.862 210.564 182.411 211.667C185.318 212.571 187.17 215.421 186.791 218.442C185.613 227.837 184.637 234.005 182.947 243.473C182.279 247.218 178.735 249.735 174.976 249.151C170.996 248.533 168.352 244.699 169.188 240.76L174.361 216.386Z" fill="url(#paint2_linear_76_196)"/>
<path d="M144.954 209.256C146.776 206.189 145.667 202.221 142.52 200.542C139.758 199.068 136.328 199.86 134.518 202.415C128.774 210.524 125.047 216.261 119.588 224.863C117.57 228.042 118.468 232.252 121.604 234.335C124.903 236.525 129.364 235.507 131.386 232.102L144.954 209.256Z" fill="url(#paint3_linear_76_196)"/>
</g>
<g class="swinging-puppet"  filter="url(#filter8_d_76_196)">
<path d="M110.168 161.635C110.88 158.918 113.661 157.294 116.378 158.006L139.466 164.062C142.183 164.774 143.808 167.555 143.096 170.272C142.383 172.989 139.603 174.614 136.886 173.901L113.797 167.845C111.08 167.133 109.455 164.353 110.168 161.635Z" fill="url(#paint4_linear_76_196)"/>
<path d="M224.041 143.318C222.395 141.042 219.215 140.532 216.939 142.178L197.599 156.167C195.323 157.814 194.812 160.993 196.459 163.269C198.105 165.545 201.284 166.056 203.56 164.409L222.901 150.42C225.177 148.774 225.687 145.594 224.041 143.318Z" fill="url(#paint5_linear_76_196)"/>
<path d="M133.205 171.121C131.696 168.528 132.515 165.206 135.055 163.611L156.232 150.31C159.653 148.162 164.175 149.947 165.206 153.852C165.894 156.458 164.757 159.201 162.428 160.556L140.812 173.132C138.156 174.677 134.75 173.777 133.205 171.121Z" fill="url(#paint6_linear_76_196)"/>
<path d="M205.42 160.798C205.931 157.858 204.057 155.029 201.148 154.36C192.105 152.277 185.303 150.766 176.533 149.112C172.559 148.362 169.003 151.655 169.394 155.681C169.659 158.421 171.723 160.646 174.435 161.117L198.918 165.375C201.977 165.907 204.888 163.858 205.42 160.798Z" fill="url(#paint7_linear_76_196)"/>
<path d="M156.995 150.624C157.028 150.126 157.385 149.706 157.873 149.601C165.944 147.863 170.992 148.172 179.132 149.612C179.678 149.708 180.072 150.193 180.063 150.748C179.859 162.371 180.501 169.427 181.658 181.472C181.721 182.136 181.2 182.711 180.533 182.711H158.099C157.508 182.711 157.017 182.255 156.973 181.666C156.088 169.729 156.182 162.616 156.995 150.624Z" fill="url(#paint8_linear_76_196)"/>
</g>
<g class="swinging-puppet"  filter="url(#filter9_d_76_196)">
<circle cx="166.518" cy="142.023" r="12.4324" fill="url(#paint9_linear_76_196)"/>
</g>
<path d="M281.512 31H54.3457C54.3457 35.3461 50.0191 36.9953 47 38.8229V77.9375C48.7611 80.4294 54.3179 81.1764 53.7362 86.6296H281.649C279.606 82.0702 280.791 80.7249 285 77.0683V38.8229C280.422 35.9832 278.574 34.4769 281.512 31Z" fill="url(#paint10_linear_76_196)"/>
<path d="M275.807 34.4769H59.8594C59.8594 38.2797 55.7465 39.7227 52.8765 41.3219V75.5472C54.5506 77.7276 59.833 78.3812 59.28 83.1528H275.938C273.996 79.1633 275.123 77.9862 279.123 74.7866V41.3219C274.771 38.8372 273.014 37.5191 275.807 34.4769Z" stroke="#EDE0D4" stroke-width="0.2"/>
<rect x="218.5" y="70.9838" width="1.17531" height="3.47685" fill="#D9D9D9"/>
<rect x="218.5" y="77.9375" width="1.17531" height="3.47685" fill="#D9D9D9"/>
<rect x="218.5" y="64.0301" width="1.17531" height="3.47685" fill="#D9D9D9"/>
<rect x="218.5" y="57.0764" width="1.17531" height="3.47685" fill="#D9D9D9"/>
<rect x="218.5" y="50.1227" width="1.17531" height="3.47685" fill="#D9D9D9"/>
<rect x="218.5" y="43.169" width="1.17531" height="3.47685" fill="#D9D9D9"/>
<rect x="218.5" y="36.2153" width="1.17531" height="3.47685" fill="#D9D9D9"/>
<path d="M66.5855 50.008C66.9855 50.024 67.5215 50.04 68.1935 50.056C68.8815 50.072 69.5615 50.08 70.2335 50.08C71.0015 50.08 71.7455 50.072 72.4655 50.056C73.1855 50.04 73.6975 50.032 74.0015 50.032C76.2255 50.032 77.8895 50.472 78.9935 51.352C80.0975 52.232 80.6495 53.368 80.6495 54.76C80.6495 55.336 80.5375 55.944 80.3135 56.584C80.0895 57.208 79.7055 57.792 79.1615 58.336C78.6335 58.864 77.9055 59.296 76.9775 59.632C76.0495 59.968 74.8815 60.136 73.4735 60.136H71.0255V59.656H73.2335C74.1775 59.656 74.8895 59.44 75.3695 59.008C75.8655 58.576 76.2015 58.008 76.3775 57.304C76.5695 56.6 76.6655 55.84 76.6655 55.024C76.6655 53.504 76.4415 52.368 75.9935 51.616C75.5455 50.864 74.7775 50.488 73.6895 50.488C73.0655 50.488 72.6575 50.624 72.4655 50.896C72.2895 51.168 72.2015 51.72 72.2015 52.552V64.312C72.2015 64.936 72.2655 65.4 72.3935 65.704C72.5215 66.008 72.7695 66.208 73.1375 66.304C73.5055 66.4 74.0495 66.456 74.7695 66.472V67C74.2735 66.984 73.6335 66.968 72.8495 66.952C72.0655 66.936 71.2415 66.928 70.3775 66.928C69.6895 66.928 69.0175 66.936 68.3615 66.952C67.7055 66.968 67.1135 66.984 66.5855 67V66.52C67.0975 66.488 67.4815 66.424 67.7375 66.328C67.9935 66.232 68.1615 66.04 68.2415 65.752C68.3375 65.464 68.3855 65.032 68.3855 64.456V52.552C68.3855 51.96 68.3375 51.528 68.2415 51.256C68.1615 50.968 67.9855 50.776 67.7135 50.68C67.4575 50.568 67.0815 50.504 66.5855 50.488V50.008ZM97.2485 50.008V50.488C96.7365 50.552 96.3445 50.688 96.0725 50.896C95.8165 51.088 95.6485 51.4 95.5685 51.832C95.4885 52.264 95.4485 52.872 95.4485 53.656V60.016C95.4485 61.056 95.3765 62.008 95.2325 62.872C95.0885 63.736 94.8325 64.48 94.4645 65.104C94.0485 65.792 93.4405 66.336 92.6405 66.736C91.8405 67.136 90.8245 67.336 89.5925 67.336C88.8565 67.336 88.1045 67.248 87.3365 67.072C86.5685 66.912 85.8805 66.6 85.2725 66.136C84.7605 65.704 84.3685 65.216 84.0965 64.672C83.8245 64.128 83.6405 63.488 83.5445 62.752C83.4485 62 83.4005 61.112 83.4005 60.088V52.552C83.4005 51.96 83.3525 51.528 83.2565 51.256C83.1765 50.968 83.0085 50.776 82.7525 50.68C82.4965 50.568 82.1125 50.504 81.6005 50.488V50.008C82.0005 50.024 82.5365 50.04 83.2085 50.056C83.8965 50.072 84.6085 50.08 85.3445 50.08C86.0805 50.08 86.7845 50.072 87.4565 50.056C88.1445 50.04 88.7125 50.024 89.1605 50.008V50.488C88.6165 50.504 88.2005 50.568 87.9125 50.68C87.6405 50.776 87.4565 50.968 87.3605 51.256C87.2645 51.528 87.2165 51.96 87.2165 52.552V61.6C87.2165 62.4 87.2645 63.112 87.3605 63.736C87.4725 64.344 87.6485 64.856 87.8885 65.272C88.1445 65.672 88.4885 65.976 88.9205 66.184C89.3525 66.392 89.8885 66.496 90.5285 66.496C91.6485 66.496 92.5205 66.232 93.1445 65.704C93.7845 65.176 94.2325 64.448 94.4885 63.52C94.7605 62.576 94.8965 61.496 94.8965 60.28V53.944C94.8965 53.064 94.8405 52.392 94.7285 51.928C94.6165 51.448 94.3925 51.104 94.0565 50.896C93.7365 50.688 93.2405 50.552 92.5685 50.488V50.008C92.8725 50.024 93.2725 50.04 93.7685 50.056C94.2645 50.072 94.7285 50.08 95.1605 50.08C95.5445 50.08 95.9205 50.072 96.2885 50.056C96.6725 50.04 96.9925 50.024 97.2485 50.008ZM98.5074 50.008C98.9074 50.024 99.4434 50.04 100.115 50.056C100.803 50.072 101.483 50.08 102.155 50.08C102.923 50.08 103.667 50.072 104.387 50.056C105.107 50.04 105.619 50.032 105.923 50.032C108.147 50.032 109.811 50.472 110.915 51.352C112.019 52.232 112.571 53.368 112.571 54.76C112.571 55.336 112.459 55.944 112.235 56.584C112.011 57.208 111.627 57.792 111.083 58.336C110.555 58.864 109.827 59.296 108.899 59.632C107.971 59.968 106.803 60.136 105.395 60.136H102.947V59.656H105.155C106.099 59.656 106.811 59.44 107.291 59.008C107.787 58.576 108.123 58.008 108.299 57.304C108.491 56.6 108.587 55.84 108.587 55.024C108.587 53.504 108.363 52.368 107.915 51.616C107.467 50.864 106.699 50.488 105.611 50.488C104.987 50.488 104.579 50.624 104.387 50.896C104.211 51.168 104.123 51.72 104.123 52.552V64.312C104.123 64.936 104.187 65.4 104.315 65.704C104.443 66.008 104.691 66.208 105.059 66.304C105.427 66.4 105.971 66.456 106.691 66.472V67C106.195 66.984 105.555 66.968 104.771 66.952C103.987 66.936 103.163 66.928 102.299 66.928C101.611 66.928 100.939 66.936 100.283 66.952C99.6274 66.968 99.0354 66.984 98.5074 67V66.52C99.0194 66.488 99.4034 66.424 99.6594 66.328C99.9154 66.232 100.083 66.04 100.163 65.752C100.259 65.464 100.307 65.032 100.307 64.456V52.552C100.307 51.96 100.259 51.528 100.163 51.256C100.083 50.968 99.9074 50.776 99.6354 50.68C99.3794 50.568 99.0034 50.504 98.5074 50.488V50.008ZM113.765 50.008C114.165 50.024 114.701 50.04 115.373 50.056C116.061 50.072 116.741 50.08 117.413 50.08C118.181 50.08 118.925 50.072 119.645 50.056C120.365 50.04 120.877 50.032 121.181 50.032C123.405 50.032 125.069 50.472 126.173 51.352C127.277 52.232 127.829 53.368 127.829 54.76C127.829 55.336 127.717 55.944 127.493 56.584C127.269 57.208 126.885 57.792 126.341 58.336C125.813 58.864 125.085 59.296 124.157 59.632C123.229 59.968 122.061 60.136 120.653 60.136H118.205V59.656H120.413C121.357 59.656 122.069 59.44 122.549 59.008C123.045 58.576 123.381 58.008 123.557 57.304C123.749 56.6 123.845 55.84 123.845 55.024C123.845 53.504 123.621 52.368 123.173 51.616C122.725 50.864 121.957 50.488 120.869 50.488C120.245 50.488 119.837 50.624 119.645 50.896C119.469 51.168 119.381 51.72 119.381 52.552V64.312C119.381 64.936 119.445 65.4 119.573 65.704C119.701 66.008 119.949 66.208 120.317 66.304C120.685 66.4 121.229 66.456 121.949 66.472V67C121.453 66.984 120.813 66.968 120.029 66.952C119.245 66.936 118.421 66.928 117.557 66.928C116.869 66.928 116.197 66.936 115.541 66.952C114.885 66.968 114.293 66.984 113.765 67V66.52C114.277 66.488 114.661 66.424 114.917 66.328C115.173 66.232 115.341 66.04 115.421 65.752C115.517 65.464 115.565 65.032 115.565 64.456V52.552C115.565 51.96 115.517 51.528 115.421 51.256C115.341 50.968 115.165 50.776 114.893 50.68C114.637 50.568 114.261 50.504 113.765 50.488V50.008ZM141.863 50.008C141.799 50.712 141.751 51.392 141.719 52.048C141.703 52.704 141.695 53.208 141.695 53.56C141.695 53.88 141.703 54.184 141.719 54.472C141.735 54.76 141.751 55 141.767 55.192H141.215C141.055 54.024 140.807 53.104 140.471 52.432C140.135 51.744 139.695 51.264 139.151 50.992C138.623 50.704 137.999 50.56 137.279 50.56H136.295C135.831 50.56 135.479 50.6 135.239 50.68C134.999 50.76 134.839 50.92 134.759 51.16C134.679 51.4 134.639 51.768 134.639 52.264V64.744C134.639 65.24 134.679 65.608 134.759 65.848C134.839 66.088 134.999 66.248 135.239 66.328C135.479 66.408 135.831 66.448 136.295 66.448H137.471C138.191 66.448 138.823 66.296 139.367 65.992C139.927 65.672 140.399 65.136 140.783 64.384C141.183 63.632 141.487 62.616 141.695 61.336H142.247C142.199 61.848 142.175 62.52 142.175 63.352C142.175 63.72 142.183 64.24 142.199 64.912C142.215 65.584 142.263 66.28 142.343 67C141.527 66.968 140.607 66.952 139.583 66.952C138.559 66.936 137.647 66.928 136.847 66.928C136.447 66.928 135.935 66.928 135.311 66.928C134.687 66.928 134.015 66.936 133.295 66.952C132.575 66.952 131.847 66.96 131.111 66.976C130.375 66.976 129.679 66.984 129.023 67V66.52C129.535 66.488 129.919 66.424 130.175 66.328C130.431 66.232 130.599 66.04 130.679 65.752C130.775 65.464 130.823 65.032 130.823 64.456V52.552C130.823 51.96 130.775 51.528 130.679 51.256C130.599 50.968 130.423 50.776 130.151 50.68C129.895 50.568 129.519 50.504 129.023 50.488V50.008C129.679 50.024 130.375 50.04 131.111 50.056C131.847 50.056 132.575 50.064 133.295 50.08C134.015 50.08 134.687 50.08 135.311 50.08C135.935 50.08 136.447 50.08 136.847 50.08C137.583 50.08 138.415 50.08 139.343 50.08C140.287 50.064 141.127 50.04 141.863 50.008ZM138.119 58.216C138.119 58.216 138.119 58.296 138.119 58.456C138.119 58.616 138.119 58.696 138.119 58.696H133.919C133.919 58.696 133.919 58.616 133.919 58.456C133.919 58.296 133.919 58.216 133.919 58.216H138.119ZM138.815 55.048C138.751 55.96 138.719 56.656 138.719 57.136C138.735 57.616 138.743 58.056 138.743 58.456C138.743 58.856 138.751 59.296 138.767 59.776C138.783 60.256 138.823 60.952 138.887 61.864H138.335C138.255 61.304 138.103 60.784 137.879 60.304C137.671 59.824 137.367 59.44 136.967 59.152C136.567 58.848 136.047 58.696 135.407 58.696V58.216C135.887 58.216 136.295 58.12 136.631 57.928C136.967 57.72 137.239 57.456 137.447 57.136C137.671 56.8 137.847 56.448 137.975 56.08C138.103 55.712 138.199 55.368 138.263 55.048H138.815ZM158.826 50.008C158.762 50.824 158.714 51.608 158.682 52.36C158.666 53.112 158.658 53.688 158.658 54.088C158.658 54.44 158.666 54.776 158.682 55.096C158.698 55.416 158.714 55.688 158.73 55.912H158.178C157.922 54.568 157.594 53.504 157.194 52.72C156.81 51.936 156.346 51.384 155.802 51.064C155.258 50.728 154.618 50.56 153.882 50.56H153.33V64.264C153.33 64.904 153.394 65.384 153.522 65.704C153.666 66.024 153.922 66.24 154.29 66.352C154.658 66.448 155.194 66.504 155.898 66.52V67C155.402 66.984 154.738 66.968 153.906 66.952C153.09 66.936 152.234 66.928 151.338 66.928C150.458 66.928 149.626 66.936 148.842 66.952C148.058 66.968 147.426 66.984 146.946 67V66.52C147.666 66.504 148.21 66.448 148.578 66.352C148.946 66.24 149.194 66.024 149.322 65.704C149.45 65.384 149.514 64.904 149.514 64.264V50.56H148.986C148.25 50.56 147.61 50.728 147.066 51.064C146.522 51.384 146.058 51.936 145.674 52.72C145.29 53.488 144.954 54.552 144.666 55.912H144.114C144.146 55.688 144.162 55.416 144.162 55.096C144.178 54.776 144.186 54.44 144.186 54.088C144.186 53.688 144.17 53.112 144.138 52.36C144.122 51.608 144.082 50.824 144.018 50.008C144.754 50.024 145.554 50.04 146.418 50.056C147.298 50.072 148.178 50.08 149.058 50.08C149.938 50.08 150.73 50.08 151.434 50.08C152.154 50.08 152.946 50.08 153.81 50.08C154.69 50.08 155.57 50.072 156.45 50.056C157.33 50.04 158.122 50.024 158.826 50.008ZM173.105 50.008C173.041 50.712 172.993 51.392 172.961 52.048C172.945 52.704 172.937 53.208 172.937 53.56C172.937 53.88 172.945 54.184 172.961 54.472C172.977 54.76 172.993 55 173.009 55.192H172.457C172.297 54.024 172.049 53.104 171.713 52.432C171.377 51.744 170.937 51.264 170.393 50.992C169.865 50.704 169.241 50.56 168.521 50.56H167.537C167.073 50.56 166.721 50.6 166.481 50.68C166.241 50.76 166.081 50.92 166.001 51.16C165.921 51.4 165.881 51.768 165.881 52.264V64.744C165.881 65.24 165.921 65.608 166.001 65.848C166.081 66.088 166.241 66.248 166.481 66.328C166.721 66.408 167.073 66.448 167.537 66.448H168.713C169.433 66.448 170.065 66.296 170.609 65.992C171.169 65.672 171.641 65.136 172.025 64.384C172.425 63.632 172.729 62.616 172.937 61.336H173.489C173.441 61.848 173.417 62.52 173.417 63.352C173.417 63.72 173.425 64.24 173.441 64.912C173.457 65.584 173.505 66.28 173.585 67C172.769 66.968 171.849 66.952 170.825 66.952C169.801 66.936 168.889 66.928 168.089 66.928C167.689 66.928 167.177 66.928 166.553 66.928C165.929 66.928 165.257 66.936 164.537 66.952C163.817 66.952 163.089 66.96 162.353 66.976C161.617 66.976 160.921 66.984 160.265 67V66.52C160.777 66.488 161.161 66.424 161.417 66.328C161.673 66.232 161.841 66.04 161.921 65.752C162.017 65.464 162.065 65.032 162.065 64.456V52.552C162.065 51.96 162.017 51.528 161.921 51.256C161.841 50.968 161.665 50.776 161.393 50.68C161.137 50.568 160.761 50.504 160.265 50.488V50.008C160.921 50.024 161.617 50.04 162.353 50.056C163.089 50.056 163.817 50.064 164.537 50.08C165.257 50.08 165.929 50.08 166.553 50.08C167.177 50.08 167.689 50.08 168.089 50.08C168.825 50.08 169.657 50.08 170.585 50.08C171.529 50.064 172.369 50.04 173.105 50.008ZM169.361 58.216C169.361 58.216 169.361 58.296 169.361 58.456C169.361 58.616 169.361 58.696 169.361 58.696H165.161C165.161 58.696 165.161 58.616 165.161 58.456C165.161 58.296 165.161 58.216 165.161 58.216H169.361ZM170.057 55.048C169.993 55.96 169.961 56.656 169.961 57.136C169.977 57.616 169.985 58.056 169.985 58.456C169.985 58.856 169.993 59.296 170.009 59.776C170.025 60.256 170.065 60.952 170.129 61.864H169.577C169.497 61.304 169.345 60.784 169.121 60.304C168.913 59.824 168.609 59.44 168.209 59.152C167.809 58.848 167.289 58.696 166.649 58.696V58.216C167.129 58.216 167.537 58.12 167.873 57.928C168.209 57.72 168.481 57.456 168.689 57.136C168.913 56.8 169.089 56.448 169.217 56.08C169.345 55.712 169.441 55.368 169.505 55.048H170.057ZM188.316 50.008C188.252 50.712 188.204 51.392 188.172 52.048C188.156 52.704 188.148 53.208 188.148 53.56C188.148 53.88 188.156 54.184 188.172 54.472C188.188 54.76 188.204 55 188.22 55.192H187.668C187.508 54.024 187.26 53.104 186.924 52.432C186.588 51.744 186.148 51.264 185.604 50.992C185.076 50.704 184.452 50.56 183.732 50.56H182.748C182.284 50.56 181.932 50.6 181.692 50.68C181.452 50.76 181.292 50.92 181.212 51.16C181.132 51.4 181.092 51.768 181.092 52.264V64.744C181.092 65.24 181.132 65.608 181.212 65.848C181.292 66.088 181.452 66.248 181.692 66.328C181.932 66.408 182.284 66.448 182.748 66.448H183.924C184.644 66.448 185.276 66.296 185.82 65.992C186.38 65.672 186.852 65.136 187.236 64.384C187.636 63.632 187.94 62.616 188.148 61.336H188.7C188.652 61.848 188.628 62.52 188.628 63.352C188.628 63.72 188.636 64.24 188.652 64.912C188.668 65.584 188.716 66.28 188.796 67C187.98 66.968 187.06 66.952 186.036 66.952C185.012 66.936 184.1 66.928 183.3 66.928C182.9 66.928 182.388 66.928 181.764 66.928C181.14 66.928 180.468 66.936 179.748 66.952C179.028 66.952 178.3 66.96 177.564 66.976C176.828 66.976 176.132 66.984 175.476 67V66.52C175.988 66.488 176.372 66.424 176.628 66.328C176.884 66.232 177.052 66.04 177.132 65.752C177.228 65.464 177.276 65.032 177.276 64.456V52.552C177.276 51.96 177.228 51.528 177.132 51.256C177.052 50.968 176.876 50.776 176.604 50.68C176.348 50.568 175.972 50.504 175.476 50.488V50.008C176.132 50.024 176.828 50.04 177.564 50.056C178.3 50.056 179.028 50.064 179.748 50.08C180.468 50.08 181.14 50.08 181.764 50.08C182.388 50.08 182.9 50.08 183.3 50.08C184.036 50.08 184.868 50.08 185.796 50.08C186.74 50.064 187.58 50.04 188.316 50.008ZM184.572 58.216C184.572 58.216 184.572 58.296 184.572 58.456C184.572 58.616 184.572 58.696 184.572 58.696H180.372C180.372 58.696 180.372 58.616 180.372 58.456C180.372 58.296 180.372 58.216 180.372 58.216H184.572ZM185.268 55.048C185.204 55.96 185.172 56.656 185.172 57.136C185.188 57.616 185.196 58.056 185.196 58.456C185.196 58.856 185.204 59.296 185.22 59.776C185.236 60.256 185.276 60.952 185.34 61.864H184.788C184.708 61.304 184.556 60.784 184.332 60.304C184.124 59.824 183.82 59.44 183.42 59.152C183.02 58.848 182.5 58.696 181.86 58.696V58.216C182.34 58.216 182.748 58.12 183.084 57.928C183.42 57.72 183.692 57.456 183.9 57.136C184.124 56.8 184.3 56.448 184.428 56.08C184.556 55.712 184.652 55.368 184.716 55.048H185.268ZM190.687 50.008C191.087 50.024 191.623 50.04 192.295 50.056C192.983 50.072 193.663 50.08 194.335 50.08C195.103 50.08 195.847 50.072 196.567 50.056C197.287 50.04 197.799 50.032 198.103 50.032C199.591 50.032 200.823 50.2 201.799 50.536C202.791 50.856 203.527 51.328 204.007 51.952C204.503 52.576 204.751 53.328 204.751 54.208C204.751 54.752 204.639 55.304 204.415 55.864C204.191 56.408 203.807 56.92 203.263 57.4C202.735 57.864 202.007 58.24 201.079 58.528C200.151 58.8 198.983 58.936 197.575 58.936H195.271V58.456H197.335C198.279 58.456 198.991 58.28 199.471 57.928C199.967 57.56 200.303 57.08 200.479 56.488C200.671 55.88 200.767 55.208 200.767 54.472C200.767 53.208 200.543 52.232 200.095 51.544C199.647 50.84 198.879 50.488 197.791 50.488C197.167 50.488 196.759 50.624 196.567 50.896C196.391 51.168 196.303 51.72 196.303 52.552V64.456C196.303 65.032 196.343 65.464 196.423 65.752C196.519 66.04 196.695 66.232 196.951 66.328C197.207 66.424 197.591 66.488 198.103 66.52V67C197.671 66.968 197.127 66.952 196.471 66.952C195.815 66.936 195.151 66.928 194.479 66.928C193.711 66.928 192.983 66.936 192.295 66.952C191.623 66.952 191.087 66.968 190.687 67V66.52C191.199 66.488 191.583 66.424 191.839 66.328C192.095 66.232 192.263 66.04 192.343 65.752C192.439 65.464 192.487 65.032 192.487 64.456V52.552C192.487 51.96 192.439 51.528 192.343 51.256C192.263 50.968 192.087 50.776 191.815 50.68C191.559 50.568 191.183 50.504 190.687 50.488V50.008ZM195.223 58.528C195.911 58.544 196.503 58.576 196.999 58.624C197.511 58.672 197.959 58.72 198.343 58.768C198.727 58.8 199.071 58.824 199.375 58.84C200.831 58.968 201.903 59.28 202.591 59.776C203.295 60.272 203.751 61.016 203.959 62.008L204.511 64.48C204.655 65.12 204.807 65.568 204.967 65.824C205.127 66.08 205.359 66.208 205.663 66.208C205.871 66.192 206.039 66.144 206.167 66.064C206.311 65.968 206.463 65.832 206.623 65.656L206.959 65.944C206.527 66.44 206.063 66.792 205.567 67C205.071 67.224 204.471 67.336 203.767 67.336C202.903 67.336 202.191 67.152 201.631 66.784C201.071 66.416 200.703 65.736 200.527 64.744L200.095 62.344C199.983 61.672 199.847 61.088 199.687 60.592C199.527 60.08 199.303 59.68 199.015 59.392C198.743 59.088 198.359 58.936 197.863 58.936H195.271L195.223 58.528Z" fill="#EDE0D4"/>
<path d="M251.729 50.008V50.488C251.217 50.504 250.833 50.568 250.577 50.68C250.321 50.776 250.145 50.968 250.049 51.256C249.969 51.528 249.929 51.96 249.929 52.552V64.456C249.929 65.032 249.969 65.464 250.049 65.752C250.145 66.04 250.321 66.232 250.577 66.328C250.833 66.424 251.217 66.488 251.729 66.52V67C251.281 66.968 250.713 66.952 250.025 66.952C249.353 66.936 248.665 66.928 247.961 66.928C247.193 66.928 246.473 66.936 245.801 66.952C245.129 66.952 244.585 66.968 244.169 67V66.52C244.713 66.488 245.121 66.424 245.393 66.328C245.681 66.232 245.873 66.04 245.969 65.752C246.065 65.464 246.113 65.032 246.113 64.456V51.472H246.281L240.329 67.024H239.945L233.465 51.568V63.064C233.465 63.944 233.513 64.624 233.609 65.104C233.705 65.568 233.913 65.904 234.233 66.112C234.569 66.304 235.089 66.44 235.793 66.52V67C235.489 66.968 235.089 66.952 234.593 66.952C234.097 66.936 233.633 66.928 233.201 66.928C232.833 66.928 232.457 66.936 232.073 66.952C231.689 66.952 231.369 66.968 231.113 67V66.52C231.625 66.44 232.009 66.304 232.265 66.112C232.521 65.92 232.689 65.608 232.769 65.176C232.865 64.728 232.913 64.12 232.913 63.352V52.552C232.913 51.96 232.865 51.528 232.769 51.256C232.689 50.968 232.513 50.776 232.241 50.68C231.985 50.568 231.609 50.504 231.113 50.488V50.008C231.369 50.024 231.689 50.04 232.073 50.056C232.457 50.072 232.833 50.08 233.201 50.08C233.889 50.08 234.561 50.072 235.217 50.056C235.889 50.04 236.481 50.024 236.993 50.008L242.033 62.176L241.433 62.728L246.257 50.08C246.529 50.08 246.809 50.08 247.097 50.08C247.385 50.08 247.673 50.08 247.961 50.08C248.665 50.08 249.353 50.072 250.025 50.056C250.713 50.04 251.281 50.024 251.729 50.008ZM266.172 50.008C266.108 50.712 266.06 51.392 266.028 52.048C266.012 52.704 266.004 53.208 266.004 53.56C266.004 53.88 266.012 54.184 266.028 54.472C266.044 54.76 266.06 55 266.076 55.192H265.524C265.364 54.024 265.116 53.104 264.78 52.432C264.444 51.744 264.004 51.264 263.46 50.992C262.932 50.704 262.308 50.56 261.588 50.56H260.604C260.14 50.56 259.788 50.6 259.548 50.68C259.308 50.76 259.148 50.92 259.068 51.16C258.988 51.4 258.948 51.768 258.948 52.264V64.744C258.948 65.24 258.988 65.608 259.068 65.848C259.148 66.088 259.308 66.248 259.548 66.328C259.788 66.408 260.14 66.448 260.604 66.448H261.78C262.5 66.448 263.132 66.296 263.676 65.992C264.236 65.672 264.708 65.136 265.092 64.384C265.492 63.632 265.796 62.616 266.004 61.336H266.556C266.508 61.848 266.484 62.52 266.484 63.352C266.484 63.72 266.492 64.24 266.508 64.912C266.524 65.584 266.572 66.28 266.652 67C265.836 66.968 264.916 66.952 263.892 66.952C262.868 66.936 261.956 66.928 261.156 66.928C260.756 66.928 260.244 66.928 259.62 66.928C258.996 66.928 258.324 66.936 257.604 66.952C256.884 66.952 256.156 66.96 255.42 66.976C254.684 66.976 253.988 66.984 253.332 67V66.52C253.844 66.488 254.228 66.424 254.484 66.328C254.74 66.232 254.908 66.04 254.988 65.752C255.084 65.464 255.132 65.032 255.132 64.456V52.552C255.132 51.96 255.084 51.528 254.988 51.256C254.908 50.968 254.732 50.776 254.46 50.68C254.204 50.568 253.828 50.504 253.332 50.488V50.008C253.988 50.024 254.684 50.04 255.42 50.056C256.156 50.056 256.884 50.064 257.604 50.08C258.324 50.08 258.996 50.08 259.62 50.08C260.244 50.08 260.756 50.08 261.156 50.08C261.892 50.08 262.724 50.08 263.652 50.08C264.596 50.064 265.436 50.04 266.172 50.008ZM262.428 58.216C262.428 58.216 262.428 58.296 262.428 58.456C262.428 58.616 262.428 58.696 262.428 58.696H258.228C258.228 58.696 258.228 58.616 258.228 58.456C258.228 58.296 258.228 58.216 258.228 58.216H262.428ZM263.124 55.048C263.06 55.96 263.028 56.656 263.028 57.136C263.044 57.616 263.052 58.056 263.052 58.456C263.052 58.856 263.06 59.296 263.076 59.776C263.092 60.256 263.132 60.952 263.196 61.864H262.644C262.564 61.304 262.412 60.784 262.188 60.304C261.98 59.824 261.676 59.44 261.276 59.152C260.876 58.848 260.356 58.696 259.716 58.696V58.216C260.196 58.216 260.604 58.12 260.94 57.928C261.276 57.72 261.548 57.456 261.756 57.136C261.98 56.8 262.156 56.448 262.284 56.08C262.412 55.712 262.508 55.368 262.572 55.048H263.124Z" fill="#EDE0D4"/>
<g class="swinging-puppet" filter="url(#filter10_f_76_196)">
<ellipse cx="157.5" cy="268" rx="57.5" ry="7" fill="#EDE0D4"/>
</g>
<path  d="M218 203.018L220 202.92V209.754L218 209.92V203.018Z" fill="url(#paint11_linear_76_196)"/>
<path d="M263.66 188.562L264.747 186.966L269.28 190.339L268.239 191.969L263.66 188.562Z" fill="url(#paint12_linear_76_196)"/>
<path d="M231.47 227.715L230.86 225.106L238.561 223.639L239.25 226.233L231.47 227.715Z" fill="url(#paint13_linear_76_196)"/>
<path d="M226.371 220.933L226 222.519L230.681 223.41L231.099 221.833L226.371 220.933Z" fill="url(#paint14_linear_76_196)"/>
<path d="M251.232 195.454L251.009 196.582L254.335 197.094L254.591 195.971L251.232 195.454Z" fill="url(#paint15_linear_76_196)"/>
<path d="M247.014 181.517L245.987 181L244.601 184.066L245.614 184.614L247.014 181.517Z" fill="url(#paint16_linear_76_196)"/>
<path d="M240.916 186.92L241 188.92L235.143 188.92L235 186.92L240.916 186.92Z" fill="url(#paint17_linear_76_196)"/>
<path d="M96.3906 203.018L94.3906 202.92V209.754L96.3906 209.92V203.018Z" fill="url(#paint18_linear_76_196)"/>
<path d="M50.7307 188.562L49.6438 186.966L45.1104 190.339L46.1514 191.969L50.7307 188.562Z" fill="url(#paint19_linear_76_196)"/>
<path d="M82.9203 227.715L83.531 225.106L75.8292 223.639L75.1406 226.233L82.9203 227.715Z" fill="url(#paint20_linear_76_196)"/>
<path d="M88.0196 220.933L88.3908 222.519L83.7099 223.41L83.2914 221.833L88.0196 220.933Z" fill="url(#paint21_linear_76_196)"/>
<path d="M63.1591 195.454L63.3814 196.582L60.0558 197.094L59.7999 195.971L63.1591 195.454Z" fill="url(#paint22_linear_76_196)"/>
<path d="M67.3767 181.517L68.4039 181L69.7897 184.066L68.7765 184.614L67.3767 181.517Z" fill="url(#paint23_linear_76_196)"/>
<path d="M73.4743 186.92L73.3906 188.92L79.2478 188.92L79.3906 186.92L73.4743 186.92Z" fill="url(#paint24_linear_76_196)"/>
<path d="M232.479 244.647C232.394 244.523 232.228 244.485 232.101 244.564C231.061 245.213 230.358 246.05 230.004 246.912C229.572 247.844 229.639 248.751 230.083 249.316C230.56 249.878 231.553 250.48 232.399 250.415C233.429 250.335 234.685 250.182 235.431 249.311C235.511 249.218 235.511 249.082 235.442 248.981C235.35 248.848 235.168 248.814 235.031 248.899C234.2 249.417 233.295 249.73 232.482 249.779C231.589 249.831 230.881 249.559 230.513 249.022C230.146 248.484 230.149 247.726 230.523 246.912C230.863 246.172 231.599 245.606 232.404 245.048C232.535 244.958 232.569 244.779 232.479 244.647Z" fill="url(#paint25_linear_76_196)"/>
<path d="M237.871 252.303C237.97 252.422 238.148 252.44 238.261 252.333C239.077 251.561 239.567 250.489 239.632 249.316C239.703 248.044 239.269 246.758 238.426 245.741C237.584 244.723 236.402 244.057 235.14 243.889C233.982 243.753 232.841 244.067 231.941 244.67C231.804 244.762 231.784 244.95 231.888 245.076C231.983 245.191 232.15 245.214 232.276 245.136C233.168 244.581 234.099 244.301 235.11 244.431C236.229 244.58 237.278 245.17 238.025 246.073C238.773 246.976 239.157 248.116 239.095 249.244C239.038 250.274 238.612 251.216 237.902 251.899C237.79 252.006 237.772 252.183 237.871 252.303Z" fill="url(#paint26_linear_76_196)"/>
<path d="M234.816 249.647C234.913 249.693 235.029 249.677 235.111 249.607C235.544 249.241 236.032 248.852 236.278 248.369C236.574 247.832 236.637 247.22 236.699 246.593C236.762 245.965 236.702 245.322 236.523 244.7C236.357 244.123 236.091 243.575 235.738 243.082C235.687 243.01 235.601 242.97 235.512 242.973L235.492 242.974C235.377 242.979 235.281 243.061 235.259 243.174C235.246 243.243 235.263 243.313 235.304 243.37C235.621 243.811 235.86 244.302 236.009 244.819C236.168 245.37 236.274 245.852 236.218 246.409C236.162 246.965 236.19 247.191 235.901 247.964C235.773 248.352 235.285 248.759 234.817 249.035C234.6 249.163 234.587 249.54 234.816 249.647Z" fill="url(#paint27_linear_76_196)"/>
<path d="M227.281 240.077C227.214 240.013 227.109 240.008 227.037 240.068C226.059 240.879 225.463 241.838 225.236 242.769C224.956 243.738 225.173 244.597 225.673 245.134C226.173 245.671 227.161 246.075 228.127 245.875C229.108 245.671 230.137 245.153 230.906 244.327C230.997 244.229 230.993 244.079 230.902 243.981C230.802 243.874 230.636 243.869 230.526 243.964C229.776 244.61 228.919 245.062 228.115 245.233C227.239 245.419 226.498 245.256 226.055 244.779C225.611 244.303 225.501 243.552 225.749 242.692C225.946 241.853 226.525 241.04 227.276 240.357C227.358 240.283 227.362 240.154 227.281 240.077Z" fill="url(#paint28_linear_76_196)"/>
<path d="M235.702 243.328C235.773 243.235 235.773 243.106 235.703 243.012C234.797 241.797 234.036 240.786 232.919 239.947C231.619 239.133 230.272 239.026 228.962 239.235C227.653 239.444 226.607 240.185 226.054 241.295C225.512 242.384 224.829 242.816 225.303 244.117C225.32 244.162 225.362 244.193 225.41 244.195C225.496 244.198 225.557 244.111 225.531 244.029C225.189 242.967 225.77 242.6 226.207 241.612C226.697 240.628 228.249 239.824 229.411 239.638C230.561 239.436 231.547 239.438 232.782 240.281C233.775 241.072 234.686 242.249 235.242 243.286C235.336 243.46 235.582 243.486 235.702 243.328Z" fill="url(#paint29_linear_76_196)"/>
<path d="M230.264 244.461C230.336 244.619 230.534 244.674 230.666 244.56C231.492 243.843 231.926 242.686 231.808 241.453C231.745 240.181 231.178 238.948 230.233 238.025C229.288 237.101 228.042 236.563 226.769 236.529C225.594 236.498 224.486 236.898 223.65 237.648C223.534 237.751 223.536 237.93 223.648 238.039C223.759 238.148 223.936 238.145 224.053 238.042C224.792 237.39 225.765 237.043 226.796 237.071C227.925 237.101 229.031 237.578 229.869 238.397C230.707 239.216 231.21 240.31 231.266 241.438C231.336 242.545 231.088 243.529 230.366 244.093C230.254 244.18 230.205 244.332 230.264 244.461Z" fill="url(#paint30_linear_76_196)"/>
<defs>
<filter id="filter0_d_76_196" x="294.638" y="71.0164" width="16.3618" height="16.3621" filterUnits="userSpaceOnUse" color-interpolation-filters="sRGB">
<feFlood flood-opacity="0" result="BackgroundImageFix"/>
<feColorMatrix in="SourceAlpha" type="matrix" values="0 0 0 0 0 0 0 0 0 0 0 0 0 0 0 0 0 0 127 0" result="hardAlpha"/>
<feOffset dy="4"/>
<feGaussianBlur stdDeviation="2"/>
<feComposite in2="hardAlpha" operator="out"/>
<feColorMatrix type="matrix" values="0 0 0 0 0 0 0 0 0 0 0 0 0 0 0 0 0 0 0.25 0"/>
<feBlend mode="normal" in2="BackgroundImageFix" result="effect1_dropShadow_76_196"/>
<feBlend mode="normal" in="SourceGraphic" in2="effect1_dropShadow_76_196" result="shape"/>
</filter>
<filter id="filter1_d_76_196" x="235.521" y="11.3998" width="15.7568" height="15.7568" filterUnits="userSpaceOnUse" color-interpolation-filters="sRGB">
<feFlood flood-opacity="0" result="BackgroundImageFix"/>
<feColorMatrix in="SourceAlpha" type="matrix" values="0 0 0 0 0 0 0 0 0 0 0 0 0 0 0 0 0 0 127 0" result="hardAlpha"/>
<feOffset dy="4"/>
<feGaussianBlur stdDeviation="2"/>
<feComposite in2="hardAlpha" operator="out"/>
<feColorMatrix type="matrix" values="0 0 0 0 0 0 0 0 0 0 0 0 0 0 0 0 0 0 0.25 0"/>
<feBlend mode="normal" in2="BackgroundImageFix" result="effect1_dropShadow_76_196"/>
<feBlend mode="normal" in="SourceGraphic" in2="effect1_dropShadow_76_196" result="shape"/>
</filter>
<filter id="filter2_d_76_196" x="319" y="1" width="18.4126" height="18.4125" filterUnits="userSpaceOnUse" color-interpolation-filters="sRGB">
<feFlood flood-opacity="0" result="BackgroundImageFix"/>
<feColorMatrix in="SourceAlpha" type="matrix" values="0 0 0 0 0 0 0 0 0 0 0 0 0 0 0 0 0 0 127 0" result="hardAlpha"/>
<feOffset dy="4"/>
<feGaussianBlur stdDeviation="2"/>
<feComposite in2="hardAlpha" operator="out"/>
<feColorMatrix type="matrix" values="0 0 0 0 0 0 0 0 0 0 0 0 0 0 0 0 0 0 0.25 0"/>
<feBlend mode="normal" in2="BackgroundImageFix" result="effect1_dropShadow_76_196"/>
<feBlend mode="normal" in="SourceGraphic" in2="effect1_dropShadow_76_196" result="shape"/>
</filter>
<filter id="filter3_f_76_196" x="129.952" y="72.6795" width="5.321" height="147.729" filterUnits="userSpaceOnUse" color-interpolation-filters="sRGB">
<feFlood flood-opacity="0" result="BackgroundImageFix"/>
<feBlend mode="normal" in="SourceGraphic" in2="BackgroundImageFix" result="shape"/>
<feGaussianBlur stdDeviation="0.2" result="effect1_foregroundBlur_76_196"/>
</filter>
<filter id="filter4_f_76_196" x="178.551" y="72.6" width="16.2585" height="149.484" filterUnits="userSpaceOnUse" color-interpolation-filters="sRGB">
<feFlood flood-opacity="0" result="BackgroundImageFix"/>
<feBlend mode="normal" in="SourceGraphic" in2="BackgroundImageFix" result="shape"/>
<feGaussianBlur stdDeviation="0.2" result="effect1_foregroundBlur_76_196"/>
</filter>
<filter id="filter5_f_76_196" x="112.998" y="72.6" width="13.6667" height="89.1142" filterUnits="userSpaceOnUse" color-interpolation-filters="sRGB">
<feFlood flood-opacity="0" result="BackgroundImageFix"/>
<feBlend mode="normal" in="SourceGraphic" in2="BackgroundImageFix" result="shape"/>
<feGaussianBlur stdDeviation="0.2" result="effect1_foregroundBlur_76_196"/>
</filter>
<filter id="filter6_f_76_196" x="208.064" y="72.8865" width="12.5637" height="77.5255" filterUnits="userSpaceOnUse" color-interpolation-filters="sRGB">
<feFlood flood-opacity="0" result="BackgroundImageFix"/>
<feBlend mode="normal" in="SourceGraphic" in2="BackgroundImageFix" result="shape"/>
<feGaussianBlur stdDeviation="0.2" result="effect1_foregroundBlur_76_196"/>
</filter>
<filter id="filter7_d_76_196" x="114.511" y="176.42" width="76.4521" height="80.815" filterUnits="userSpaceOnUse" color-interpolation-filters="sRGB">
<feFlood flood-opacity="0" result="BackgroundImageFix"/>
<feColorMatrix in="SourceAlpha" type="matrix" values="0 0 0 0 0 0 0 0 0 0 0 0 0 0 0 0 0 0 127 0" result="hardAlpha"/>
<feOffset dy="4"/>
<feGaussianBlur stdDeviation="2"/>
<feComposite in2="hardAlpha" operator="out"/>
<feColorMatrix type="matrix" values="0 0 0 0 0 0 0 0 0 0 0 0 0 0 0 0 0 0 0.25 0"/>
<feBlend mode="normal" in2="BackgroundImageFix" result="effect1_dropShadow_76_196"/>
<feBlend mode="normal" in="SourceGraphic" in2="effect1_dropShadow_76_196" result="shape"/>
</filter>
<filter id="filter8_d_76_196" x="106" y="141.213" width="123.006" height="49.4982" filterUnits="userSpaceOnUse" color-interpolation-filters="sRGB">
<feFlood flood-opacity="0" result="BackgroundImageFix"/>
<feColorMatrix in="SourceAlpha" type="matrix" values="0 0 0 0 0 0 0 0 0 0 0 0 0 0 0 0 0 0 127 0" result="hardAlpha"/>
<feOffset dy="4"/>
<feGaussianBlur stdDeviation="2"/>
<feComposite in2="hardAlpha" operator="out"/>
<feColorMatrix type="matrix" values="0 0 0 0 0 0 0 0 0 0 0 0 0 0 0 0 0 0 0.25 0"/>
<feBlend mode="normal" in2="BackgroundImageFix" result="effect1_dropShadow_76_196"/>
<feBlend mode="normal" in="SourceGraphic" in2="effect1_dropShadow_76_196" result="shape"/>
</filter>
<filter id="filter9_d_76_196" x="150.086" y="129.591" width="32.8647" height="32.8649" filterUnits="userSpaceOnUse" color-interpolation-filters="sRGB">
<feFlood flood-opacity="0" result="BackgroundImageFix"/>
<feColorMatrix in="SourceAlpha" type="matrix" values="0 0 0 0 0 0 0 0 0 0 0 0 0 0 0 0 0 0 127 0" result="hardAlpha"/>
<feOffset dy="4"/>
<feGaussianBlur stdDeviation="2"/>
<feComposite in2="hardAlpha" operator="out"/>
<feColorMatrix type="matrix" values="0 0 0 0 0 0 0 0 0 0 0 0 0 0 0 0 0 0 0.25 0"/>
<feBlend mode="normal" in2="BackgroundImageFix" result="effect1_dropShadow_76_196"/>
<feBlend mode="normal" in="SourceGraphic" in2="effect1_dropShadow_76_196" result="shape"/>
</filter>
<filter id="filter10_f_76_196" x="95.7" y="256.7" width="123.6" height="22.6" filterUnits="userSpaceOnUse" color-interpolation-filters="sRGB">
<feFlood flood-opacity="0" result="BackgroundImageFix"/>
<feBlend mode="normal" in="SourceGraphic" in2="BackgroundImageFix" result="shape"/>
<feGaussianBlur stdDeviation="2.15" result="effect1_foregroundBlur_76_196"/>
</filter>
<linearGradient id="paint0_linear_76_196" x1="152.737" y1="176.42" x2="152.737" y2="249.235" gradientUnits="userSpaceOnUse">
<stop offset="0.535" stop-color="#1D1D1D"/>
<stop offset="1" stop-color="#363636"/>
</linearGradient>
<linearGradient id="paint1_linear_76_196" x1="152.737" y1="176.42" x2="152.737" y2="249.235" gradientUnits="userSpaceOnUse">
<stop offset="0.535" stop-color="#1D1D1D"/>
<stop offset="1" stop-color="#363636"/>
</linearGradient>
<linearGradient id="paint2_linear_76_196" x1="152.737" y1="176.42" x2="152.737" y2="249.235" gradientUnits="userSpaceOnUse">
<stop offset="0.535" stop-color="#1D1D1D"/>
<stop offset="1" stop-color="#363636"/>
</linearGradient>
<linearGradient id="paint3_linear_76_196" x1="152.737" y1="176.42" x2="152.737" y2="249.235" gradientUnits="userSpaceOnUse">
<stop offset="0.535" stop-color="#1D1D1D"/>
<stop offset="1" stop-color="#363636"/>
</linearGradient>
<linearGradient id="paint4_linear_76_196" x1="167.503" y1="141.213" x2="167.503" y2="182.711" gradientUnits="userSpaceOnUse">
<stop offset="0.445" stop-color="#00435B"/>
<stop offset="1" stop-color="#008EC1"/>
</linearGradient>
<linearGradient id="paint5_linear_76_196" x1="167.503" y1="141.213" x2="167.503" y2="182.711" gradientUnits="userSpaceOnUse">
<stop offset="0.445" stop-color="#00435B"/>
<stop offset="1" stop-color="#008EC1"/>
</linearGradient>
<linearGradient id="paint6_linear_76_196" x1="167.503" y1="141.213" x2="167.503" y2="182.711" gradientUnits="userSpaceOnUse">
<stop offset="0.445" stop-color="#00435B"/>
<stop offset="1" stop-color="#008EC1"/>
</linearGradient>
<linearGradient id="paint7_linear_76_196" x1="167.503" y1="141.213" x2="167.503" y2="182.711" gradientUnits="userSpaceOnUse">
<stop offset="0.445" stop-color="#00435B"/>
<stop offset="1" stop-color="#008EC1"/>
</linearGradient>
<linearGradient id="paint8_linear_76_196" x1="167.503" y1="141.213" x2="167.503" y2="182.711" gradientUnits="userSpaceOnUse">
<stop offset="0.445" stop-color="#00435B"/>
<stop offset="1" stop-color="#008EC1"/>
</linearGradient>
<linearGradient id="paint9_linear_76_196" x1="166.518" y1="129.591" x2="166.518" y2="154.455" gradientUnits="userSpaceOnUse">
<stop offset="0.355" stop-color="#59656A"/>
<stop offset="1" stop-color="#FEFEFE"/>
</linearGradient>
<linearGradient id="paint10_linear_76_196" x1="47" y1="58.8148" x2="285" y2="58.8148" gradientUnits="userSpaceOnUse">
<stop stop-color="#480914"/>
<stop offset="1" stop-color="#A1283D"/>
</linearGradient>
<linearGradient id="paint11_linear_76_196" x1="219" y1="202.92" x2="219" y2="209.92" gradientUnits="userSpaceOnUse">
<stop stop-color="#3A7D7D"/>
<stop offset="1" stop-color="#69E3E3"/>
</linearGradient>
<linearGradient id="paint12_linear_76_196" x1="264.171" y1="187.74" x2="268.815" y2="191.195" gradientUnits="userSpaceOnUse">
<stop stop-color="#3A7D7D"/>
<stop offset="1" stop-color="#69E3E3"/>
</linearGradient>
<linearGradient id="paint13_linear_76_196" x1="235.305" y1="226.985" x2="234.804" y2="224.355" gradientUnits="userSpaceOnUse">
<stop stop-color="#69E3E3"/>
<stop offset="0.56" stop-color="#3A7D7D"/>
</linearGradient>
<linearGradient id="paint14_linear_76_196" x1="228.397" y1="222.975" x2="228.702" y2="221.377" gradientUnits="userSpaceOnUse">
<stop stop-color="#E9C46A"/>
<stop offset="1" stop-color="#836E3C"/>
</linearGradient>
<linearGradient id="paint15_linear_76_196" x1="252.713" y1="196.845" x2="252.887" y2="195.709" gradientUnits="userSpaceOnUse">
<stop stop-color="#E9C46A"/>
<stop offset="1" stop-color="#836E3C"/>
</linearGradient>
<linearGradient id="paint16_linear_76_196" x1="245.277" y1="182.57" x2="246.324" y2="183.044" gradientUnits="userSpaceOnUse">
<stop stop-color="#E9C46A"/>
<stop offset="1" stop-color="#836E3C"/>
</linearGradient>
<linearGradient id="paint17_linear_76_196" x1="238" y1="186.92" x2="238" y2="188.92" gradientUnits="userSpaceOnUse">
<stop stop-color="#3A7D7D"/>
<stop offset="1" stop-color="#69E3E3"/>
</linearGradient>
<linearGradient id="paint18_linear_76_196" x1="95.3906" y1="202.92" x2="95.3906" y2="209.92" gradientUnits="userSpaceOnUse">
<stop stop-color="#3A7D7D"/>
<stop offset="1" stop-color="#69E3E3"/>
</linearGradient>
<linearGradient id="paint19_linear_76_196" x1="50.2196" y1="187.74" x2="45.5756" y2="191.195" gradientUnits="userSpaceOnUse">
<stop stop-color="#3A7D7D"/>
<stop offset="1" stop-color="#69E3E3"/>
</linearGradient>
<linearGradient id="paint20_linear_76_196" x1="79.0854" y1="226.985" x2="79.5862" y2="224.355" gradientUnits="userSpaceOnUse">
<stop stop-color="#69E3E3"/>
<stop offset="0.56" stop-color="#3A7D7D"/>
</linearGradient>
<linearGradient id="paint21_linear_76_196" x1="85.9933" y1="222.975" x2="85.6889" y2="221.377" gradientUnits="userSpaceOnUse">
<stop stop-color="#E9C46A"/>
<stop offset="1" stop-color="#836E3C"/>
</linearGradient>
<linearGradient id="paint22_linear_76_196" x1="61.6781" y1="196.845" x2="61.5032" y2="195.709" gradientUnits="userSpaceOnUse">
<stop stop-color="#E9C46A"/>
<stop offset="1" stop-color="#836E3C"/>
</linearGradient>
<linearGradient id="paint23_linear_76_196" x1="69.1137" y1="182.57" x2="68.0667" y2="183.044" gradientUnits="userSpaceOnUse">
<stop stop-color="#E9C46A"/>
<stop offset="1" stop-color="#836E3C"/>
</linearGradient>
<linearGradient id="paint24_linear_76_196" x1="76.3906" y1="186.92" x2="76.3906" y2="188.92" gradientUnits="userSpaceOnUse">
<stop stop-color="#3A7D7D"/>
<stop offset="1" stop-color="#69E3E3"/>
</linearGradient>
<linearGradient id="paint25_linear_76_196" x1="228.054" y1="247.691" x2="234.622" y2="241.577" gradientUnits="userSpaceOnUse">
<stop stop-color="white"/>
<stop offset="0.42" stop-color="#69E3E3"/>
<stop offset="0.89" stop-color="#3A7D7D"/>
</linearGradient>
<linearGradient id="paint26_linear_76_196" x1="228.054" y1="247.691" x2="234.622" y2="241.577" gradientUnits="userSpaceOnUse">
<stop stop-color="white"/>
<stop offset="0.42" stop-color="#69E3E3"/>
<stop offset="0.89" stop-color="#3A7D7D"/>
</linearGradient>
<linearGradient id="paint27_linear_76_196" x1="228.054" y1="247.691" x2="234.622" y2="241.577" gradientUnits="userSpaceOnUse">
<stop stop-color="white"/>
<stop offset="0.42" stop-color="#69E3E3"/>
<stop offset="0.89" stop-color="#3A7D7D"/>
</linearGradient>
<linearGradient id="paint28_linear_76_196" x1="228.054" y1="247.691" x2="234.622" y2="241.577" gradientUnits="userSpaceOnUse">
<stop stop-color="white"/>
<stop offset="0.42" stop-color="#69E3E3"/>
<stop offset="0.89" stop-color="#3A7D7D"/>
</linearGradient>
<linearGradient id="paint29_linear_76_196" x1="228.054" y1="247.691" x2="234.622" y2="241.577" gradientUnits="userSpaceOnUse">
<stop stop-color="white"/>
<stop offset="0.42" stop-color="#69E3E3"/>
<stop offset="0.89" stop-color="#3A7D7D"/>
</linearGradient>
<linearGradient id="paint30_linear_76_196" x1="228.054" y1="247.691" x2="234.622" y2="241.577" gradientUnits="userSpaceOnUse">
<stop stop-color="white"/>
<stop offset="0.42" stop-color="#69E3E3"/>
<stop offset="0.89" stop-color="#3A7D7D"/>
</linearGradient>
</defs>
</svg>
