<svg  viewBox="0 0 238 249" fill="none" xmlns="http://www.w3.org/2000/svg">
<g filter="url(#filter0_f_26_85)">
<rect x="83.3516" y="42.0795" width="4.52089" height="146.929" fill="#EDE0D4" fill-opacity="0.79"/>
</g>
<g filter="url(#filter1_f_26_85)">
<rect x="142.901" y="42" width="4.52089" height="148.755" transform="rotate(4.22122 142.901 42)" fill="#EDE0D4" fill-opacity="0.79"/>
</g>
<g filter="url(#filter2_f_26_85)">
<rect x="74.7646" y="42" width="4.52089" height="88.2831" transform="rotate(5.43786 74.7646 42)" fill="#EDE0D4" fill-opacity="0.79"/>
</g>
<g filter="url(#filter3_f_26_85)">
<rect width="4.52089" height="76.642" transform="matrix(-0.9955 0.0947661 0.0947661 0.9955 165.965 42.2865)" fill="#EDE0D4" fill-opacity="0.79"/>
</g>
<g filter="url(#filter4_d_26_85)">
<path d="M120.942 153.431C120.325 149.674 122.871 146.129 126.628 145.512C130.297 144.91 133.788 147.328 134.476 150.982C136.698 162.773 138.045 171.779 139.883 184.434C140.374 187.811 138.568 191.11 135.458 192.514L134.95 192.743C133.818 193.254 132.554 193.397 131.337 193.15C128.923 192.662 127.064 190.732 126.665 188.303L120.942 153.431Z" fill="url(#paint0_linear_26_85)"/>
<path d="M120.159 162.766C124.43 159.423 124.08 152.852 119.477 149.983C116.771 148.295 113.292 148.411 110.775 150.369C101.796 157.353 98.0403 161.86 89.2657 169.437C86.4421 171.875 85.9513 176.106 88.2502 179.043C90.5797 182.02 94.8815 182.545 97.8586 180.216L120.159 162.766Z" fill="url(#paint1_linear_26_85)"/>
<path d="M127.361 185.386C128.132 181.75 131.862 179.564 135.411 180.667C138.318 181.571 140.17 184.421 139.791 187.442C138.613 196.837 137.637 203.005 135.947 212.473C135.279 216.218 131.735 218.735 127.976 218.151C123.996 217.533 121.352 213.699 122.188 209.76L127.361 185.386Z" fill="url(#paint2_linear_26_85)"/>
<path d="M97.9539 178.256C99.7757 175.189 98.6675 171.221 95.5199 169.542C92.7579 168.068 89.3279 168.86 87.5184 171.415C81.7741 179.524 78.0472 185.261 72.5875 193.863C70.5703 197.042 71.4682 201.252 74.6044 203.335C77.9034 205.525 82.364 204.507 84.386 201.102L97.9539 178.256Z" fill="url(#paint3_linear_26_85)"/>
</g>
<g filter="url(#filter5_d_26_85)">
<path d="M63.1676 130.635C63.8802 127.918 66.6605 126.294 69.3775 127.006L92.4663 133.062C95.1833 133.774 96.8082 136.555 96.0956 139.272C95.383 141.989 92.6027 143.614 89.8857 142.901L66.797 136.845C64.0799 136.133 62.455 133.353 63.1676 130.635Z" fill="url(#paint4_linear_26_85)"/>
<path d="M177.041 112.318C175.395 110.042 172.215 109.532 169.939 111.178L150.599 125.167C148.323 126.814 147.812 129.993 149.459 132.269C151.105 134.545 154.284 135.056 156.56 133.409L175.901 119.42C178.177 117.774 178.687 114.594 177.041 112.318Z" fill="url(#paint5_linear_26_85)"/>
<path d="M86.2048 140.121C84.6965 137.528 85.5147 134.206 88.0547 132.611L109.232 119.31C112.653 117.162 117.175 118.947 118.206 122.852C118.894 125.458 117.757 128.201 115.428 129.556L93.8118 142.132C91.1558 143.677 87.75 142.777 86.2048 140.121Z" fill="url(#paint6_linear_26_85)"/>
<path d="M158.42 129.798C158.931 126.858 157.057 124.029 154.148 123.36C145.105 121.277 138.303 119.766 129.533 118.112C125.559 117.362 122.003 120.655 122.394 124.681C122.659 127.421 124.723 129.646 127.435 130.117L151.918 134.375C154.977 134.907 157.888 132.858 158.42 129.798Z" fill="url(#paint7_linear_26_85)"/>
<path d="M109.995 119.624C110.028 119.126 110.385 118.706 110.873 118.601C118.944 116.863 123.992 117.172 132.132 118.612C132.678 118.708 133.072 119.193 133.063 119.748C132.859 131.371 133.501 138.427 134.658 150.472C134.721 151.136 134.2 151.711 133.533 151.711H111.099C110.508 151.711 110.017 151.255 109.973 150.666C109.088 138.729 109.182 131.616 109.995 119.624Z" fill="url(#paint8_linear_26_85)"/>
</g>
<g filter="url(#filter6_d_26_85)">
<circle cx="119.518" cy="111.023" r="12.4324" fill="url(#paint9_linear_26_85)"/>
</g>
<path d="M234.512 0H7.34568C7.34568 4.34607 3.01911 5.99525 0 7.82292V46.9375C1.7611 49.4294 7.31795 50.1764 6.73624 55.6296H234.649C232.606 51.0702 233.791 49.7249 238 46.0683V7.82292C233.422 4.98324 231.574 3.47685 234.512 0Z" fill="url(#paint10_linear_26_85)"/>
<path d="M228.807 3.47687H12.8594C12.8594 7.27967 8.74648 8.72271 5.87646 10.3219V44.5472C7.5506 46.7276 12.833 47.3812 12.28 52.1528H228.938C226.996 48.1633 228.123 46.9862 232.123 43.7866V10.3219C227.771 7.8372 226.014 6.51911 228.807 3.47687Z" stroke="#EDE0D4" stroke-width="0.2"/>
<rect x="171.5" y="39.9838" width="1.17531" height="3.47685" fill="#D9D9D9"/>
<rect x="171.5" y="46.9375" width="1.17531" height="3.47685" fill="#D9D9D9"/>
<rect x="171.5" y="33.0301" width="1.17531" height="3.47685" fill="#D9D9D9"/>
<rect x="171.5" y="26.0764" width="1.17531" height="3.47685" fill="#D9D9D9"/>
<rect x="171.5" y="19.1227" width="1.17531" height="3.47685" fill="#D9D9D9"/>
<rect x="171.5" y="12.169" width="1.17531" height="3.47685" fill="#D9D9D9"/>
<rect x="171.5" y="5.21527" width="1.17531" height="3.47685" fill="#D9D9D9"/>
<path d="M19.5855 19.008C19.9855 19.024 20.5215 19.04 21.1935 19.056C21.8815 19.072 22.5615 19.08 23.2335 19.08C24.0015 19.08 24.7455 19.072 25.4655 19.056C26.1855 19.04 26.6975 19.032 27.0015 19.032C29.2255 19.032 30.8895 19.472 31.9935 20.352C33.0975 21.232 33.6495 22.368 33.6495 23.76C33.6495 24.336 33.5375 24.944 33.3135 25.584C33.0895 26.208 32.7055 26.792 32.1615 27.336C31.6335 27.864 30.9055 28.296 29.9775 28.632C29.0495 28.968 27.8815 29.136 26.4735 29.136H24.0255V28.656H26.2335C27.1775 28.656 27.8895 28.44 28.3695 28.008C28.8655 27.576 29.2015 27.008 29.3775 26.304C29.5695 25.6 29.6655 24.84 29.6655 24.024C29.6655 22.504 29.4415 21.368 28.9935 20.616C28.5455 19.864 27.7775 19.488 26.6895 19.488C26.0655 19.488 25.6575 19.624 25.4655 19.896C25.2895 20.168 25.2015 20.72 25.2015 21.552V33.312C25.2015 33.936 25.2655 34.4 25.3935 34.704C25.5215 35.008 25.7695 35.208 26.1375 35.304C26.5055 35.4 27.0495 35.456 27.7695 35.472V36C27.2735 35.984 26.6335 35.968 25.8495 35.952C25.0655 35.936 24.2415 35.928 23.3775 35.928C22.6895 35.928 22.0175 35.936 21.3615 35.952C20.7055 35.968 20.1135 35.984 19.5855 36V35.52C20.0975 35.488 20.4815 35.424 20.7375 35.328C20.9935 35.232 21.1615 35.04 21.2415 34.752C21.3375 34.464 21.3855 34.032 21.3855 33.456V21.552C21.3855 20.96 21.3375 20.528 21.2415 20.256C21.1615 19.968 20.9855 19.776 20.7135 19.68C20.4575 19.568 20.0815 19.504 19.5855 19.488V19.008ZM50.2485 19.008V19.488C49.7365 19.552 49.3445 19.688 49.0725 19.896C48.8165 20.088 48.6485 20.4 48.5685 20.832C48.4885 21.264 48.4485 21.872 48.4485 22.656V29.016C48.4485 30.056 48.3765 31.008 48.2325 31.872C48.0885 32.736 47.8325 33.48 47.4645 34.104C47.0485 34.792 46.4405 35.336 45.6405 35.736C44.8405 36.136 43.8245 36.336 42.5925 36.336C41.8565 36.336 41.1045 36.248 40.3365 36.072C39.5685 35.912 38.8805 35.6 38.2725 35.136C37.7605 34.704 37.3685 34.216 37.0965 33.672C36.8245 33.128 36.6405 32.488 36.5445 31.752C36.4485 31 36.4005 30.112 36.4005 29.088V21.552C36.4005 20.96 36.3525 20.528 36.2565 20.256C36.1765 19.968 36.0085 19.776 35.7525 19.68C35.4965 19.568 35.1125 19.504 34.6005 19.488V19.008C35.0005 19.024 35.5365 19.04 36.2085 19.056C36.8965 19.072 37.6085 19.08 38.3445 19.08C39.0805 19.08 39.7845 19.072 40.4565 19.056C41.1445 19.04 41.7125 19.024 42.1605 19.008V19.488C41.6165 19.504 41.2005 19.568 40.9125 19.68C40.6405 19.776 40.4565 19.968 40.3605 20.256C40.2645 20.528 40.2165 20.96 40.2165 21.552V30.6C40.2165 31.4 40.2645 32.112 40.3605 32.736C40.4725 33.344 40.6485 33.856 40.8885 34.272C41.1445 34.672 41.4885 34.976 41.9205 35.184C42.3525 35.392 42.8885 35.496 43.5285 35.496C44.6485 35.496 45.5205 35.232 46.1445 34.704C46.7845 34.176 47.2325 33.448 47.4885 32.52C47.7605 31.576 47.8965 30.496 47.8965 29.28V22.944C47.8965 22.064 47.8405 21.392 47.7285 20.928C47.6165 20.448 47.3925 20.104 47.0565 19.896C46.7365 19.688 46.2405 19.552 45.5685 19.488V19.008C45.8725 19.024 46.2725 19.04 46.7685 19.056C47.2645 19.072 47.7285 19.08 48.1605 19.08C48.5445 19.08 48.9205 19.072 49.2885 19.056C49.6725 19.04 49.9925 19.024 50.2485 19.008ZM51.5074 19.008C51.9074 19.024 52.4434 19.04 53.1154 19.056C53.8034 19.072 54.4834 19.08 55.1554 19.08C55.9234 19.08 56.6674 19.072 57.3874 19.056C58.1074 19.04 58.6194 19.032 58.9234 19.032C61.1474 19.032 62.8114 19.472 63.9154 20.352C65.0194 21.232 65.5714 22.368 65.5714 23.76C65.5714 24.336 65.4594 24.944 65.2354 25.584C65.0114 26.208 64.6274 26.792 64.0834 27.336C63.5554 27.864 62.8274 28.296 61.8994 28.632C60.9714 28.968 59.8034 29.136 58.3954 29.136H55.9474V28.656H58.1554C59.0994 28.656 59.8114 28.44 60.2914 28.008C60.7874 27.576 61.1234 27.008 61.2994 26.304C61.4914 25.6 61.5874 24.84 61.5874 24.024C61.5874 22.504 61.3634 21.368 60.9154 20.616C60.4674 19.864 59.6994 19.488 58.6114 19.488C57.9874 19.488 57.5794 19.624 57.3874 19.896C57.2114 20.168 57.1234 20.72 57.1234 21.552V33.312C57.1234 33.936 57.1874 34.4 57.3154 34.704C57.4434 35.008 57.6914 35.208 58.0594 35.304C58.4274 35.4 58.9714 35.456 59.6914 35.472V36C59.1954 35.984 58.5554 35.968 57.7714 35.952C56.9874 35.936 56.1634 35.928 55.2994 35.928C54.6114 35.928 53.9394 35.936 53.2834 35.952C52.6274 35.968 52.0354 35.984 51.5074 36V35.52C52.0194 35.488 52.4034 35.424 52.6594 35.328C52.9154 35.232 53.0834 35.04 53.1634 34.752C53.2594 34.464 53.3074 34.032 53.3074 33.456V21.552C53.3074 20.96 53.2594 20.528 53.1634 20.256C53.0834 19.968 52.9074 19.776 52.6354 19.68C52.3794 19.568 52.0034 19.504 51.5074 19.488V19.008ZM66.7652 19.008C67.1652 19.024 67.7012 19.04 68.3732 19.056C69.0612 19.072 69.7412 19.08 70.4132 19.08C71.1812 19.08 71.9252 19.072 72.6452 19.056C73.3652 19.04 73.8772 19.032 74.1812 19.032C76.4052 19.032 78.0692 19.472 79.1732 20.352C80.2772 21.232 80.8292 22.368 80.8292 23.76C80.8292 24.336 80.7172 24.944 80.4932 25.584C80.2692 26.208 79.8852 26.792 79.3412 27.336C78.8132 27.864 78.0852 28.296 77.1572 28.632C76.2292 28.968 75.0612 29.136 73.6532 29.136H71.2052V28.656H73.4132C74.3572 28.656 75.0692 28.44 75.5492 28.008C76.0452 27.576 76.3812 27.008 76.5572 26.304C76.7492 25.6 76.8452 24.84 76.8452 24.024C76.8452 22.504 76.6212 21.368 76.1732 20.616C75.7252 19.864 74.9572 19.488 73.8692 19.488C73.2452 19.488 72.8372 19.624 72.6452 19.896C72.4692 20.168 72.3812 20.72 72.3812 21.552V33.312C72.3812 33.936 72.4452 34.4 72.5732 34.704C72.7012 35.008 72.9492 35.208 73.3172 35.304C73.6852 35.4 74.2292 35.456 74.9492 35.472V36C74.4532 35.984 73.8132 35.968 73.0292 35.952C72.2452 35.936 71.4212 35.928 70.5572 35.928C69.8692 35.928 69.1972 35.936 68.5412 35.952C67.8852 35.968 67.2932 35.984 66.7652 36V35.52C67.2772 35.488 67.6612 35.424 67.9172 35.328C68.1732 35.232 68.3412 35.04 68.4212 34.752C68.5172 34.464 68.5652 34.032 68.5652 33.456V21.552C68.5652 20.96 68.5172 20.528 68.4212 20.256C68.3412 19.968 68.1652 19.776 67.8932 19.68C67.6372 19.568 67.2612 19.504 66.7652 19.488V19.008ZM94.863 19.008C94.799 19.712 94.751 20.392 94.719 21.048C94.703 21.704 94.695 22.208 94.695 22.56C94.695 22.88 94.703 23.184 94.719 23.472C94.735 23.76 94.751 24 94.767 24.192H94.215C94.055 23.024 93.807 22.104 93.471 21.432C93.135 20.744 92.695 20.264 92.151 19.992C91.623 19.704 90.999 19.56 90.279 19.56H89.295C88.831 19.56 88.479 19.6 88.239 19.68C87.999 19.76 87.839 19.92 87.759 20.16C87.679 20.4 87.639 20.768 87.639 21.264V33.744C87.639 34.24 87.679 34.608 87.759 34.848C87.839 35.088 87.999 35.248 88.239 35.328C88.479 35.408 88.831 35.448 89.295 35.448H90.471C91.191 35.448 91.823 35.296 92.367 34.992C92.927 34.672 93.399 34.136 93.783 33.384C94.183 32.632 94.487 31.616 94.695 30.336H95.247C95.199 30.848 95.175 31.52 95.175 32.352C95.175 32.72 95.183 33.24 95.199 33.912C95.215 34.584 95.263 35.28 95.343 36C94.527 35.968 93.607 35.952 92.583 35.952C91.559 35.936 90.647 35.928 89.847 35.928C89.447 35.928 88.935 35.928 88.311 35.928C87.687 35.928 87.015 35.936 86.295 35.952C85.575 35.952 84.847 35.96 84.111 35.976C83.375 35.976 82.679 35.984 82.023 36V35.52C82.535 35.488 82.919 35.424 83.175 35.328C83.431 35.232 83.599 35.04 83.679 34.752C83.775 34.464 83.823 34.032 83.823 33.456V21.552C83.823 20.96 83.775 20.528 83.679 20.256C83.599 19.968 83.423 19.776 83.151 19.68C82.895 19.568 82.519 19.504 82.023 19.488V19.008C82.679 19.024 83.375 19.04 84.111 19.056C84.847 19.056 85.575 19.064 86.295 19.08C87.015 19.08 87.687 19.08 88.311 19.08C88.935 19.08 89.447 19.08 89.847 19.08C90.583 19.08 91.415 19.08 92.343 19.08C93.287 19.064 94.127 19.04 94.863 19.008ZM91.119 27.216C91.119 27.216 91.119 27.296 91.119 27.456C91.119 27.616 91.119 27.696 91.119 27.696H86.919C86.919 27.696 86.919 27.616 86.919 27.456C86.919 27.296 86.919 27.216 86.919 27.216H91.119ZM91.815 24.048C91.751 24.96 91.719 25.656 91.719 26.136C91.735 26.616 91.743 27.056 91.743 27.456C91.743 27.856 91.751 28.296 91.767 28.776C91.783 29.256 91.823 29.952 91.887 30.864H91.335C91.255 30.304 91.103 29.784 90.879 29.304C90.671 28.824 90.367 28.44 89.967 28.152C89.567 27.848 89.047 27.696 88.407 27.696V27.216C88.887 27.216 89.295 27.12 89.631 26.928C89.967 26.72 90.239 26.456 90.447 26.136C90.671 25.8 90.847 25.448 90.975 25.08C91.103 24.712 91.199 24.368 91.263 24.048H91.815ZM111.826 19.008C111.762 19.824 111.714 20.608 111.682 21.36C111.666 22.112 111.658 22.688 111.658 23.088C111.658 23.44 111.666 23.776 111.682 24.096C111.698 24.416 111.714 24.688 111.73 24.912H111.178C110.922 23.568 110.594 22.504 110.194 21.72C109.81 20.936 109.346 20.384 108.802 20.064C108.258 19.728 107.618 19.56 106.882 19.56H106.33V33.264C106.33 33.904 106.394 34.384 106.522 34.704C106.666 35.024 106.922 35.24 107.29 35.352C107.658 35.448 108.194 35.504 108.898 35.52V36C108.402 35.984 107.738 35.968 106.906 35.952C106.09 35.936 105.234 35.928 104.338 35.928C103.458 35.928 102.626 35.936 101.842 35.952C101.058 35.968 100.426 35.984 99.946 36V35.52C100.666 35.504 101.21 35.448 101.578 35.352C101.946 35.24 102.194 35.024 102.322 34.704C102.45 34.384 102.514 33.904 102.514 33.264V19.56H101.986C101.25 19.56 100.61 19.728 100.066 20.064C99.522 20.384 99.058 20.936 98.674 21.72C98.29 22.488 97.954 23.552 97.666 24.912H97.114C97.146 24.688 97.162 24.416 97.162 24.096C97.178 23.776 97.186 23.44 97.186 23.088C97.186 22.688 97.17 22.112 97.138 21.36C97.122 20.608 97.082 19.824 97.018 19.008C97.754 19.024 98.554 19.04 99.418 19.056C100.298 19.072 101.178 19.08 102.058 19.08C102.938 19.08 103.73 19.08 104.434 19.08C105.154 19.08 105.946 19.08 106.81 19.08C107.69 19.08 108.57 19.072 109.45 19.056C110.33 19.04 111.122 19.024 111.826 19.008ZM126.105 19.008C126.041 19.712 125.993 20.392 125.961 21.048C125.945 21.704 125.937 22.208 125.937 22.56C125.937 22.88 125.945 23.184 125.961 23.472C125.977 23.76 125.993 24 126.009 24.192H125.457C125.297 23.024 125.049 22.104 124.713 21.432C124.377 20.744 123.937 20.264 123.393 19.992C122.865 19.704 122.241 19.56 121.521 19.56H120.537C120.073 19.56 119.721 19.6 119.481 19.68C119.241 19.76 119.081 19.92 119.001 20.16C118.921 20.4 118.881 20.768 118.881 21.264V33.744C118.881 34.24 118.921 34.608 119.001 34.848C119.081 35.088 119.241 35.248 119.481 35.328C119.721 35.408 120.073 35.448 120.537 35.448H121.713C122.433 35.448 123.065 35.296 123.609 34.992C124.169 34.672 124.641 34.136 125.025 33.384C125.425 32.632 125.729 31.616 125.937 30.336H126.489C126.441 30.848 126.417 31.52 126.417 32.352C126.417 32.72 126.425 33.24 126.441 33.912C126.457 34.584 126.505 35.28 126.585 36C125.769 35.968 124.849 35.952 123.825 35.952C122.801 35.936 121.889 35.928 121.089 35.928C120.689 35.928 120.177 35.928 119.553 35.928C118.929 35.928 118.257 35.936 117.537 35.952C116.817 35.952 116.089 35.96 115.353 35.976C114.617 35.976 113.921 35.984 113.265 36V35.52C113.777 35.488 114.161 35.424 114.417 35.328C114.673 35.232 114.841 35.04 114.921 34.752C115.017 34.464 115.065 34.032 115.065 33.456V21.552C115.065 20.96 115.017 20.528 114.921 20.256C114.841 19.968 114.665 19.776 114.393 19.68C114.137 19.568 113.761 19.504 113.265 19.488V19.008C113.921 19.024 114.617 19.04 115.353 19.056C116.089 19.056 116.817 19.064 117.537 19.08C118.257 19.08 118.929 19.08 119.553 19.08C120.177 19.08 120.689 19.08 121.089 19.08C121.825 19.08 122.657 19.08 123.585 19.08C124.529 19.064 125.369 19.04 126.105 19.008ZM122.361 27.216C122.361 27.216 122.361 27.296 122.361 27.456C122.361 27.616 122.361 27.696 122.361 27.696H118.161C118.161 27.696 118.161 27.616 118.161 27.456C118.161 27.296 118.161 27.216 118.161 27.216H122.361ZM123.057 24.048C122.993 24.96 122.961 25.656 122.961 26.136C122.977 26.616 122.985 27.056 122.985 27.456C122.985 27.856 122.993 28.296 123.009 28.776C123.025 29.256 123.065 29.952 123.129 30.864H122.577C122.497 30.304 122.345 29.784 122.121 29.304C121.913 28.824 121.609 28.44 121.209 28.152C120.809 27.848 120.289 27.696 119.649 27.696V27.216C120.129 27.216 120.537 27.12 120.873 26.928C121.209 26.72 121.481 26.456 121.689 26.136C121.913 25.8 122.089 25.448 122.217 25.08C122.345 24.712 122.441 24.368 122.505 24.048H123.057ZM141.316 19.008C141.252 19.712 141.204 20.392 141.172 21.048C141.156 21.704 141.148 22.208 141.148 22.56C141.148 22.88 141.156 23.184 141.172 23.472C141.188 23.76 141.204 24 141.22 24.192H140.668C140.508 23.024 140.26 22.104 139.924 21.432C139.588 20.744 139.148 20.264 138.604 19.992C138.076 19.704 137.452 19.56 136.732 19.56H135.748C135.284 19.56 134.932 19.6 134.692 19.68C134.452 19.76 134.292 19.92 134.212 20.16C134.132 20.4 134.092 20.768 134.092 21.264V33.744C134.092 34.24 134.132 34.608 134.212 34.848C134.292 35.088 134.452 35.248 134.692 35.328C134.932 35.408 135.284 35.448 135.748 35.448H136.924C137.644 35.448 138.276 35.296 138.82 34.992C139.38 34.672 139.852 34.136 140.236 33.384C140.636 32.632 140.94 31.616 141.148 30.336H141.7C141.652 30.848 141.628 31.52 141.628 32.352C141.628 32.72 141.636 33.24 141.652 33.912C141.668 34.584 141.716 35.28 141.796 36C140.98 35.968 140.06 35.952 139.036 35.952C138.012 35.936 137.1 35.928 136.3 35.928C135.9 35.928 135.388 35.928 134.764 35.928C134.14 35.928 133.468 35.936 132.748 35.952C132.028 35.952 131.3 35.96 130.564 35.976C129.828 35.976 129.132 35.984 128.476 36V35.52C128.988 35.488 129.372 35.424 129.628 35.328C129.884 35.232 130.052 35.04 130.132 34.752C130.228 34.464 130.276 34.032 130.276 33.456V21.552C130.276 20.96 130.228 20.528 130.132 20.256C130.052 19.968 129.876 19.776 129.604 19.68C129.348 19.568 128.972 19.504 128.476 19.488V19.008C129.132 19.024 129.828 19.04 130.564 19.056C131.3 19.056 132.028 19.064 132.748 19.08C133.468 19.08 134.14 19.08 134.764 19.08C135.388 19.08 135.9 19.08 136.3 19.08C137.036 19.08 137.868 19.08 138.796 19.08C139.74 19.064 140.58 19.04 141.316 19.008ZM137.572 27.216C137.572 27.216 137.572 27.296 137.572 27.456C137.572 27.616 137.572 27.696 137.572 27.696H133.372C133.372 27.696 133.372 27.616 133.372 27.456C133.372 27.296 133.372 27.216 133.372 27.216H137.572ZM138.268 24.048C138.204 24.96 138.172 25.656 138.172 26.136C138.188 26.616 138.196 27.056 138.196 27.456C138.196 27.856 138.204 28.296 138.22 28.776C138.236 29.256 138.276 29.952 138.34 30.864H137.788C137.708 30.304 137.556 29.784 137.332 29.304C137.124 28.824 136.82 28.44 136.42 28.152C136.02 27.848 135.5 27.696 134.86 27.696V27.216C135.34 27.216 135.748 27.12 136.084 26.928C136.42 26.72 136.692 26.456 136.9 26.136C137.124 25.8 137.3 25.448 137.428 25.08C137.556 24.712 137.652 24.368 137.716 24.048H138.268ZM143.687 19.008C144.087 19.024 144.623 19.04 145.295 19.056C145.983 19.072 146.663 19.08 147.335 19.08C148.103 19.08 148.847 19.072 149.567 19.056C150.287 19.04 150.799 19.032 151.103 19.032C152.591 19.032 153.823 19.2 154.799 19.536C155.791 19.856 156.527 20.328 157.007 20.952C157.503 21.576 157.751 22.328 157.751 23.208C157.751 23.752 157.639 24.304 157.415 24.864C157.191 25.408 156.807 25.92 156.263 26.4C155.735 26.864 155.007 27.24 154.079 27.528C153.151 27.8 151.983 27.936 150.575 27.936H148.271V27.456H150.335C151.279 27.456 151.991 27.28 152.471 26.928C152.967 26.56 153.303 26.08 153.479 25.488C153.671 24.88 153.767 24.208 153.767 23.472C153.767 22.208 153.543 21.232 153.095 20.544C152.647 19.84 151.879 19.488 150.791 19.488C150.167 19.488 149.759 19.624 149.567 19.896C149.391 20.168 149.303 20.72 149.303 21.552V33.456C149.303 34.032 149.343 34.464 149.423 34.752C149.519 35.04 149.695 35.232 149.951 35.328C150.207 35.424 150.591 35.488 151.103 35.52V36C150.671 35.968 150.127 35.952 149.471 35.952C148.815 35.936 148.151 35.928 147.479 35.928C146.711 35.928 145.983 35.936 145.295 35.952C144.623 35.952 144.087 35.968 143.687 36V35.52C144.199 35.488 144.583 35.424 144.839 35.328C145.095 35.232 145.263 35.04 145.343 34.752C145.439 34.464 145.487 34.032 145.487 33.456V21.552C145.487 20.96 145.439 20.528 145.343 20.256C145.263 19.968 145.087 19.776 144.815 19.68C144.559 19.568 144.183 19.504 143.687 19.488V19.008ZM148.223 27.528C148.911 27.544 149.503 27.576 149.999 27.624C150.511 27.672 150.959 27.72 151.343 27.768C151.727 27.8 152.071 27.824 152.375 27.84C153.831 27.968 154.903 28.28 155.591 28.776C156.295 29.272 156.751 30.016 156.959 31.008L157.511 33.48C157.655 34.12 157.807 34.568 157.967 34.824C158.127 35.08 158.359 35.208 158.663 35.208C158.871 35.192 159.039 35.144 159.167 35.064C159.311 34.968 159.463 34.832 159.623 34.656L159.959 34.944C159.527 35.44 159.063 35.792 158.567 36C158.071 36.224 157.471 36.336 156.767 36.336C155.903 36.336 155.191 36.152 154.631 35.784C154.071 35.416 153.703 34.736 153.527 33.744L153.095 31.344C152.983 30.672 152.847 30.088 152.687 29.592C152.527 29.08 152.303 28.68 152.015 28.392C151.743 28.088 151.359 27.936 150.863 27.936H148.271L148.223 27.528Z" fill="#EDE0D4"/>
<path d="M204.729 19.008V19.488C204.217 19.504 203.833 19.568 203.577 19.68C203.321 19.776 203.145 19.968 203.049 20.256C202.969 20.528 202.929 20.96 202.929 21.552V33.456C202.929 34.032 202.969 34.464 203.049 34.752C203.145 35.04 203.321 35.232 203.577 35.328C203.833 35.424 204.217 35.488 204.729 35.52V36C204.281 35.968 203.713 35.952 203.025 35.952C202.353 35.936 201.665 35.928 200.961 35.928C200.193 35.928 199.473 35.936 198.801 35.952C198.129 35.952 197.585 35.968 197.169 36V35.52C197.713 35.488 198.121 35.424 198.393 35.328C198.681 35.232 198.873 35.04 198.969 34.752C199.065 34.464 199.113 34.032 199.113 33.456V20.472H199.281L193.329 36.024H192.945L186.465 20.568V32.064C186.465 32.944 186.513 33.624 186.609 34.104C186.705 34.568 186.913 34.904 187.233 35.112C187.569 35.304 188.089 35.44 188.793 35.52V36C188.489 35.968 188.089 35.952 187.593 35.952C187.097 35.936 186.633 35.928 186.201 35.928C185.833 35.928 185.457 35.936 185.073 35.952C184.689 35.952 184.369 35.968 184.113 36V35.52C184.625 35.44 185.009 35.304 185.265 35.112C185.521 34.92 185.689 34.608 185.769 34.176C185.865 33.728 185.913 33.12 185.913 32.352V21.552C185.913 20.96 185.865 20.528 185.769 20.256C185.689 19.968 185.513 19.776 185.241 19.68C184.985 19.568 184.609 19.504 184.113 19.488V19.008C184.369 19.024 184.689 19.04 185.073 19.056C185.457 19.072 185.833 19.08 186.201 19.08C186.889 19.08 187.561 19.072 188.217 19.056C188.889 19.04 189.481 19.024 189.993 19.008L195.033 31.176L194.433 31.728L199.257 19.08C199.529 19.08 199.809 19.08 200.097 19.08C200.385 19.08 200.673 19.08 200.961 19.08C201.665 19.08 202.353 19.072 203.025 19.056C203.713 19.04 204.281 19.024 204.729 19.008ZM219.172 19.008C219.108 19.712 219.06 20.392 219.028 21.048C219.012 21.704 219.004 22.208 219.004 22.56C219.004 22.88 219.012 23.184 219.028 23.472C219.044 23.76 219.06 24 219.076 24.192H218.524C218.364 23.024 218.116 22.104 217.78 21.432C217.444 20.744 217.004 20.264 216.46 19.992C215.932 19.704 215.308 19.56 214.588 19.56H213.604C213.14 19.56 212.788 19.6 212.548 19.68C212.308 19.76 212.148 19.92 212.068 20.16C211.988 20.4 211.948 20.768 211.948 21.264V33.744C211.948 34.24 211.988 34.608 212.068 34.848C212.148 35.088 212.308 35.248 212.548 35.328C212.788 35.408 213.14 35.448 213.604 35.448H214.78C215.5 35.448 216.132 35.296 216.676 34.992C217.236 34.672 217.708 34.136 218.092 33.384C218.492 32.632 218.796 31.616 219.004 30.336H219.556C219.508 30.848 219.484 31.52 219.484 32.352C219.484 32.72 219.492 33.24 219.508 33.912C219.524 34.584 219.572 35.28 219.652 36C218.836 35.968 217.916 35.952 216.892 35.952C215.868 35.936 214.956 35.928 214.156 35.928C213.756 35.928 213.244 35.928 212.62 35.928C211.996 35.928 211.324 35.936 210.604 35.952C209.884 35.952 209.156 35.96 208.42 35.976C207.684 35.976 206.988 35.984 206.332 36V35.52C206.844 35.488 207.228 35.424 207.484 35.328C207.74 35.232 207.908 35.04 207.988 34.752C208.084 34.464 208.132 34.032 208.132 33.456V21.552C208.132 20.96 208.084 20.528 207.988 20.256C207.908 19.968 207.732 19.776 207.46 19.68C207.204 19.568 206.828 19.504 206.332 19.488V19.008C206.988 19.024 207.684 19.04 208.42 19.056C209.156 19.056 209.884 19.064 210.604 19.08C211.324 19.08 211.996 19.08 212.62 19.08C213.244 19.08 213.756 19.08 214.156 19.08C214.892 19.08 215.724 19.08 216.652 19.08C217.596 19.064 218.436 19.04 219.172 19.008ZM215.428 27.216C215.428 27.216 215.428 27.296 215.428 27.456C215.428 27.616 215.428 27.696 215.428 27.696H211.228C211.228 27.696 211.228 27.616 211.228 27.456C211.228 27.296 211.228 27.216 211.228 27.216H215.428ZM216.124 24.048C216.06 24.96 216.028 25.656 216.028 26.136C216.044 26.616 216.052 27.056 216.052 27.456C216.052 27.856 216.06 28.296 216.076 28.776C216.092 29.256 216.132 29.952 216.196 30.864H215.644C215.564 30.304 215.412 29.784 215.188 29.304C214.98 28.824 214.676 28.44 214.276 28.152C213.876 27.848 213.356 27.696 212.716 27.696V27.216C213.196 27.216 213.604 27.12 213.94 26.928C214.276 26.72 214.548 26.456 214.756 26.136C214.98 25.8 215.156 25.448 215.284 25.08C215.412 24.712 215.508 24.368 215.572 24.048H216.124Z" fill="#EDE0D4"/>
<g filter="url(#filter7_f_26_85)">
<ellipse cx="110.5" cy="237" rx="57.5" ry="7" fill="#EDE0D4"/>
</g>
<defs>
<filter id="filter0_f_26_85" x="82.9516" y="41.6795" width="5.321" height="147.729" filterUnits="userSpaceOnUse" color-interpolation-filters="sRGB">
<feFlood flood-opacity="0" result="BackgroundImageFix"/>
<feBlend mode="normal" in="SourceGraphic" in2="BackgroundImageFix" result="shape"/>
<feGaussianBlur stdDeviation="0.2" result="effect1_foregroundBlur_26_85"/>
</filter>
<filter id="filter1_f_26_85" x="131.551" y="41.6" width="16.2585" height="149.484" filterUnits="userSpaceOnUse" color-interpolation-filters="sRGB">
<feFlood flood-opacity="0" result="BackgroundImageFix"/>
<feBlend mode="normal" in="SourceGraphic" in2="BackgroundImageFix" result="shape"/>
<feGaussianBlur stdDeviation="0.2" result="effect1_foregroundBlur_26_85"/>
</filter>
<filter id="filter2_f_26_85" x="65.9984" y="41.6" width="13.6667" height="89.1142" filterUnits="userSpaceOnUse" color-interpolation-filters="sRGB">
<feFlood flood-opacity="0" result="BackgroundImageFix"/>
<feBlend mode="normal" in="SourceGraphic" in2="BackgroundImageFix" result="shape"/>
<feGaussianBlur stdDeviation="0.2" result="effect1_foregroundBlur_26_85"/>
</filter>
<filter id="filter3_f_26_85" x="161.064" y="41.8865" width="12.5637" height="77.5255" filterUnits="userSpaceOnUse" color-interpolation-filters="sRGB">
<feFlood flood-opacity="0" result="BackgroundImageFix"/>
<feBlend mode="normal" in="SourceGraphic" in2="BackgroundImageFix" result="shape"/>
<feGaussianBlur stdDeviation="0.2" result="effect1_foregroundBlur_26_85"/>
</filter>
<filter id="filter4_d_26_85" x="67.5107" y="145.42" width="76.4521" height="80.815" filterUnits="userSpaceOnUse" color-interpolation-filters="sRGB">
<feFlood flood-opacity="0" result="BackgroundImageFix"/>
<feColorMatrix in="SourceAlpha" type="matrix" values="0 0 0 0 0 0 0 0 0 0 0 0 0 0 0 0 0 0 127 0" result="hardAlpha"/>
<feOffset dy="4"/>
<feGaussianBlur stdDeviation="2"/>
<feComposite in2="hardAlpha" operator="out"/>
<feColorMatrix type="matrix" values="0 0 0 0 0 0 0 0 0 0 0 0 0 0 0 0 0 0 0.25 0"/>
<feBlend mode="normal" in2="BackgroundImageFix" result="effect1_dropShadow_26_85"/>
<feBlend mode="normal" in="SourceGraphic" in2="effect1_dropShadow_26_85" result="shape"/>
</filter>
<filter id="filter5_d_26_85" x="59" y="110.213" width="123.006" height="49.4982" filterUnits="userSpaceOnUse" color-interpolation-filters="sRGB">
<feFlood flood-opacity="0" result="BackgroundImageFix"/>
<feColorMatrix in="SourceAlpha" type="matrix" values="0 0 0 0 0 0 0 0 0 0 0 0 0 0 0 0 0 0 127 0" result="hardAlpha"/>
<feOffset dy="4"/>
<feGaussianBlur stdDeviation="2"/>
<feComposite in2="hardAlpha" operator="out"/>
<feColorMatrix type="matrix" values="0 0 0 0 0 0 0 0 0 0 0 0 0 0 0 0 0 0 0.25 0"/>
<feBlend mode="normal" in2="BackgroundImageFix" result="effect1_dropShadow_26_85"/>
<feBlend mode="normal" in="SourceGraphic" in2="effect1_dropShadow_26_85" result="shape"/>
</filter>
<filter id="filter6_d_26_85" x="103.086" y="98.5906" width="32.8647" height="32.8649" filterUnits="userSpaceOnUse" color-interpolation-filters="sRGB">
<feFlood flood-opacity="0" result="BackgroundImageFix"/>
<feColorMatrix in="SourceAlpha" type="matrix" values="0 0 0 0 0 0 0 0 0 0 0 0 0 0 0 0 0 0 127 0" result="hardAlpha"/>
<feOffset dy="4"/>
<feGaussianBlur stdDeviation="2"/>
<feComposite in2="hardAlpha" operator="out"/>
<feColorMatrix type="matrix" values="0 0 0 0 0 0 0 0 0 0 0 0 0 0 0 0 0 0 0.25 0"/>
<feBlend mode="normal" in2="BackgroundImageFix" result="effect1_dropShadow_26_85"/>
<feBlend mode="normal" in="SourceGraphic" in2="effect1_dropShadow_26_85" result="shape"/>
</filter>
<filter id="filter7_f_26_85" x="48.7" y="225.7" width="123.6" height="22.6" filterUnits="userSpaceOnUse" color-interpolation-filters="sRGB">
<feFlood flood-opacity="0" result="BackgroundImageFix"/>
<feBlend mode="normal" in="SourceGraphic" in2="BackgroundImageFix" result="shape"/>
<feGaussianBlur stdDeviation="2.15" result="effect1_foregroundBlur_26_85"/>
</filter>
<linearGradient id="paint0_linear_26_85" x1="105.737" y1="145.42" x2="105.737" y2="218.235" gradientUnits="userSpaceOnUse">
<stop offset="0.535" stop-color="#1D1D1D"/>
<stop offset="1" stop-color="#363636"/>
</linearGradient>
<linearGradient id="paint1_linear_26_85" x1="105.737" y1="145.42" x2="105.737" y2="218.235" gradientUnits="userSpaceOnUse">
<stop offset="0.535" stop-color="#1D1D1D"/>
<stop offset="1" stop-color="#363636"/>
</linearGradient>
<linearGradient id="paint2_linear_26_85" x1="105.737" y1="145.42" x2="105.737" y2="218.235" gradientUnits="userSpaceOnUse">
<stop offset="0.535" stop-color="#1D1D1D"/>
<stop offset="1" stop-color="#363636"/>
</linearGradient>
<linearGradient id="paint3_linear_26_85" x1="105.737" y1="145.42" x2="105.737" y2="218.235" gradientUnits="userSpaceOnUse">
<stop offset="0.535" stop-color="#1D1D1D"/>
<stop offset="1" stop-color="#363636"/>
</linearGradient>
<linearGradient id="paint4_linear_26_85" x1="120.503" y1="110.213" x2="120.503" y2="151.711" gradientUnits="userSpaceOnUse">
<stop offset="0.41" stop-color="#00435B"/>
<stop offset="1" stop-color="#008EC1"/>
</linearGradient>
<linearGradient id="paint5_linear_26_85" x1="120.503" y1="110.213" x2="120.503" y2="151.711" gradientUnits="userSpaceOnUse">
<stop offset="0.41" stop-color="#00435B"/>
<stop offset="1" stop-color="#008EC1"/>
</linearGradient>
<linearGradient id="paint6_linear_26_85" x1="120.503" y1="110.213" x2="120.503" y2="151.711" gradientUnits="userSpaceOnUse">
<stop offset="0.41" stop-color="#00435B"/>
<stop offset="1" stop-color="#008EC1"/>
</linearGradient>
<linearGradient id="paint7_linear_26_85" x1="120.503" y1="110.213" x2="120.503" y2="151.711" gradientUnits="userSpaceOnUse">
<stop offset="0.41" stop-color="#00435B"/>
<stop offset="1" stop-color="#008EC1"/>
</linearGradient>
<linearGradient id="paint8_linear_26_85" x1="120.503" y1="110.213" x2="120.503" y2="151.711" gradientUnits="userSpaceOnUse">
<stop offset="0.41" stop-color="#00435B"/>
<stop offset="1" stop-color="#008EC1"/>
</linearGradient>
<linearGradient id="paint9_linear_26_85" x1="119.518" y1="98.5906" x2="119.518" y2="123.455" gradientUnits="userSpaceOnUse">
<stop offset="0.355" stop-color="#59656A"/>
<stop offset="1" stop-color="#FEFEFE"/>
</linearGradient>
<linearGradient id="paint10_linear_26_85" x1="0" y1="27.8148" x2="238" y2="27.8148" gradientUnits="userSpaceOnUse">
<stop stop-color="#480914"/>
<stop offset="1" stop-color="#A1283D"/>
</linearGradient>
</defs>
</svg>
