<svg width="139" height="50" viewBox="0 0 139 50" fill="none" xmlns="http://www.w3.org/2000/svg">
<path d="M136.963 0H4.29012C4.29012 3.90625 1.76326 5.38854 0 7.03125V42.1875C1.02854 44.4272 4.27393 45.0987 3.93419 50H137.043C135.85 45.902 136.542 44.6928 139 41.4062V7.03125C136.326 4.47894 135.247 3.125 136.963 0Z" fill="#E9C46A"/>
<path d="M133.631 3.12503H7.51039C7.51039 6.543 5.10831 7.84001 3.43213 9.27737V40.0391C4.40988 41.9988 7.495 42.5864 7.17204 46.875H133.707C132.573 43.2893 133.231 42.2313 135.568 39.3555V9.27737C133.026 7.04411 132 5.85941 133.631 3.12503Z" stroke="#2B2B2B" stroke-width="0.2"/>
<rect x="121.129" y="35.9374" width="0.68642" height="3.125" fill="#2B2B2B"/>
<rect x="121.129" y="42.1875" width="0.68642" height="3.125" fill="#2B2B2B"/>
<rect x="121.129" y="29.6875" width="0.68642" height="3.125" fill="#2B2B2B"/>
<rect x="121.129" y="23.4375" width="0.68642" height="3.125" fill="#2B2B2B"/>
<rect x="121.129" y="17.1875" width="0.68642" height="3.125" fill="#2B2B2B"/>
<rect x="121.129" y="10.9375" width="0.68642" height="3.125" fill="#2B2B2B"/>
<rect x="121.129" y="4.6875" width="0.68642" height="3.125" fill="#2B2B2B"/>
<path d="M17.8418 26.8681L17.9218 26.5481H18.6418C19.4311 26.5481 20.0978 26.4414 20.6418 26.2281C21.1858 26.0041 21.6231 25.6948 21.9538 25.3001C22.2844 24.9054 22.5244 24.4521 22.6737 23.9401C22.8231 23.4174 22.8978 22.8574 22.8978 22.2601C22.8978 21.6308 22.7378 21.1668 22.4178 20.8681C22.1084 20.5588 21.5911 20.4041 20.8658 20.4041C20.5564 20.4041 20.3058 20.4468 20.1138 20.5321C19.9324 20.6068 19.7831 20.7454 19.6658 20.9481C19.5591 21.1401 19.4578 21.4174 19.3618 21.7801L17.2498 29.7161C17.1644 30.0468 17.1164 30.3134 17.1058 30.5161C17.0951 30.7081 17.1644 30.8521 17.3138 30.9481C17.4738 31.0334 17.7671 31.0814 18.1938 31.0921L18.1298 31.4121C17.8844 31.3908 17.5858 31.3801 17.2338 31.3801C16.8818 31.3694 16.5191 31.3641 16.1458 31.3641C15.7298 31.3641 15.3351 31.3694 14.9618 31.3801C14.5884 31.3801 14.2897 31.3908 14.0658 31.4121L14.1297 31.0921C14.4924 31.0708 14.7751 31.0281 14.9778 30.9641C15.1804 30.9001 15.3404 30.7721 15.4578 30.5801C15.5751 30.3881 15.6818 30.1001 15.7778 29.7161L17.8898 21.7801C17.9858 21.4388 18.0284 21.1721 18.0178 20.9801C18.0178 20.7774 17.9378 20.6334 17.7778 20.5481C17.6178 20.4521 17.3404 20.4041 16.9457 20.4041L17.0258 20.0841C17.2391 20.0948 17.5324 20.1054 17.9058 20.1161C18.2791 20.1268 18.6418 20.1321 18.9938 20.1321C19.3778 20.1321 19.7618 20.1268 20.1458 20.1161C20.5404 20.1054 20.9351 20.1001 21.3298 20.1001C22.4071 20.1001 23.2071 20.3241 23.7298 20.7721C24.2524 21.2094 24.5138 21.7908 24.5138 22.5161C24.5138 23.3481 24.2578 24.0948 23.7458 24.7561C23.2444 25.4068 22.5404 25.9241 21.6338 26.3081C20.7271 26.6814 19.6764 26.8681 18.4818 26.8681H17.8418ZM30.3676 25.8761C29.9836 26.9428 29.6156 27.8441 29.2636 28.5801C28.9116 29.3161 28.5596 29.9081 28.2076 30.3561C27.8663 30.8041 27.5143 31.1294 27.1516 31.3321C26.7996 31.5348 26.4316 31.6361 26.0476 31.6361C25.5783 31.6361 25.237 31.5294 25.0236 31.3161C24.8103 31.1028 24.7036 30.8148 24.7036 30.4521C24.7036 30.0894 24.7783 29.6788 24.9276 29.2201L26.4796 24.5481C26.5863 24.2281 26.6236 23.9828 26.5916 23.8121C26.5596 23.6414 26.437 23.5561 26.2236 23.5561C26.021 23.5561 25.8183 23.6681 25.6156 23.8921C25.4236 24.1161 25.2156 24.5481 24.9916 25.1881L24.7836 25.7801H24.4796L24.8796 24.6121C25.0396 24.1641 25.2263 23.8228 25.4396 23.5881C25.6636 23.3534 25.893 23.1934 26.1276 23.1081C26.373 23.0121 26.6023 22.9641 26.8156 22.9641C27.285 22.9641 27.5943 23.0761 27.7436 23.3001C27.9036 23.5134 27.9623 23.7908 27.9196 24.1321C27.8876 24.4734 27.8076 24.8308 27.6796 25.2041L26.1596 29.7801C25.861 30.6761 25.9783 31.1241 26.5116 31.1241C26.7676 31.1241 27.0396 31.0121 27.3276 30.7881C27.6156 30.5534 27.909 30.2228 28.2076 29.7961C28.5063 29.3588 28.7996 28.8414 29.0876 28.2441C29.3863 27.6361 29.669 26.9641 29.9356 26.2281C30.213 25.4814 30.4636 24.6814 30.6876 23.8281L30.3676 25.8761ZM30.3196 30.0521C30.245 30.3401 30.2076 30.5801 30.2076 30.7721C30.2183 30.9534 30.3303 31.0441 30.5436 31.0441C30.7783 31.0441 30.9916 30.9214 31.1836 30.6761C31.3863 30.4201 31.589 29.9988 31.7916 29.4121L31.9996 28.8201H32.3036L31.9036 29.9881C31.7543 30.4361 31.5676 30.7774 31.3436 31.0121C31.1303 31.2468 30.901 31.4068 30.6556 31.4921C30.421 31.5881 30.1916 31.6361 29.9676 31.6361C29.797 31.6361 29.637 31.5988 29.4876 31.5241C29.3383 31.4494 29.2263 31.3428 29.1516 31.2041C29.0663 31.0228 29.0343 30.7934 29.0556 30.5161C29.0876 30.2388 29.1623 29.8654 29.2796 29.3961L30.8476 23.1881C31.1143 23.1774 31.3703 23.1561 31.6156 23.1241C31.8716 23.0921 32.101 23.0388 32.3036 22.9641L30.3196 30.0521ZM39.1738 23.4761C38.8964 23.4761 38.5818 23.6734 38.2298 24.0681C37.8884 24.4521 37.5364 24.9801 37.1738 25.6521C36.8218 26.3134 36.4858 27.0601 36.1658 27.8921C35.8564 28.7241 35.5951 29.5881 35.3818 30.4841L35.6698 28.7561C36.1284 27.3588 36.5711 26.2388 36.9978 25.3961C37.4244 24.5428 37.8511 23.9241 38.2778 23.5401C38.7151 23.1561 39.1684 22.9641 39.6378 22.9641C40.1391 22.9641 40.5391 23.1508 40.8378 23.5241C41.1471 23.8974 41.3018 24.4628 41.3018 25.2201C41.3018 25.7001 41.2324 26.2281 41.0938 26.8041C40.9658 27.3801 40.7684 27.9508 40.5018 28.5161C40.2458 29.0814 39.9258 29.6041 39.5418 30.0841C39.1684 30.5534 38.7364 30.9321 38.2458 31.2201C37.7551 31.4974 37.2111 31.6361 36.6138 31.6361C36.2938 31.6361 36.0058 31.5401 35.7498 31.3481C35.5044 31.1561 35.3391 30.8788 35.2538 30.5161L35.3818 30.1961C35.5311 30.5908 35.7018 30.8681 35.8938 31.0281C36.0964 31.1881 36.3311 31.2681 36.5978 31.2681C36.9604 31.2681 37.3071 31.1294 37.6378 30.8521C37.9684 30.5641 38.2724 30.1854 38.5498 29.7161C38.8271 29.2468 39.0671 28.7294 39.2698 28.1641C39.4831 27.5881 39.6431 27.0174 39.7498 26.4521C39.8671 25.8761 39.9258 25.3481 39.9258 24.8681C39.9258 24.3988 39.8564 24.0521 39.7178 23.8281C39.5898 23.5934 39.4084 23.4761 39.1738 23.4761ZM36.7738 20.7401C37.0298 20.7294 37.2804 20.7081 37.5258 20.6761C37.7818 20.6441 38.0164 20.5908 38.2298 20.5161L34.7098 32.8201C34.5818 33.2681 34.6458 33.5721 34.9018 33.7321C35.1578 33.8921 35.5258 33.9721 36.0058 33.9721L35.9098 34.3081C35.6964 34.2974 35.3924 34.2814 34.9978 34.2601C34.6138 34.2494 34.2031 34.2441 33.7658 34.2441C33.4351 34.2441 33.0991 34.2494 32.7577 34.2601C32.4164 34.2814 32.1604 34.2974 31.9897 34.3081L32.0857 33.9721C32.4697 33.9721 32.7471 33.8974 32.9177 33.7481C33.0884 33.6094 33.2271 33.3534 33.3338 32.9801L36.7738 20.7401ZM33.4458 25.7001C33.8618 25.2948 34.2511 24.8948 34.6138 24.5001C34.9764 24.0948 35.3284 23.6148 35.6698 23.0601C36.0111 22.5054 36.3578 21.8068 36.7098 20.9641L36.7578 21.2201C36.5231 21.9454 36.2404 22.5854 35.9098 23.1401C35.5898 23.6841 35.2378 24.1801 34.8538 24.6281C34.4698 25.0654 34.0591 25.4921 33.6217 25.9081L33.4458 25.7001ZM47.9863 23.4761C47.7089 23.4761 47.3943 23.6734 47.0423 24.0681C46.7009 24.4521 46.3489 24.9801 45.9863 25.6521C45.6343 26.3134 45.2983 27.0601 44.9783 27.8921C44.6689 28.7241 44.4076 29.5881 44.1943 30.4841L44.4823 28.7561C44.9409 27.3588 45.3836 26.2388 45.8103 25.3961C46.2369 24.5428 46.6636 23.9241 47.0903 23.5401C47.5276 23.1561 47.9809 22.9641 48.4503 22.9641C48.9516 22.9641 49.3516 23.1508 49.6503 23.5241C49.9596 23.8974 50.1143 24.4628 50.1143 25.2201C50.1143 25.7001 50.0449 26.2281 49.9062 26.8041C49.7783 27.3801 49.5809 27.9508 49.3143 28.5161C49.0583 29.0814 48.7383 29.6041 48.3543 30.0841C47.9809 30.5534 47.5489 30.9321 47.0583 31.2201C46.5676 31.4974 46.0236 31.6361 45.4263 31.6361C45.1063 31.6361 44.8183 31.5401 44.5623 31.3481C44.3169 31.1561 44.1516 30.8788 44.0663 30.5161L44.1943 30.1961C44.3436 30.5908 44.5143 30.8681 44.7063 31.0281C44.9089 31.1881 45.1436 31.2681 45.4103 31.2681C45.7729 31.2681 46.1196 31.1294 46.4503 30.8521C46.7809 30.5641 47.0849 30.1854 47.3623 29.7161C47.6396 29.2468 47.8796 28.7294 48.0823 28.1641C48.2956 27.5881 48.4556 27.0174 48.5623 26.4521C48.6796 25.8761 48.7383 25.3481 48.7383 24.8681C48.7383 24.3988 48.6689 24.0521 48.5303 23.8281C48.4023 23.5934 48.2209 23.4761 47.9863 23.4761ZM45.5863 20.7401C45.8423 20.7294 46.0929 20.7081 46.3383 20.6761C46.5943 20.6441 46.8289 20.5908 47.0423 20.5161L43.5223 32.8201C43.3943 33.2681 43.4583 33.5721 43.7143 33.7321C43.9703 33.8921 44.3383 33.9721 44.8183 33.9721L44.7223 34.3081C44.5089 34.2974 44.2049 34.2814 43.8103 34.2601C43.4263 34.2494 43.0156 34.2441 42.5783 34.2441C42.2476 34.2441 41.9116 34.2494 41.5702 34.2601C41.2289 34.2814 40.9729 34.2974 40.8022 34.3081L40.8982 33.9721C41.2822 33.9721 41.5596 33.8974 41.7302 33.7481C41.9009 33.6094 42.0396 33.3534 42.1463 32.9801L45.5863 20.7401ZM42.2583 25.7001C42.6743 25.2948 43.0636 24.8948 43.4263 24.5001C43.7889 24.0948 44.1409 23.6148 44.4823 23.0601C44.8236 22.5054 45.1703 21.8068 45.5223 20.9641L45.5703 21.2201C45.3356 21.9454 45.0529 22.5854 44.7223 23.1401C44.4023 23.6841 44.0503 24.1801 43.6663 24.6281C43.2823 25.0654 42.8716 25.4921 42.4342 25.9081L42.2583 25.7001ZM52.0628 27.7801C52.6601 27.5774 53.1988 27.3801 53.6788 27.1881C54.1694 26.9854 54.5588 26.7721 54.8468 26.5481C55.2308 26.2388 55.5348 25.8654 55.7588 25.4281C55.9828 24.9908 56.0948 24.5108 56.0948 23.9881C56.0948 23.6788 56.0734 23.4814 56.0308 23.3961C55.9881 23.3108 55.9241 23.2681 55.8388 23.2681C55.5721 23.2681 55.2841 23.3854 54.9748 23.6201C54.6654 23.8548 54.3614 24.1801 54.0628 24.5961C53.7641 25.0014 53.4868 25.4654 53.2308 25.9881C52.9854 26.5108 52.7881 27.0708 52.6388 27.6681C52.4894 28.2548 52.4148 28.8414 52.4148 29.4281C52.4148 29.9721 52.5161 30.3668 52.7188 30.6121C52.9214 30.8468 53.1881 30.9641 53.5188 30.9641C53.9028 30.9641 54.3081 30.8468 54.7348 30.6121C55.1614 30.3774 55.5774 29.9614 55.9828 29.3641L56.2388 29.4921C56.0361 29.8441 55.7694 30.1854 55.4388 30.5161C55.1081 30.8468 54.7348 31.1188 54.3188 31.3321C53.9134 31.5348 53.4814 31.6361 53.0228 31.6361C52.5961 31.6361 52.2228 31.5508 51.9028 31.3801C51.5828 31.2094 51.3374 30.9588 51.1668 30.6281C50.9961 30.2868 50.9108 29.8708 50.9108 29.3801C50.9108 28.9214 50.9961 28.4094 51.1668 27.8441C51.3374 27.2681 51.5774 26.6974 51.8868 26.1321C52.2068 25.5561 52.5854 25.0281 53.0228 24.5481C53.4601 24.0681 53.9454 23.6841 54.4788 23.3961C55.0121 23.1081 55.5828 22.9641 56.1908 22.9641C56.5214 22.9641 56.7988 23.0548 57.0228 23.2361C57.2574 23.4068 57.3748 23.6681 57.3748 24.0201C57.3748 24.4468 57.2468 24.8468 56.9908 25.2201C56.7454 25.5828 56.4148 25.9188 55.9988 26.2281C55.5934 26.5268 55.1508 26.7934 54.6708 27.0281C54.1908 27.2628 53.7214 27.4654 53.2628 27.6361C52.8041 27.8068 52.3988 27.9454 52.0468 28.0521L52.0628 27.7801ZM63.5781 23.1881L63.5301 23.5081H58.5541L58.6341 23.1881H63.5781ZM59.5141 30.0521C59.4181 30.4041 59.4395 30.6601 59.5781 30.8201C59.7275 30.9694 59.9195 31.0441 60.1541 31.0441C60.3888 31.0441 60.6235 30.9428 60.8581 30.7401C61.1035 30.5374 61.3435 30.1054 61.5781 29.4441L61.8021 28.8201H62.1061L61.7701 29.8281C61.5355 30.5214 61.2315 30.9961 60.8581 31.2521C60.4955 31.5081 60.0688 31.6361 59.5781 31.6361C59.1408 31.6361 58.8048 31.5454 58.5701 31.3641C58.3461 31.1721 58.2128 30.9054 58.1701 30.5641C58.1275 30.2228 58.1701 29.8334 58.2981 29.3961L60.7781 20.7561C61.0341 20.7454 61.2848 20.7241 61.5301 20.6921C61.7861 20.6601 62.0155 20.6068 62.2181 20.5321L59.5141 30.0521ZM64.8891 31.4121H63.4971L65.4171 24.5481C65.4491 24.4521 65.4758 24.3294 65.4971 24.1801C65.5291 24.0201 65.5291 23.8761 65.4971 23.7481C65.4651 23.6201 65.3638 23.5561 65.1931 23.5561C64.9585 23.5561 64.7451 23.6788 64.5531 23.9241C64.3611 24.1694 64.1585 24.5908 63.9451 25.1881L63.7371 25.7801H63.4331L63.8331 24.6121C63.9931 24.1641 64.1798 23.8228 64.3931 23.5881C64.6171 23.3534 64.8465 23.1934 65.0811 23.1081C65.3265 23.0121 65.5558 22.9641 65.7691 22.9641C66.0891 22.9641 66.3185 23.0388 66.4571 23.1881C66.5958 23.3268 66.6705 23.5134 66.6811 23.7481C66.7025 23.9721 66.6865 24.2121 66.6331 24.4681C66.5798 24.7241 66.5211 24.9694 66.4571 25.2041L64.8891 31.4121ZM69.4171 24.8201C69.4918 24.5961 69.5398 24.3828 69.5611 24.1801C69.5931 23.9774 69.5771 23.8121 69.5131 23.6841C69.4598 23.5454 69.3318 23.4761 69.1291 23.4761C68.8305 23.4761 68.4998 23.6628 68.1371 24.0361C67.7851 24.3988 67.4225 24.9108 67.0491 25.5721C66.6865 26.2228 66.3345 26.9854 65.9931 27.8601C65.6518 28.7241 65.3478 29.6521 65.0811 30.6441L65.6091 28.0841C66.0998 26.8041 66.5585 25.7908 66.9851 25.0441C67.4118 24.2974 67.8385 23.7641 68.2651 23.4441C68.7025 23.1241 69.1665 22.9641 69.6571 22.9641C69.9985 22.9641 70.2438 23.0441 70.3931 23.2041C70.5531 23.3534 70.6491 23.5508 70.6811 23.7961C70.7131 24.0414 70.7025 24.3028 70.6491 24.5801C70.6065 24.8574 70.5531 25.1241 70.4891 25.3801L68.8571 31.4121H67.4171L69.4171 24.8201ZM73.4171 24.8201C73.5238 24.4894 73.5771 24.1854 73.5771 23.9081C73.5771 23.6201 73.4598 23.4761 73.2251 23.4761C72.9051 23.4761 72.5691 23.6628 72.2171 24.0361C71.8651 24.4094 71.5025 24.9428 71.1291 25.6361C70.7558 26.3188 70.3825 27.1241 70.0091 28.0521C69.6465 28.9694 69.2945 29.9828 68.9531 31.0921L69.3211 29.0441C69.7371 27.9348 70.1211 26.9961 70.4731 26.2281C70.8251 25.4494 71.1718 24.8201 71.5131 24.3401C71.8545 23.8601 72.2065 23.5134 72.5691 23.3001C72.9318 23.0761 73.3265 22.9641 73.7531 22.9641C74.2011 22.9641 74.5051 23.0921 74.6651 23.3481C74.8251 23.6041 74.8891 23.9188 74.8571 24.2921C74.8358 24.6548 74.7665 25.0174 74.6491 25.3801L73.0971 30.0521C72.9905 30.3828 72.9531 30.6334 72.9851 30.8041C73.0171 30.9641 73.1398 31.0441 73.3531 31.0441C73.5558 31.0441 73.7531 30.9321 73.9451 30.7081C74.1478 30.4841 74.3611 30.0521 74.5851 29.4121L74.7931 28.8201H75.0971L74.6971 29.9881C74.5478 30.4361 74.3611 30.7774 74.1371 31.0121C73.9238 31.2468 73.6945 31.4068 73.4491 31.4921C73.2145 31.5881 72.9851 31.6361 72.7611 31.6361C72.4945 31.6361 72.2811 31.5934 72.1211 31.5081C71.9718 31.4334 71.8545 31.3321 71.7691 31.2041C71.6411 31.0014 71.5985 30.7508 71.6411 30.4521C71.6838 30.1428 71.7691 29.7908 71.8971 29.3961L73.4171 24.8201ZM78.0026 31.1241C78.2586 31.1241 78.552 30.9641 78.8826 30.6441C79.2133 30.3134 79.5493 29.8708 79.8906 29.3161C80.232 28.7614 80.5466 28.1321 80.8346 27.4281C81.1226 26.7241 81.352 25.9934 81.5226 25.2361L81.2506 26.9641C80.8453 28.0948 80.44 29.0068 80.0346 29.7001C79.6293 30.3828 79.2186 30.8788 78.8026 31.1881C78.3866 31.4868 77.9653 31.6361 77.5386 31.6361C77.0373 31.6361 76.6586 31.4548 76.4026 31.0921C76.1573 30.7294 76.0346 30.2654 76.0346 29.7001C76.0346 29.1881 76.12 28.6334 76.2906 28.0361C76.4613 27.4281 76.696 26.8254 76.9946 26.2281C77.304 25.6308 77.656 25.0868 78.0506 24.5961C78.4453 24.1054 78.872 23.7108 79.3306 23.4121C79.8 23.1134 80.2746 22.9641 80.7546 22.9641C81.128 22.9641 81.4106 23.1508 81.6026 23.5241C81.8053 23.8868 81.848 24.3988 81.7306 25.0601L81.5546 25.1561C81.6293 24.5908 81.592 24.1374 81.4426 23.7961C81.2933 23.4441 81.048 23.2681 80.7066 23.2681C80.4293 23.2681 80.136 23.4068 79.8266 23.6841C79.528 23.9508 79.2346 24.3188 78.9466 24.7881C78.6693 25.2468 78.4133 25.7641 78.1786 26.3401C77.9546 26.9161 77.7733 27.5134 77.6346 28.1321C77.5066 28.7401 77.4426 29.3268 77.4426 29.8921C77.4426 30.3508 77.4906 30.6708 77.5866 30.8521C77.6933 31.0334 77.832 31.1241 78.0026 31.1241ZM82.0346 23.1881C82.2906 23.1774 82.5466 23.1561 82.8026 23.1241C83.0586 23.0921 83.2933 23.0388 83.5066 22.9641L81.5066 30.0361C81.4853 30.1321 81.4533 30.2601 81.4106 30.4201C81.3786 30.5694 81.3786 30.7081 81.4106 30.8361C81.4533 30.9641 81.5653 31.0281 81.7466 31.0281C81.96 31.0281 82.168 30.9108 82.3706 30.6761C82.5733 30.4414 82.776 30.0148 82.9786 29.3961L83.1706 28.8041H83.4746L83.0746 29.9721C82.9253 30.3988 82.744 30.7348 82.5306 30.9801C82.328 31.2148 82.1146 31.3801 81.8906 31.4761C81.6666 31.5828 81.448 31.6361 81.2346 31.6361C80.8186 31.6361 80.5253 31.4974 80.3546 31.2201C80.216 30.9748 80.1786 30.6921 80.2426 30.3721C80.3066 30.0414 80.3813 29.7108 80.4666 29.3801L82.0346 23.1881ZM85.2096 31.1721C85.295 31.2148 85.3856 31.2521 85.4816 31.2841C85.5883 31.3054 85.743 31.3161 85.9456 31.3161C86.415 31.3161 86.799 31.1774 87.0976 30.9001C87.407 30.6121 87.5616 30.2014 87.5616 29.6681C87.5616 29.3374 87.4976 29.0121 87.3696 28.6921C87.2523 28.3614 87.039 27.9828 86.7296 27.5561C86.4843 27.2148 86.2496 26.8681 86.0256 26.5161C85.8016 26.1534 85.6896 25.7268 85.6896 25.2361C85.6896 24.7774 85.8016 24.3828 86.0256 24.0521C86.2496 23.7108 86.5483 23.4441 86.9216 23.2521C87.3056 23.0601 87.7216 22.9641 88.1696 22.9641C88.479 22.9641 88.783 23.0014 89.0816 23.0761C89.3803 23.1508 89.6256 23.2894 89.8176 23.4921C90.0203 23.6841 90.1216 23.9721 90.1216 24.3561C90.1216 24.4521 90.095 24.5694 90.0416 24.7081C89.999 24.8361 89.9243 24.9481 89.8176 25.0441C89.711 25.1401 89.567 25.1881 89.3856 25.1881C89.215 25.1881 89.0656 25.1294 88.9376 25.0121C88.8096 24.8841 88.7456 24.7188 88.7456 24.5161C88.7456 24.3241 88.783 24.1428 88.8576 23.9721C88.943 23.7908 89.055 23.6148 89.1936 23.4441C88.991 23.3161 88.7243 23.2521 88.3936 23.2521C87.999 23.2521 87.6683 23.3854 87.4016 23.6521C87.135 23.9188 87.0016 24.2921 87.0016 24.7721C87.0016 25.0174 87.039 25.2361 87.1136 25.4281C87.1883 25.6094 87.295 25.8014 87.4336 26.0041C87.583 26.2068 87.759 26.4628 87.9616 26.7721C88.2283 27.1774 88.4523 27.5668 88.6336 27.9401C88.815 28.3134 88.9056 28.7081 88.9056 29.1241C88.9056 29.6148 88.7776 30.0521 88.5216 30.4361C88.2763 30.8094 87.9456 31.1028 87.5296 31.3161C87.1136 31.5294 86.655 31.6361 86.1536 31.6361C85.791 31.6361 85.4443 31.5828 85.1136 31.4761C84.783 31.3694 84.511 31.2041 84.2976 30.9801C84.095 30.7454 83.9936 30.4361 83.9936 30.0521C83.9936 29.9028 84.0416 29.7481 84.1376 29.5881C84.223 29.4174 84.383 29.3321 84.6176 29.3321C84.8736 29.3321 85.055 29.4388 85.1616 29.6521C85.2683 29.8548 85.3216 30.0841 85.3216 30.3401C85.3216 30.5108 85.3056 30.6654 85.2736 30.8041C85.2523 30.9321 85.231 31.0548 85.2096 31.1721ZM96.3594 23.1881L96.3114 23.5081H91.3354L91.4154 23.1881H96.3594ZM92.2954 30.0521C92.1994 30.4041 92.2207 30.6601 92.3594 30.8201C92.5087 30.9694 92.7007 31.0441 92.9354 31.0441C93.17 31.0441 93.4047 30.9428 93.6394 30.7401C93.8847 30.5374 94.1247 30.1054 94.3594 29.4441L94.5834 28.8201H94.8874L94.5514 29.8281C94.3167 30.5214 94.0127 30.9961 93.6394 31.2521C93.2767 31.5081 92.85 31.6361 92.3594 31.6361C91.922 31.6361 91.586 31.5454 91.3514 31.3641C91.1274 31.1721 90.994 30.9054 90.9514 30.5641C90.9087 30.2228 90.9514 29.8334 91.0794 29.3961L93.5594 20.7561C93.8154 20.7454 94.066 20.7241 94.3114 20.6921C94.5674 20.6601 94.7967 20.6068 94.9994 20.5321L92.2954 30.0521ZM97.0784 27.7801C97.6757 27.5774 98.2144 27.3801 98.6944 27.1881C99.185 26.9854 99.5744 26.7721 99.8624 26.5481C100.246 26.2388 100.55 25.8654 100.774 25.4281C100.998 24.9908 101.11 24.5108 101.11 23.9881C101.11 23.6788 101.089 23.4814 101.046 23.3961C101.004 23.3108 100.94 23.2681 100.854 23.2681C100.588 23.2681 100.3 23.3854 99.9904 23.6201C99.681 23.8548 99.377 24.1801 99.0784 24.5961C98.7797 25.0014 98.5024 25.4654 98.2464 25.9881C98.001 26.5108 97.8037 27.0708 97.6544 27.6681C97.505 28.2548 97.4304 28.8414 97.4304 29.4281C97.4304 29.9721 97.5317 30.3668 97.7344 30.6121C97.937 30.8468 98.2037 30.9641 98.5344 30.9641C98.9184 30.9641 99.3237 30.8468 99.7504 30.6121C100.177 30.3774 100.593 29.9614 100.998 29.3641L101.254 29.4921C101.052 29.8441 100.785 30.1854 100.454 30.5161C100.124 30.8468 99.7504 31.1188 99.3344 31.3321C98.929 31.5348 98.497 31.6361 98.0384 31.6361C97.6117 31.6361 97.2384 31.5508 96.9184 31.3801C96.5984 31.2094 96.353 30.9588 96.1824 30.6281C96.0117 30.2868 95.9264 29.8708 95.9264 29.3801C95.9264 28.9214 96.0117 28.4094 96.1824 27.8441C96.353 27.2681 96.593 26.6974 96.9024 26.1321C97.2224 25.5561 97.601 25.0281 98.0384 24.5481C98.4757 24.0681 98.961 23.6841 99.4944 23.3961C100.028 23.1081 100.598 22.9641 101.206 22.9641C101.537 22.9641 101.814 23.0548 102.038 23.2361C102.273 23.4068 102.39 23.6681 102.39 24.0201C102.39 24.4468 102.262 24.8468 102.006 25.2201C101.761 25.5828 101.43 25.9188 101.014 26.2281C100.609 26.5268 100.166 26.7934 99.6864 27.0281C99.2064 27.2628 98.737 27.4654 98.2784 27.6361C97.8197 27.8068 97.4144 27.9454 97.0624 28.0521L97.0784 27.7801ZM104.53 31.4121H103.138L105.058 24.5481C105.164 24.1854 105.196 23.9294 105.154 23.7801C105.122 23.6308 105.015 23.5561 104.834 23.5561C104.599 23.5561 104.386 23.6788 104.194 23.9241C104.002 24.1694 103.799 24.5908 103.586 25.1881L103.378 25.7801H103.074L103.474 24.6121C103.634 24.1641 103.82 23.8228 104.034 23.5881C104.258 23.3534 104.487 23.1934 104.722 23.1081C104.967 23.0121 105.196 22.9641 105.41 22.9641C105.73 22.9641 105.954 23.0334 106.082 23.1721C106.22 23.3108 106.295 23.4921 106.306 23.7161C106.327 23.9401 106.311 24.1854 106.258 24.4521C106.215 24.7081 106.162 24.9588 106.098 25.2041L104.53 31.4121ZM108.642 23.3641C108.396 23.3641 108.14 23.4814 107.874 23.7161C107.618 23.9401 107.351 24.2708 107.074 24.7081C106.807 25.1348 106.535 25.6521 106.258 26.2601C105.991 26.8574 105.724 27.5241 105.458 28.2601C105.202 28.9961 104.951 29.7908 104.706 30.6441L105.106 28.5961C105.458 27.5508 105.783 26.6708 106.082 25.9561C106.391 25.2414 106.695 24.6654 106.994 24.2281C107.292 23.7801 107.596 23.4601 107.906 23.2681C108.226 23.0654 108.562 22.9641 108.914 22.9641C109.212 22.9641 109.442 23.0494 109.602 23.2201C109.772 23.3908 109.858 23.6094 109.858 23.8761C109.858 24.0894 109.804 24.2868 109.698 24.4681C109.591 24.6388 109.452 24.7774 109.282 24.8841C109.122 24.9801 108.94 25.0281 108.738 25.0281C108.556 25.0281 108.402 24.9801 108.274 24.8841C108.156 24.7774 108.098 24.6334 108.098 24.4521C108.098 24.2814 108.13 24.1321 108.194 24.0041C108.258 23.8654 108.343 23.7481 108.45 23.6521C108.556 23.5561 108.679 23.4814 108.818 23.4281C108.796 23.4068 108.77 23.3908 108.738 23.3801C108.716 23.3694 108.684 23.3641 108.642 23.3641Z" fill="#2B2B2B"/>
</svg>
