<svg width="336" height="100" viewBox="0 0 336 100" fill="none" xmlns="http://www.w3.org/2000/svg">
<path d="M260.509 31H77.4204C77.4204 36.3906 73.9333 38.4362 71.5 40.7031V89.2188C72.9194 92.3096 77.398 93.2361 76.9292 100H260.619C258.973 94.3447 259.928 92.6761 263.32 88.1406V40.7031C259.63 37.1809 258.141 35.3125 260.509 31Z" fill="#E9C46A"/>
<path d="M255.911 35.3125H81.8643C81.8643 40.0293 78.5495 41.8192 76.2363 43.8028V86.254C77.5856 88.9584 81.8431 89.7692 81.3974 95.6875H256.016C254.451 90.7392 255.359 89.2791 258.584 85.3106V43.8028C255.076 40.7209 253.66 39.086 255.911 35.3125Z" stroke="#2B2B2B" stroke-width="0.2"/>
<rect x="238.659" y="80.5937" width="0.947259" height="4.3125" fill="#2B2B2B"/>
<rect x="238.659" y="89.2187" width="0.947259" height="4.3125" fill="#2B2B2B"/>
<rect x="238.659" y="71.9687" width="0.947259" height="4.3125" fill="#2B2B2B"/>
<rect x="238.659" y="63.3438" width="0.947259" height="4.3125" fill="#2B2B2B"/>
<rect x="238.659" y="54.7187" width="0.947259" height="4.3125" fill="#2B2B2B"/>
<rect x="238.659" y="46.0938" width="0.947259" height="4.3125" fill="#2B2B2B"/>
<rect x="238.659" y="37.4688" width="0.947259" height="4.3125" fill="#2B2B2B"/>
<path d="M91.2626 68.184L91.3826 67.704H92.4626C93.6466 67.704 94.6466 67.544 95.4626 67.224C96.2786 66.888 96.9346 66.424 97.4306 65.832C97.9266 65.24 98.2866 64.56 98.5106 63.792C98.7346 63.008 98.8466 62.168 98.8466 61.272C98.8466 60.328 98.6066 59.632 98.1266 59.184C97.6626 58.72 96.8866 58.488 95.7986 58.488C95.3346 58.488 94.9586 58.552 94.6706 58.68C94.3986 58.792 94.1746 59 93.9986 59.304C93.8386 59.592 93.6866 60.008 93.5426 60.552L90.3746 72.456C90.2466 72.952 90.1746 73.352 90.1586 73.656C90.1426 73.944 90.2466 74.16 90.4706 74.304C90.7106 74.432 91.1506 74.504 91.7906 74.52L91.6946 75C91.3266 74.968 90.8786 74.952 90.3506 74.952C89.8226 74.936 89.2786 74.928 88.7186 74.928C88.0946 74.928 87.5026 74.936 86.9426 74.952C86.3826 74.952 85.9346 74.968 85.5986 75L85.6946 74.52C86.2386 74.488 86.6626 74.424 86.9666 74.328C87.2706 74.232 87.5106 74.04 87.6866 73.752C87.8626 73.464 88.0226 73.032 88.1666 72.456L91.3346 60.552C91.4786 60.04 91.5426 59.64 91.5266 59.352C91.5266 59.048 91.4066 58.832 91.1666 58.704C90.9266 58.56 90.5106 58.488 89.9186 58.488L90.0386 58.008C90.3586 58.024 90.7986 58.04 91.3586 58.056C91.9186 58.072 92.4626 58.08 92.9906 58.08C93.5666 58.08 94.1426 58.072 94.7186 58.056C95.3106 58.04 95.9026 58.032 96.4946 58.032C98.1106 58.032 99.3106 58.368 100.095 59.04C100.879 59.696 101.271 60.568 101.271 61.656C101.271 62.904 100.887 64.024 100.119 65.016C99.3666 65.992 98.3106 66.768 96.9506 67.344C95.5906 67.904 94.0146 68.184 92.2226 68.184H91.2626ZM110.051 66.696C109.475 68.296 108.923 69.648 108.395 70.752C107.867 71.856 107.339 72.744 106.811 73.416C106.299 74.088 105.771 74.576 105.227 74.88C104.699 75.184 104.147 75.336 103.571 75.336C102.867 75.336 102.355 75.176 102.035 74.856C101.715 74.536 101.555 74.104 101.555 73.56C101.555 73.016 101.667 72.4 101.891 71.712L104.219 64.704C104.379 64.224 104.435 63.856 104.387 63.6C104.339 63.344 104.155 63.216 103.835 63.216C103.531 63.216 103.227 63.384 102.923 63.72C102.635 64.056 102.323 64.704 101.987 65.664L101.675 66.552H101.219L101.819 64.8C102.059 64.128 102.339 63.616 102.659 63.264C102.995 62.912 103.339 62.672 103.691 62.544C104.059 62.4 104.403 62.328 104.723 62.328C105.427 62.328 105.891 62.496 106.115 62.832C106.355 63.152 106.443 63.568 106.379 64.08C106.331 64.592 106.211 65.128 106.019 65.688L103.739 72.552C103.291 73.896 103.467 74.568 104.267 74.568C104.651 74.568 105.059 74.4 105.491 74.064C105.923 73.712 106.363 73.216 106.811 72.576C107.259 71.92 107.699 71.144 108.131 70.248C108.579 69.336 109.003 68.328 109.403 67.224C109.819 66.104 110.195 64.904 110.531 63.624L110.051 66.696ZM109.979 72.96C109.867 73.392 109.811 73.752 109.811 74.04C109.827 74.312 109.995 74.448 110.315 74.448C110.667 74.448 110.987 74.264 111.275 73.896C111.579 73.512 111.883 72.88 112.187 72L112.499 71.112H112.955L112.355 72.864C112.131 73.536 111.851 74.048 111.515 74.4C111.195 74.752 110.851 74.992 110.483 75.12C110.131 75.264 109.787 75.336 109.451 75.336C109.195 75.336 108.955 75.28 108.731 75.168C108.507 75.056 108.339 74.896 108.227 74.688C108.099 74.416 108.051 74.072 108.083 73.656C108.131 73.24 108.243 72.68 108.419 71.976L110.771 62.664C111.171 62.648 111.555 62.616 111.923 62.568C112.307 62.52 112.651 62.44 112.955 62.328L109.979 72.96ZM123.261 63.096C122.845 63.096 122.373 63.392 121.845 63.984C121.333 64.56 120.805 65.352 120.261 66.36C119.733 67.352 119.229 68.472 118.749 69.72C118.285 70.968 117.893 72.264 117.573 73.608L118.005 71.016C118.693 68.92 119.357 67.24 119.997 65.976C120.637 64.696 121.277 63.768 121.917 63.192C122.573 62.616 123.253 62.328 123.957 62.328C124.709 62.328 125.309 62.608 125.757 63.168C126.221 63.728 126.453 64.576 126.453 65.712C126.453 66.432 126.349 67.224 126.141 68.088C125.949 68.952 125.653 69.808 125.253 70.656C124.869 71.504 124.389 72.288 123.813 73.008C123.253 73.712 122.605 74.28 121.869 74.712C121.133 75.128 120.317 75.336 119.421 75.336C118.941 75.336 118.509 75.192 118.125 74.904C117.757 74.616 117.509 74.2 117.381 73.656L117.573 73.176C117.797 73.768 118.053 74.184 118.341 74.424C118.645 74.664 118.997 74.784 119.397 74.784C119.941 74.784 120.461 74.576 120.957 74.16C121.453 73.728 121.909 73.16 122.325 72.456C122.741 71.752 123.101 70.976 123.405 70.128C123.725 69.264 123.965 68.408 124.125 67.56C124.301 66.696 124.389 65.904 124.389 65.184C124.389 64.48 124.285 63.96 124.077 63.624C123.885 63.272 123.613 63.096 123.261 63.096ZM119.661 58.992C120.045 58.976 120.421 58.944 120.789 58.896C121.173 58.848 121.525 58.768 121.845 58.656L116.565 77.112C116.373 77.784 116.469 78.24 116.853 78.48C117.237 78.72 117.789 78.84 118.509 78.84L118.365 79.344C118.045 79.328 117.589 79.304 116.997 79.272C116.421 79.256 115.805 79.248 115.149 79.248C114.653 79.248 114.149 79.256 113.637 79.272C113.125 79.304 112.741 79.328 112.485 79.344L112.629 78.84C113.205 78.84 113.621 78.728 113.877 78.504C114.133 78.296 114.341 77.912 114.501 77.352L119.661 58.992ZM114.669 66.432C115.293 65.824 115.877 65.224 116.421 64.632C116.965 64.024 117.493 63.304 118.005 62.472C118.517 61.64 119.037 60.592 119.565 59.328L119.637 59.712C119.285 60.8 118.861 61.76 118.365 62.592C117.885 63.408 117.357 64.152 116.781 64.824C116.205 65.48 115.589 66.12 114.933 66.744L114.669 66.432ZM136.479 63.096C136.063 63.096 135.591 63.392 135.063 63.984C134.551 64.56 134.023 65.352 133.479 66.36C132.951 67.352 132.447 68.472 131.967 69.72C131.503 70.968 131.111 72.264 130.791 73.608L131.223 71.016C131.911 68.92 132.575 67.24 133.215 65.976C133.855 64.696 134.495 63.768 135.135 63.192C135.791 62.616 136.471 62.328 137.175 62.328C137.927 62.328 138.527 62.608 138.975 63.168C139.439 63.728 139.671 64.576 139.671 65.712C139.671 66.432 139.567 67.224 139.359 68.088C139.167 68.952 138.871 69.808 138.471 70.656C138.087 71.504 137.607 72.288 137.031 73.008C136.471 73.712 135.823 74.28 135.087 74.712C134.351 75.128 133.535 75.336 132.639 75.336C132.159 75.336 131.727 75.192 131.343 74.904C130.975 74.616 130.727 74.2 130.599 73.656L130.791 73.176C131.015 73.768 131.271 74.184 131.559 74.424C131.863 74.664 132.215 74.784 132.615 74.784C133.159 74.784 133.679 74.576 134.175 74.16C134.671 73.728 135.127 73.16 135.543 72.456C135.959 71.752 136.319 70.976 136.623 70.128C136.943 69.264 137.183 68.408 137.343 67.56C137.519 66.696 137.607 65.904 137.607 65.184C137.607 64.48 137.503 63.96 137.295 63.624C137.103 63.272 136.831 63.096 136.479 63.096ZM132.879 58.992C133.263 58.976 133.639 58.944 134.007 58.896C134.391 58.848 134.743 58.768 135.063 58.656L129.783 77.112C129.591 77.784 129.687 78.24 130.071 78.48C130.455 78.72 131.007 78.84 131.727 78.84L131.583 79.344C131.263 79.328 130.807 79.304 130.215 79.272C129.639 79.256 129.023 79.248 128.367 79.248C127.871 79.248 127.367 79.256 126.855 79.272C126.343 79.304 125.959 79.328 125.703 79.344L125.847 78.84C126.423 78.84 126.839 78.728 127.095 78.504C127.351 78.296 127.559 77.912 127.719 77.352L132.879 58.992ZM127.887 66.432C128.511 65.824 129.095 65.224 129.639 64.632C130.183 64.024 130.711 63.304 131.223 62.472C131.735 61.64 132.255 60.592 132.783 59.328L132.855 59.712C132.503 60.8 132.079 61.76 131.583 62.592C131.103 63.408 130.575 64.152 129.999 64.824C129.423 65.48 128.807 66.12 128.151 66.744L127.887 66.432ZM142.594 69.552C143.49 69.248 144.298 68.952 145.018 68.664C145.754 68.36 146.338 68.04 146.77 67.704C147.346 67.24 147.802 66.68 148.138 66.024C148.474 65.368 148.642 64.648 148.642 63.864C148.642 63.4 148.61 63.104 148.546 62.976C148.482 62.848 148.386 62.784 148.258 62.784C147.858 62.784 147.426 62.96 146.962 63.312C146.498 63.664 146.042 64.152 145.594 64.776C145.146 65.384 144.73 66.08 144.346 66.864C143.978 67.648 143.682 68.488 143.458 69.384C143.234 70.264 143.122 71.144 143.122 72.024C143.122 72.84 143.274 73.432 143.578 73.8C143.882 74.152 144.282 74.328 144.778 74.328C145.354 74.328 145.962 74.152 146.602 73.8C147.242 73.448 147.866 72.824 148.474 71.928L148.858 72.12C148.554 72.648 148.154 73.16 147.658 73.656C147.162 74.152 146.602 74.56 145.978 74.88C145.37 75.184 144.722 75.336 144.034 75.336C143.394 75.336 142.834 75.208 142.354 74.952C141.874 74.696 141.506 74.32 141.25 73.824C140.994 73.312 140.866 72.688 140.866 71.952C140.866 71.264 140.994 70.496 141.25 69.648C141.506 68.784 141.866 67.928 142.33 67.08C142.81 66.216 143.378 65.424 144.034 64.704C144.69 63.984 145.418 63.408 146.218 62.976C147.018 62.544 147.874 62.328 148.786 62.328C149.282 62.328 149.698 62.464 150.034 62.736C150.386 62.992 150.562 63.384 150.562 63.912C150.562 64.552 150.37 65.152 149.986 65.712C149.618 66.256 149.122 66.76 148.498 67.224C147.89 67.672 147.226 68.072 146.506 68.424C145.786 68.776 145.082 69.08 144.394 69.336C143.706 69.592 143.098 69.8 142.57 69.96L142.594 69.552ZM159.867 62.664L159.795 63.144H152.331L152.451 62.664H159.867ZM153.771 72.96C153.627 73.488 153.659 73.872 153.867 74.112C154.091 74.336 154.379 74.448 154.731 74.448C155.083 74.448 155.435 74.296 155.787 73.992C156.155 73.688 156.515 73.04 156.867 72.048L157.203 71.112H157.659L157.155 72.624C156.803 73.664 156.347 74.376 155.787 74.76C155.243 75.144 154.603 75.336 153.867 75.336C153.211 75.336 152.707 75.2 152.355 74.928C152.019 74.64 151.819 74.24 151.755 73.728C151.691 73.216 151.755 72.632 151.947 71.976L155.667 59.016C156.051 59 156.427 58.968 156.795 58.92C157.179 58.872 157.523 58.792 157.827 58.68L153.771 72.96ZM161.834 75H159.746L162.626 64.704C162.674 64.56 162.714 64.376 162.746 64.152C162.794 63.912 162.794 63.696 162.746 63.504C162.698 63.312 162.546 63.216 162.29 63.216C161.938 63.216 161.618 63.4 161.33 63.768C161.042 64.136 160.738 64.768 160.418 65.664L160.106 66.552H159.65L160.25 64.8C160.49 64.128 160.77 63.616 161.09 63.264C161.426 62.912 161.77 62.672 162.122 62.544C162.49 62.4 162.834 62.328 163.154 62.328C163.634 62.328 163.978 62.44 164.186 62.664C164.394 62.872 164.506 63.152 164.522 63.504C164.554 63.84 164.53 64.2 164.45 64.584C164.37 64.968 164.282 65.336 164.186 65.688L161.834 75ZM168.626 65.112C168.738 64.776 168.81 64.456 168.842 64.152C168.89 63.848 168.866 63.6 168.77 63.408C168.69 63.2 168.498 63.096 168.194 63.096C167.746 63.096 167.25 63.376 166.706 63.936C166.178 64.48 165.634 65.248 165.074 66.24C164.53 67.216 164.002 68.36 163.49 69.672C162.978 70.968 162.522 72.36 162.122 73.848L162.914 70.008C163.65 68.088 164.338 66.568 164.978 65.448C165.618 64.328 166.258 63.528 166.898 63.048C167.554 62.568 168.25 62.328 168.986 62.328C169.498 62.328 169.866 62.448 170.09 62.688C170.33 62.912 170.474 63.208 170.522 63.576C170.57 63.944 170.554 64.336 170.474 64.752C170.41 65.168 170.33 65.568 170.234 65.952L167.786 75H165.626L168.626 65.112ZM174.626 65.112C174.786 64.616 174.866 64.16 174.866 63.744C174.866 63.312 174.69 63.096 174.338 63.096C173.858 63.096 173.354 63.376 172.826 63.936C172.298 64.496 171.754 65.296 171.194 66.336C170.634 67.36 170.074 68.568 169.514 69.96C168.97 71.336 168.442 72.856 167.93 74.52L168.482 71.448C169.106 69.784 169.682 68.376 170.21 67.224C170.738 66.056 171.258 65.112 171.77 64.392C172.282 63.672 172.81 63.152 173.354 62.832C173.898 62.496 174.49 62.328 175.13 62.328C175.802 62.328 176.258 62.52 176.498 62.904C176.738 63.288 176.834 63.76 176.786 64.32C176.754 64.864 176.65 65.408 176.474 65.952L174.146 72.96C173.986 73.456 173.93 73.832 173.978 74.088C174.026 74.328 174.21 74.448 174.53 74.448C174.834 74.448 175.13 74.28 175.418 73.944C175.722 73.608 176.042 72.96 176.378 72L176.69 71.112H177.146L176.546 72.864C176.322 73.536 176.042 74.048 175.706 74.4C175.386 74.752 175.042 74.992 174.674 75.12C174.322 75.264 173.978 75.336 173.642 75.336C173.242 75.336 172.922 75.272 172.682 75.144C172.458 75.032 172.282 74.88 172.154 74.688C171.962 74.384 171.898 74.008 171.962 73.56C172.026 73.096 172.154 72.568 172.346 71.976L174.626 65.112ZM181.504 74.568C181.888 74.568 182.328 74.328 182.824 73.848C183.32 73.352 183.824 72.688 184.336 71.856C184.848 71.024 185.32 70.08 185.752 69.024C186.184 67.968 186.528 66.872 186.784 65.736L186.376 68.328C185.768 70.024 185.16 71.392 184.552 72.432C183.944 73.456 183.328 74.2 182.704 74.664C182.08 75.112 181.448 75.336 180.808 75.336C180.056 75.336 179.488 75.064 179.104 74.52C178.736 73.976 178.552 73.28 178.552 72.432C178.552 71.664 178.68 70.832 178.936 69.936C179.192 69.024 179.544 68.12 179.992 67.224C180.456 66.328 180.984 65.512 181.576 64.776C182.168 64.04 182.808 63.448 183.496 63C184.2 62.552 184.912 62.328 185.632 62.328C186.192 62.328 186.616 62.608 186.904 63.168C187.208 63.712 187.272 64.48 187.096 65.472L186.832 65.616C186.944 64.768 186.888 64.088 186.664 63.576C186.44 63.048 186.072 62.784 185.56 62.784C185.144 62.784 184.704 62.992 184.24 63.408C183.792 63.808 183.352 64.36 182.92 65.064C182.504 65.752 182.12 66.528 181.768 67.392C181.432 68.256 181.16 69.152 180.952 70.08C180.76 70.992 180.664 71.872 180.664 72.72C180.664 73.408 180.736 73.888 180.88 74.16C181.04 74.432 181.248 74.568 181.504 74.568ZM187.552 62.664C187.936 62.648 188.32 62.616 188.704 62.568C189.088 62.52 189.44 62.44 189.76 62.328L186.76 72.936C186.728 73.08 186.68 73.272 186.616 73.512C186.568 73.736 186.568 73.944 186.616 74.136C186.68 74.328 186.848 74.424 187.12 74.424C187.44 74.424 187.752 74.248 188.056 73.896C188.36 73.544 188.664 72.904 188.968 71.976L189.256 71.088H189.712L189.112 72.84C188.888 73.48 188.616 73.984 188.296 74.352C187.992 74.704 187.672 74.952 187.336 75.096C187 75.256 186.672 75.336 186.352 75.336C185.728 75.336 185.288 75.128 185.032 74.712C184.824 74.344 184.768 73.92 184.864 73.44C184.96 72.944 185.072 72.448 185.2 71.952L187.552 62.664ZM192.314 74.64C192.442 74.704 192.578 74.76 192.722 74.808C192.882 74.84 193.114 74.856 193.418 74.856C194.122 74.856 194.698 74.648 195.146 74.232C195.61 73.8 195.842 73.184 195.842 72.384C195.842 71.888 195.746 71.4 195.554 70.92C195.378 70.424 195.058 69.856 194.594 69.216C194.226 68.704 193.874 68.184 193.538 67.656C193.202 67.112 193.034 66.472 193.034 65.736C193.034 65.048 193.202 64.456 193.538 63.96C193.874 63.448 194.322 63.048 194.882 62.76C195.458 62.472 196.082 62.328 196.754 62.328C197.218 62.328 197.674 62.384 198.122 62.496C198.57 62.608 198.938 62.816 199.226 63.12C199.53 63.408 199.682 63.84 199.682 64.416C199.682 64.56 199.642 64.736 199.562 64.944C199.498 65.136 199.386 65.304 199.226 65.448C199.066 65.592 198.85 65.664 198.578 65.664C198.322 65.664 198.098 65.576 197.906 65.4C197.714 65.208 197.618 64.96 197.618 64.656C197.618 64.368 197.674 64.096 197.786 63.84C197.914 63.568 198.082 63.304 198.29 63.048C197.986 62.856 197.586 62.76 197.09 62.76C196.498 62.76 196.002 62.96 195.602 63.36C195.202 63.76 195.002 64.32 195.002 65.04C195.002 65.408 195.058 65.736 195.17 66.024C195.282 66.296 195.442 66.584 195.65 66.888C195.874 67.192 196.138 67.576 196.442 68.04C196.842 68.648 197.178 69.232 197.45 69.792C197.722 70.352 197.858 70.944 197.858 71.568C197.858 72.304 197.666 72.96 197.282 73.536C196.914 74.096 196.418 74.536 195.794 74.856C195.17 75.176 194.482 75.336 193.73 75.336C193.186 75.336 192.666 75.256 192.17 75.096C191.674 74.936 191.266 74.688 190.946 74.352C190.642 74 190.49 73.536 190.49 72.96C190.49 72.736 190.562 72.504 190.706 72.264C190.834 72.008 191.074 71.88 191.426 71.88C191.81 71.88 192.082 72.04 192.242 72.36C192.402 72.664 192.482 73.008 192.482 73.392C192.482 73.648 192.458 73.88 192.41 74.088C192.378 74.28 192.346 74.464 192.314 74.64ZM209.039 62.664L208.967 63.144H201.503L201.623 62.664H209.039ZM202.943 72.96C202.799 73.488 202.831 73.872 203.039 74.112C203.263 74.336 203.551 74.448 203.903 74.448C204.255 74.448 204.607 74.296 204.959 73.992C205.327 73.688 205.687 73.04 206.039 72.048L206.375 71.112H206.831L206.327 72.624C205.975 73.664 205.519 74.376 204.959 74.76C204.415 75.144 203.775 75.336 203.039 75.336C202.383 75.336 201.879 75.2 201.527 74.928C201.191 74.64 200.991 74.24 200.927 73.728C200.863 73.216 200.927 72.632 201.119 71.976L204.839 59.016C205.223 59 205.599 58.968 205.967 58.92C206.351 58.872 206.695 58.792 206.999 58.68L202.943 72.96ZM210.118 69.552C211.014 69.248 211.822 68.952 212.542 68.664C213.278 68.36 213.862 68.04 214.294 67.704C214.87 67.24 215.326 66.68 215.662 66.024C215.998 65.368 216.166 64.648 216.166 63.864C216.166 63.4 216.134 63.104 216.07 62.976C216.006 62.848 215.91 62.784 215.782 62.784C215.382 62.784 214.95 62.96 214.486 63.312C214.022 63.664 213.566 64.152 213.118 64.776C212.67 65.384 212.254 66.08 211.87 66.864C211.502 67.648 211.206 68.488 210.982 69.384C210.758 70.264 210.646 71.144 210.646 72.024C210.646 72.84 210.798 73.432 211.102 73.8C211.406 74.152 211.806 74.328 212.302 74.328C212.878 74.328 213.486 74.152 214.126 73.8C214.766 73.448 215.39 72.824 215.998 71.928L216.382 72.12C216.078 72.648 215.678 73.16 215.182 73.656C214.686 74.152 214.126 74.56 213.502 74.88C212.894 75.184 212.246 75.336 211.558 75.336C210.918 75.336 210.358 75.208 209.878 74.952C209.398 74.696 209.03 74.32 208.774 73.824C208.518 73.312 208.39 72.688 208.39 71.952C208.39 71.264 208.518 70.496 208.774 69.648C209.03 68.784 209.39 67.928 209.854 67.08C210.334 66.216 210.902 65.424 211.558 64.704C212.214 63.984 212.942 63.408 213.742 62.976C214.542 62.544 215.398 62.328 216.31 62.328C216.806 62.328 217.222 62.464 217.558 62.736C217.91 62.992 218.086 63.384 218.086 63.912C218.086 64.552 217.894 65.152 217.51 65.712C217.142 66.256 216.646 66.76 216.022 67.224C215.414 67.672 214.75 68.072 214.03 68.424C213.31 68.776 212.606 69.08 211.918 69.336C211.23 69.592 210.622 69.8 210.094 69.96L210.118 69.552ZM221.295 75H219.207L222.087 64.704C222.247 64.16 222.295 63.776 222.231 63.552C222.183 63.328 222.023 63.216 221.751 63.216C221.399 63.216 221.079 63.4 220.791 63.768C220.503 64.136 220.199 64.768 219.879 65.664L219.567 66.552H219.111L219.711 64.8C219.951 64.128 220.231 63.616 220.551 63.264C220.887 62.912 221.231 62.672 221.583 62.544C221.951 62.4 222.295 62.328 222.615 62.328C223.095 62.328 223.431 62.432 223.623 62.64C223.831 62.848 223.943 63.12 223.959 63.456C223.991 63.792 223.967 64.16 223.887 64.56C223.823 64.944 223.743 65.32 223.647 65.688L221.295 75ZM227.463 62.928C227.095 62.928 226.711 63.104 226.311 63.456C225.927 63.792 225.527 64.288 225.111 64.944C224.711 65.584 224.303 66.36 223.887 67.272C223.487 68.168 223.087 69.168 222.687 70.272C222.303 71.376 221.927 72.568 221.559 73.848L222.159 70.776C222.687 69.208 223.175 67.888 223.623 66.816C224.087 65.744 224.543 64.88 224.991 64.224C225.439 63.552 225.895 63.072 226.359 62.784C226.839 62.48 227.343 62.328 227.871 62.328C228.319 62.328 228.663 62.456 228.903 62.712C229.159 62.968 229.287 63.296 229.287 63.696C229.287 64.016 229.207 64.312 229.047 64.584C228.887 64.84 228.679 65.048 228.423 65.208C228.183 65.352 227.911 65.424 227.607 65.424C227.335 65.424 227.103 65.352 226.911 65.208C226.735 65.048 226.647 64.832 226.647 64.56C226.647 64.304 226.695 64.08 226.791 63.888C226.887 63.68 227.015 63.504 227.175 63.36C227.335 63.216 227.519 63.104 227.727 63.024C227.695 62.992 227.655 62.968 227.607 62.952C227.575 62.936 227.527 62.928 227.463 62.928Z" fill="#2B2B2B"/>
<path d="M32.105 75.395C30.2796 73.8724 29.3953 72.9528 27.9074 71.1974C26.3323 72.9205 25.4231 73.8438 23.7098 75.395C25.4596 76.9223 26.3694 77.8525 27.9074 79.5926C29.4066 77.8675 30.3338 76.9517 32.105 75.395Z" fill="#EDE0D4"/>
<path d="M303.129 75.395C304.955 73.8724 305.839 72.9528 307.327 71.1974C308.902 72.9205 309.811 73.8438 311.525 75.395C309.775 76.9223 308.865 77.8525 307.327 79.5926C305.828 77.8675 304.901 76.9517 303.129 75.395Z" fill="#EDE0D4"/>
<path d="M76.2344 15.9128C74.3014 14.3006 73.3651 13.3269 71.7895 11.468C70.1217 13.2927 69.159 14.2704 67.3447 15.9128C69.1975 17.5301 70.161 18.5151 71.7895 20.3577C73.3771 18.5311 74.3589 17.5613 76.2344 15.9128Z" fill="#EDE0D4"/>
<path d="M259 15.9128C260.933 14.3006 261.869 13.3269 263.445 11.468C265.113 13.2927 266.075 14.2704 267.89 15.9128C266.037 17.5301 265.073 18.5151 263.445 20.3577C261.857 18.5311 260.875 17.5613 259 15.9128Z" fill="#EDE0D4"/>
<path d="M0 6.43768C2.64134 4.23461 3.92078 2.90397 6.07382 0.363861C8.35288 2.85725 9.66845 4.19325 12.1476 6.43768C9.61574 8.64771 8.29921 9.99362 6.07382 12.5115C3.90443 10.0155 2.56283 8.69026 0 6.43768Z" fill="#EDE0D4"/>
<path d="M335.234 6.43768C332.593 4.23461 331.314 2.90397 329.161 0.363861C326.881 2.85725 325.566 4.19325 323.087 6.43768C325.619 8.64771 326.935 9.99362 329.161 12.5115C331.33 10.0155 332.672 8.69026 335.234 6.43768Z" fill="#EDE0D4"/>
</svg>
