<svg width="336" height="100" viewBox="0 0 336 100" fill="none" xmlns="http://www.w3.org/2000/svg">
<path d="M260.509 31H77.4204C77.4204 36.3906 73.9333 38.4362 71.5 40.7031V89.2188C72.9194 92.3096 77.398 93.2361 76.9292 100H260.619C258.973 94.3447 259.928 92.6761 263.32 88.1406V40.7031C259.63 37.1809 258.141 35.3125 260.509 31Z" fill="#E9C46A"/>
<path d="M255.911 35.3125H81.8643C81.8643 40.0293 78.5495 41.8192 76.2363 43.8028V86.254C77.5856 88.9584 81.8431 89.7692 81.3974 95.6875H256.016C254.451 90.7392 255.359 89.2791 258.584 85.3106V43.8028C255.076 40.7209 253.66 39.086 255.911 35.3125Z" stroke="#2B2B2B" stroke-width="0.2"/>
<rect x="238.659" y="80.5937" width="0.947259" height="4.3125" fill="#2B2B2B"/>
<rect x="238.659" y="89.2187" width="0.947259" height="4.3125" fill="#2B2B2B"/>
<rect x="238.659" y="71.9687" width="0.947259" height="4.3125" fill="#2B2B2B"/>
<rect x="238.659" y="63.3438" width="0.947259" height="4.3125" fill="#2B2B2B"/>
<rect x="238.659" y="54.7187" width="0.947259" height="4.3125" fill="#2B2B2B"/>
<rect x="238.659" y="46.0938" width="0.947259" height="4.3125" fill="#2B2B2B"/>
<rect x="238.659" y="37.4688" width="0.947259" height="4.3125" fill="#2B2B2B"/>
<path d="M105.746 57.84C105.586 58.256 105.37 58.864 105.098 59.664C104.842 60.448 104.586 61.472 104.33 62.736H103.85C103.898 62.512 103.93 62.28 103.946 62.04C103.978 61.8 103.994 61.576 103.994 61.368C103.994 60.776 103.874 60.24 103.634 59.76C103.41 59.264 103.05 58.872 102.554 58.584C102.058 58.28 101.402 58.128 100.586 58.128C99.6259 58.128 98.8259 58.376 98.1859 58.872C97.5459 59.368 97.2259 60.136 97.2259 61.176C97.2259 61.784 97.3699 62.352 97.6579 62.88C97.9619 63.392 98.3379 63.888 98.7859 64.368C99.2499 64.832 99.7379 65.304 100.25 65.784C100.778 66.248 101.266 66.728 101.714 67.224C102.178 67.72 102.554 68.248 102.842 68.808C103.146 69.352 103.298 69.96 103.298 70.632C103.298 71.464 103.114 72.176 102.746 72.768C102.378 73.36 101.898 73.848 101.306 74.232C100.714 74.6 100.058 74.872 99.3379 75.048C98.6339 75.24 97.9299 75.336 97.2259 75.336C96.5859 75.336 96.0499 75.272 95.6179 75.144C95.1859 75.032 94.8259 74.888 94.5379 74.712C94.2499 74.536 94.0099 74.376 93.8179 74.232C93.6419 74.088 93.4739 73.992 93.3139 73.944C93.1699 73.896 93.0499 73.872 92.9539 73.872C92.7459 73.872 92.5699 73.984 92.4259 74.208C92.2979 74.416 92.1459 74.736 91.9699 75.168H91.4899C91.6339 74.816 91.7859 74.408 91.9459 73.944C92.1059 73.48 92.2819 72.888 92.4739 72.168C92.6659 71.432 92.8819 70.512 93.1219 69.408H93.6019C93.5379 69.744 93.4819 70.072 93.4339 70.392C93.3859 70.696 93.3699 71.016 93.3859 71.352C93.4339 72.44 93.7699 73.296 94.3939 73.92C95.0179 74.544 95.9859 74.856 97.2979 74.856C98.3379 74.856 99.1859 74.616 99.8419 74.136C100.498 73.656 100.826 72.896 100.826 71.856C100.826 71.184 100.69 70.584 100.418 70.056C100.162 69.528 99.8179 69.04 99.3859 68.592C98.9699 68.128 98.5219 67.68 98.0419 67.248C97.5779 66.816 97.1299 66.368 96.6979 65.904C96.2819 65.424 95.9379 64.896 95.6659 64.32C95.4099 63.744 95.2819 63.088 95.2819 62.352C95.2819 61.584 95.4339 60.912 95.7379 60.336C96.0419 59.744 96.4419 59.256 96.9379 58.872C97.4499 58.472 98.0179 58.176 98.6419 57.984C99.2659 57.776 99.9059 57.672 100.562 57.672C101.234 57.672 101.81 57.752 102.29 57.912C102.77 58.072 103.234 58.328 103.682 58.68C103.874 58.824 104.034 58.936 104.162 59.016C104.29 59.08 104.394 59.112 104.474 59.112C104.698 59.112 104.962 58.688 105.266 57.84H105.746ZM114.211 62.664L114.139 63.144H106.675L106.795 62.664H114.211ZM108.115 72.96C107.971 73.488 108.003 73.872 108.211 74.112C108.435 74.336 108.723 74.448 109.075 74.448C109.427 74.448 109.779 74.296 110.131 73.992C110.499 73.688 110.859 73.04 111.211 72.048L111.547 71.112H112.003L111.499 72.624C111.147 73.664 110.691 74.376 110.131 74.76C109.587 75.144 108.947 75.336 108.211 75.336C107.555 75.336 107.051 75.2 106.699 74.928C106.363 74.64 106.163 74.24 106.099 73.728C106.035 73.216 106.099 72.632 106.291 71.976L110.011 59.016C110.395 59 110.771 58.968 111.139 58.92C111.523 58.872 111.867 58.792 112.171 58.68L108.115 72.96ZM116.177 75H114.089L116.969 64.704C117.129 64.16 117.177 63.776 117.113 63.552C117.065 63.328 116.905 63.216 116.633 63.216C116.281 63.216 115.961 63.4 115.673 63.768C115.385 64.136 115.081 64.768 114.761 65.664L114.449 66.552H113.993L114.593 64.8C114.833 64.128 115.113 63.616 115.433 63.264C115.769 62.912 116.113 62.672 116.465 62.544C116.833 62.4 117.177 62.328 117.497 62.328C117.977 62.328 118.313 62.432 118.505 62.64C118.713 62.848 118.825 63.12 118.841 63.456C118.873 63.792 118.849 64.16 118.769 64.56C118.705 64.944 118.625 65.32 118.529 65.688L116.177 75ZM122.345 62.928C121.977 62.928 121.593 63.104 121.193 63.456C120.809 63.792 120.409 64.288 119.993 64.944C119.593 65.584 119.185 66.36 118.769 67.272C118.369 68.168 117.969 69.168 117.569 70.272C117.185 71.376 116.809 72.568 116.441 73.848L117.041 70.776C117.569 69.208 118.057 67.888 118.505 66.816C118.969 65.744 119.425 64.88 119.873 64.224C120.321 63.552 120.777 63.072 121.241 62.784C121.721 62.48 122.225 62.328 122.753 62.328C123.201 62.328 123.545 62.456 123.785 62.712C124.041 62.968 124.169 63.296 124.169 63.696C124.169 64.016 124.089 64.312 123.929 64.584C123.769 64.84 123.561 65.048 123.305 65.208C123.065 65.352 122.793 65.424 122.489 65.424C122.217 65.424 121.985 65.352 121.793 65.208C121.617 65.048 121.529 64.832 121.529 64.56C121.529 64.304 121.577 64.08 121.673 63.888C121.769 63.68 121.897 63.504 122.057 63.36C122.217 63.216 122.401 63.104 122.609 63.024C122.577 62.992 122.537 62.968 122.489 62.952C122.457 62.936 122.409 62.928 122.345 62.928ZM128.028 58.296C128.108 57.88 128.316 57.52 128.652 57.216C129.004 56.912 129.38 56.76 129.78 56.76C130.196 56.76 130.516 56.912 130.74 57.216C130.98 57.52 131.06 57.88 130.98 58.296C130.9 58.712 130.684 59.072 130.332 59.376C129.996 59.68 129.62 59.832 129.204 59.832C128.804 59.832 128.484 59.68 128.244 59.376C128.02 59.072 127.948 58.712 128.028 58.296ZM127.284 64.704C127.62 63.712 127.508 63.216 126.948 63.216C126.58 63.216 126.252 63.416 125.964 63.816C125.676 64.216 125.372 64.832 125.052 65.664L124.716 66.552H124.26L124.884 64.8C125.124 64.128 125.412 63.616 125.748 63.264C126.084 62.912 126.436 62.672 126.804 62.544C127.188 62.4 127.54 62.328 127.86 62.328C128.372 62.328 128.748 62.432 128.988 62.64C129.228 62.848 129.372 63.12 129.42 63.456C129.468 63.792 129.452 64.16 129.372 64.56C129.292 64.944 129.188 65.32 129.06 65.688L126.492 72.96C126.332 73.424 126.276 73.792 126.324 74.064C126.388 74.32 126.572 74.448 126.876 74.448C127.196 74.448 127.5 74.272 127.788 73.92C128.076 73.568 128.396 72.928 128.748 72L129.084 71.112H129.54L128.916 72.864C128.692 73.488 128.42 73.984 128.1 74.352C127.78 74.704 127.436 74.952 127.068 75.096C126.7 75.256 126.332 75.336 125.964 75.336C125.276 75.336 124.812 75.176 124.572 74.856C124.332 74.536 124.244 74.12 124.308 73.608C124.372 73.096 124.508 72.552 124.716 71.976L127.284 64.704ZM133.662 75H131.574L134.454 64.704C134.518 64.512 134.566 64.304 134.598 64.08C134.646 63.84 134.638 63.64 134.574 63.48C134.51 63.304 134.35 63.216 134.094 63.216C133.742 63.216 133.43 63.392 133.158 63.744C132.886 64.08 132.582 64.72 132.246 65.664L131.934 66.552H131.478L132.078 64.8C132.43 63.792 132.862 63.128 133.374 62.808C133.902 62.488 134.422 62.328 134.934 62.328C135.414 62.328 135.758 62.432 135.966 62.64C136.19 62.848 136.31 63.12 136.326 63.456C136.358 63.776 136.334 64.136 136.254 64.536C136.19 64.92 136.11 65.304 136.014 65.688L133.662 75ZM134.766 70.008C135.326 68.568 135.87 67.36 136.398 66.384C136.926 65.408 137.446 64.624 137.958 64.032C138.47 63.424 138.99 62.992 139.518 62.736C140.062 62.464 140.622 62.328 141.198 62.328C141.95 62.328 142.462 62.512 142.734 62.88C143.022 63.232 143.15 63.688 143.118 64.248C143.086 64.792 142.974 65.36 142.782 65.952L140.454 72.96C140.31 73.392 140.246 73.752 140.262 74.04C140.294 74.312 140.486 74.448 140.838 74.448C141.142 74.448 141.438 74.28 141.726 73.944C142.03 73.608 142.35 72.96 142.686 72L142.998 71.112H143.454L142.854 72.864C142.63 73.536 142.35 74.048 142.014 74.4C141.694 74.752 141.35 74.992 140.982 75.12C140.63 75.264 140.286 75.336 139.95 75.336C139.566 75.336 139.246 75.272 138.99 75.144C138.75 75.016 138.566 74.848 138.438 74.64C138.262 74.352 138.206 73.976 138.27 73.512C138.334 73.048 138.462 72.536 138.654 71.976L140.934 65.112C141.014 64.888 141.078 64.624 141.126 64.32C141.19 64 141.182 63.72 141.102 63.48C141.022 63.224 140.79 63.096 140.406 63.096C140.022 63.096 139.614 63.264 139.182 63.6C138.75 63.936 138.302 64.416 137.838 65.04C137.374 65.648 136.918 66.384 136.47 67.248C136.022 68.096 135.59 69.04 135.174 70.08C134.774 71.104 134.406 72.2 134.07 73.368L134.766 70.008ZM149.84 69.6L150.44 69.624C149.864 69.944 149.328 70.24 148.832 70.512C148.352 70.768 147.96 71.008 147.656 71.232C147.352 71.456 147.2 71.672 147.2 71.88C147.2 72.04 147.312 72.192 147.536 72.336C147.76 72.464 148.128 72.592 148.64 72.72L150.392 73.176C150.904 73.304 151.36 73.456 151.76 73.632C152.176 73.792 152.504 74 152.744 74.256C152.984 74.512 153.104 74.848 153.104 75.264C153.104 75.664 152.968 76.112 152.696 76.608C152.44 77.12 152.032 77.608 151.472 78.072C150.928 78.536 150.216 78.92 149.336 79.224C148.456 79.528 147.392 79.68 146.144 79.68C145.312 79.68 144.616 79.6 144.056 79.44C143.48 79.296 143.056 79.088 142.784 78.816C142.496 78.544 142.352 78.232 142.352 77.88C142.352 77.624 142.424 77.352 142.568 77.064C142.712 76.792 142.928 76.52 143.216 76.248C143.488 75.992 143.84 75.744 144.272 75.504C144.688 75.28 145.184 75.088 145.76 74.928L145.928 75.288C145.336 75.592 144.928 75.936 144.704 76.32C144.48 76.704 144.368 77.088 144.368 77.472C144.368 78.112 144.592 78.568 145.04 78.84C145.488 79.128 146.04 79.272 146.696 79.272C147.224 79.272 147.768 79.184 148.328 79.008C148.888 78.848 149.408 78.624 149.888 78.336C150.368 78.064 150.752 77.744 151.04 77.376C151.328 77.008 151.472 76.624 151.472 76.224C151.472 75.984 151.392 75.824 151.232 75.744C151.088 75.664 150.84 75.584 150.488 75.504L146.816 74.568C146.432 74.472 146.12 74.312 145.88 74.088C145.64 73.848 145.52 73.528 145.52 73.128C145.52 72.808 145.632 72.48 145.856 72.144C146.08 71.808 146.504 71.44 147.128 71.04C147.752 70.624 148.656 70.144 149.84 69.6ZM151.064 62.76C150.552 62.76 150.12 62.912 149.768 63.216C149.416 63.504 149.12 63.88 148.88 64.344C148.656 64.792 148.48 65.264 148.352 65.76C148.24 66.256 148.16 66.712 148.112 67.128C148.064 67.528 148.04 67.824 148.04 68.016C148.04 68.528 148.152 68.896 148.376 69.12C148.616 69.344 148.928 69.456 149.312 69.456C149.92 69.456 150.408 69.272 150.776 68.904C151.16 68.536 151.456 68.08 151.664 67.536C151.872 66.992 152.008 66.448 152.072 65.904C152.152 65.36 152.192 64.904 152.192 64.536C152.192 63.992 152.12 63.56 151.976 63.24C151.832 62.92 151.528 62.76 151.064 62.76ZM151.16 62.328C152.104 62.328 152.864 62.544 153.44 62.976C154.032 63.392 154.328 64.072 154.328 65.016C154.328 65.784 154.112 66.544 153.68 67.296C153.248 68.048 152.64 68.672 151.856 69.168C151.072 69.648 150.144 69.888 149.072 69.888C148.192 69.888 147.448 69.68 146.84 69.264C146.248 68.832 145.952 68.168 145.952 67.272C145.952 66.84 146.04 66.344 146.216 65.784C146.408 65.208 146.704 64.664 147.104 64.152C147.504 63.624 148.032 63.192 148.688 62.856C149.36 62.504 150.184 62.328 151.16 62.328ZM152.864 63.576L152.432 63.408C152.656 62.864 153.04 62.384 153.584 61.968C154.128 61.552 154.696 61.344 155.288 61.344C155.704 61.344 156.04 61.464 156.296 61.704C156.552 61.928 156.68 62.288 156.68 62.784C156.68 63.232 156.568 63.56 156.344 63.768C156.12 63.976 155.88 64.08 155.624 64.08C155.368 64.08 155.12 64 154.88 63.84C154.656 63.664 154.52 63.392 154.472 63.024C154.424 62.656 154.528 62.184 154.784 61.608L155.096 61.68C154.424 61.936 153.944 62.208 153.656 62.496C153.368 62.768 153.104 63.128 152.864 63.576ZM166.38 68.184L166.5 67.704H167.58C168.764 67.704 169.764 67.544 170.58 67.224C171.396 66.888 172.052 66.424 172.548 65.832C173.044 65.24 173.404 64.56 173.628 63.792C173.852 63.008 173.964 62.168 173.964 61.272C173.964 60.328 173.724 59.632 173.244 59.184C172.78 58.72 172.004 58.488 170.916 58.488C170.452 58.488 170.076 58.552 169.788 58.68C169.516 58.792 169.292 59 169.116 59.304C168.956 59.592 168.804 60.008 168.66 60.552L165.492 72.456C165.364 72.952 165.292 73.352 165.276 73.656C165.26 73.944 165.364 74.16 165.588 74.304C165.828 74.432 166.268 74.504 166.908 74.52L166.812 75C166.444 74.968 165.996 74.952 165.468 74.952C164.94 74.936 164.396 74.928 163.836 74.928C163.212 74.928 162.62 74.936 162.06 74.952C161.5 74.952 161.052 74.968 160.716 75L160.812 74.52C161.356 74.488 161.78 74.424 162.084 74.328C162.388 74.232 162.628 74.04 162.804 73.752C162.98 73.464 163.14 73.032 163.284 72.456L166.452 60.552C166.596 60.04 166.66 59.64 166.644 59.352C166.644 59.048 166.524 58.832 166.284 58.704C166.044 58.56 165.628 58.488 165.036 58.488L165.156 58.008C165.476 58.024 165.916 58.04 166.476 58.056C167.036 58.072 167.58 58.08 168.108 58.08C168.684 58.08 169.26 58.072 169.836 58.056C170.428 58.04 171.02 58.032 171.612 58.032C173.228 58.032 174.428 58.368 175.212 59.04C175.996 59.696 176.388 60.568 176.388 61.656C176.388 62.904 176.004 64.024 175.236 65.016C174.484 65.992 173.428 66.768 172.068 67.344C170.708 67.904 169.132 68.184 167.34 68.184H166.38ZM185.169 66.696C184.593 68.296 184.041 69.648 183.513 70.752C182.985 71.856 182.457 72.744 181.929 73.416C181.417 74.088 180.889 74.576 180.345 74.88C179.817 75.184 179.265 75.336 178.689 75.336C177.985 75.336 177.473 75.176 177.153 74.856C176.833 74.536 176.673 74.104 176.673 73.56C176.673 73.016 176.785 72.4 177.009 71.712L179.337 64.704C179.497 64.224 179.553 63.856 179.505 63.6C179.457 63.344 179.273 63.216 178.953 63.216C178.649 63.216 178.345 63.384 178.041 63.72C177.753 64.056 177.441 64.704 177.105 65.664L176.793 66.552H176.337L176.937 64.8C177.177 64.128 177.457 63.616 177.777 63.264C178.113 62.912 178.457 62.672 178.809 62.544C179.177 62.4 179.521 62.328 179.841 62.328C180.545 62.328 181.009 62.496 181.233 62.832C181.473 63.152 181.561 63.568 181.497 64.08C181.449 64.592 181.329 65.128 181.137 65.688L178.857 72.552C178.409 73.896 178.585 74.568 179.385 74.568C179.769 74.568 180.177 74.4 180.609 74.064C181.041 73.712 181.481 73.216 181.929 72.576C182.377 71.92 182.817 71.144 183.249 70.248C183.697 69.336 184.121 68.328 184.521 67.224C184.937 66.104 185.313 64.904 185.649 63.624L185.169 66.696ZM185.097 72.96C184.985 73.392 184.929 73.752 184.929 74.04C184.945 74.312 185.113 74.448 185.433 74.448C185.785 74.448 186.105 74.264 186.393 73.896C186.697 73.512 187.001 72.88 187.305 72L187.617 71.112H188.073L187.473 72.864C187.249 73.536 186.969 74.048 186.633 74.4C186.313 74.752 185.969 74.992 185.601 75.12C185.249 75.264 184.905 75.336 184.569 75.336C184.313 75.336 184.073 75.28 183.849 75.168C183.625 75.056 183.457 74.896 183.345 74.688C183.217 74.416 183.169 74.072 183.201 73.656C183.249 73.24 183.361 72.68 183.537 71.976L185.889 62.664C186.289 62.648 186.673 62.616 187.041 62.568C187.425 62.52 187.769 62.44 188.073 62.328L185.097 72.96ZM191.706 72.96C191.578 73.424 191.538 73.792 191.586 74.064C191.634 74.32 191.81 74.448 192.114 74.448C192.434 74.448 192.73 74.272 193.002 73.92C193.29 73.552 193.594 72.912 193.914 72L194.226 71.112H194.682L194.082 72.864C193.874 73.472 193.618 73.96 193.314 74.328C193.026 74.68 192.706 74.936 192.354 75.096C192.002 75.256 191.618 75.336 191.202 75.336C190.674 75.336 190.282 75.232 190.026 75.024C189.786 74.832 189.634 74.568 189.57 74.232C189.522 73.896 189.53 73.536 189.594 73.152C189.674 72.752 189.77 72.36 189.882 71.976L193.794 58.992C193.954 58.448 193.938 58.048 193.746 57.792C193.554 57.536 193.066 57.408 192.282 57.408L192.45 56.904C193.33 56.888 194.106 56.8 194.778 56.64C195.45 56.464 196.098 56.224 196.722 55.92L191.706 72.96ZM198.362 72.96C198.234 73.424 198.194 73.792 198.242 74.064C198.29 74.32 198.466 74.448 198.77 74.448C199.09 74.448 199.386 74.272 199.658 73.92C199.946 73.552 200.25 72.912 200.57 72L200.882 71.112H201.338L200.738 72.864C200.53 73.472 200.274 73.96 199.97 74.328C199.682 74.68 199.362 74.936 199.01 75.096C198.658 75.256 198.274 75.336 197.858 75.336C197.33 75.336 196.938 75.232 196.682 75.024C196.442 74.832 196.29 74.568 196.226 74.232C196.178 73.896 196.186 73.536 196.25 73.152C196.33 72.752 196.426 72.36 196.538 71.976L200.45 58.992C200.61 58.448 200.594 58.048 200.402 57.792C200.21 57.536 199.722 57.408 198.938 57.408L199.106 56.904C199.986 56.888 200.762 56.8 201.434 56.64C202.106 56.464 202.754 56.224 203.378 55.92L198.362 72.96ZM204.586 69.552C205.482 69.248 206.29 68.952 207.01 68.664C207.746 68.36 208.33 68.04 208.762 67.704C209.338 67.24 209.794 66.68 210.13 66.024C210.466 65.368 210.634 64.648 210.634 63.864C210.634 63.4 210.602 63.104 210.538 62.976C210.474 62.848 210.378 62.784 210.25 62.784C209.85 62.784 209.418 62.96 208.954 63.312C208.49 63.664 208.034 64.152 207.586 64.776C207.138 65.384 206.722 66.08 206.338 66.864C205.97 67.648 205.674 68.488 205.45 69.384C205.226 70.264 205.114 71.144 205.114 72.024C205.114 72.84 205.266 73.432 205.57 73.8C205.874 74.152 206.274 74.328 206.77 74.328C207.346 74.328 207.954 74.152 208.594 73.8C209.234 73.448 209.858 72.824 210.466 71.928L210.85 72.12C210.546 72.648 210.146 73.16 209.65 73.656C209.154 74.152 208.594 74.56 207.97 74.88C207.362 75.184 206.714 75.336 206.026 75.336C205.386 75.336 204.826 75.208 204.346 74.952C203.866 74.696 203.498 74.32 203.242 73.824C202.986 73.312 202.858 72.688 202.858 71.952C202.858 71.264 202.986 70.496 203.242 69.648C203.498 68.784 203.858 67.928 204.322 67.08C204.802 66.216 205.37 65.424 206.026 64.704C206.682 63.984 207.41 63.408 208.21 62.976C209.01 62.544 209.866 62.328 210.778 62.328C211.274 62.328 211.69 62.464 212.026 62.736C212.378 62.992 212.554 63.384 212.554 63.912C212.554 64.552 212.362 65.152 211.978 65.712C211.61 66.256 211.114 66.76 210.49 67.224C209.882 67.672 209.218 68.072 208.498 68.424C207.778 68.776 207.074 69.08 206.386 69.336C205.698 69.592 205.09 69.8 204.562 69.96L204.586 69.552ZM215.763 75H213.675L216.555 64.704C216.715 64.16 216.763 63.776 216.699 63.552C216.651 63.328 216.491 63.216 216.219 63.216C215.867 63.216 215.547 63.4 215.259 63.768C214.971 64.136 214.667 64.768 214.347 65.664L214.035 66.552H213.579L214.179 64.8C214.419 64.128 214.699 63.616 215.019 63.264C215.355 62.912 215.699 62.672 216.051 62.544C216.419 62.4 216.763 62.328 217.083 62.328C217.563 62.328 217.899 62.432 218.091 62.64C218.299 62.848 218.411 63.12 218.427 63.456C218.459 63.792 218.435 64.16 218.355 64.56C218.291 64.944 218.211 65.32 218.115 65.688L215.763 75ZM221.931 62.928C221.563 62.928 221.179 63.104 220.779 63.456C220.395 63.792 219.995 64.288 219.579 64.944C219.179 65.584 218.771 66.36 218.355 67.272C217.955 68.168 217.555 69.168 217.155 70.272C216.771 71.376 216.395 72.568 216.027 73.848L216.627 70.776C217.155 69.208 217.643 67.888 218.091 66.816C218.555 65.744 219.011 64.88 219.459 64.224C219.907 63.552 220.363 63.072 220.827 62.784C221.307 62.48 221.811 62.328 222.339 62.328C222.787 62.328 223.131 62.456 223.371 62.712C223.627 62.968 223.755 63.296 223.755 63.696C223.755 64.016 223.675 64.312 223.515 64.584C223.355 64.84 223.147 65.048 222.891 65.208C222.651 65.352 222.379 65.424 222.075 65.424C221.803 65.424 221.571 65.352 221.379 65.208C221.203 65.048 221.115 64.832 221.115 64.56C221.115 64.304 221.163 64.08 221.259 63.888C221.355 63.68 221.483 63.504 221.643 63.36C221.803 63.216 221.987 63.104 222.195 63.024C222.163 62.992 222.123 62.968 222.075 62.952C222.043 62.936 221.995 62.928 221.931 62.928Z" fill="#2B2B2B"/>
<path d="M32.105 75.395C30.2796 73.8724 29.3953 72.9528 27.9074 71.1974C26.3323 72.9205 25.4231 73.8438 23.7098 75.395C25.4596 76.9223 26.3694 77.8525 27.9074 79.5926C29.4066 77.8675 30.3338 76.9517 32.105 75.395Z" fill="#E9C46A"/>
<path d="M303.129 75.395C304.955 73.8724 305.839 72.9528 307.327 71.1974C308.902 72.9205 309.811 73.8438 311.525 75.395C309.775 76.9223 308.865 77.8525 307.327 79.5926C305.828 77.8675 304.901 76.9517 303.129 75.395Z" fill="#E9C46A"/>
<path d="M76.2344 15.9128C74.3014 14.3006 73.3651 13.3269 71.7895 11.468C70.1217 13.2927 69.159 14.2704 67.3447 15.9128C69.1975 17.5301 70.161 18.5151 71.7895 20.3577C73.3771 18.5311 74.3589 17.5613 76.2344 15.9128Z" fill="#E9C46A"/>
<path d="M259 15.9128C260.933 14.3006 261.869 13.3269 263.445 11.468C265.113 13.2927 266.075 14.2704 267.89 15.9128C266.037 17.5301 265.073 18.5151 263.445 20.3577C261.857 18.5311 260.875 17.5613 259 15.9128Z" fill="#E9C46A"/>
<path d="M0 6.43768C2.64134 4.23461 3.92078 2.90397 6.07382 0.363861C8.35288 2.85725 9.66845 4.19325 12.1476 6.43768C9.61574 8.64771 8.29921 9.99362 6.07382 12.5115C3.90443 10.0155 2.56283 8.69026 0 6.43768Z" fill="#E9C46A"/>
<path d="M335.234 6.43768C332.593 4.23461 331.314 2.90397 329.161 0.363861C326.881 2.85725 325.566 4.19325 323.087 6.43768C325.619 8.64771 326.935 9.99362 329.161 12.5115C331.33 10.0155 332.672 8.69026 335.234 6.43768Z" fill="#E9C46A"/>
</svg>
