<svg width="139" height="51" viewBox="0 0 139 51" fill="none" xmlns="http://www.w3.org/2000/svg">
<path d="M136.963 0.412109H4.29012C4.29012 4.31836 1.76326 5.80065 0 7.44336V42.5996C1.02854 44.8393 4.27393 45.5108 3.93419 50.4121H137.043C135.85 46.3141 136.542 45.1049 139 41.8184V7.44336C136.326 4.89105 135.247 3.53711 136.963 0.412109Z" fill="#3A7D7D"/>
<path d="M133.631 3.53714H7.51039C7.51039 6.95511 5.10831 8.25212 3.43213 9.68948V40.4512C4.40988 42.4109 7.495 42.9985 7.17204 47.2871H133.707C132.573 43.7014 133.231 42.6434 135.568 39.7676V9.68948C133.026 7.45622 132 6.27151 133.631 3.53714Z" stroke="#EDE0D4" stroke-width="0.2"/>
<rect x="121.129" y="36.3495" width="0.68642" height="3.125" fill="#EDE0D4"/>
<rect x="121.129" y="42.5996" width="0.68642" height="3.125" fill="#EDE0D4"/>
<rect x="121.129" y="30.0996" width="0.68642" height="3.125" fill="#EDE0D4"/>
<rect x="121.129" y="23.8496" width="0.68642" height="3.125" fill="#EDE0D4"/>
<rect x="121.129" y="17.5996" width="0.68642" height="3.125" fill="#EDE0D4"/>
<rect x="121.129" y="11.3496" width="0.68642" height="3.125" fill="#EDE0D4"/>
<rect x="121.129" y="5.09961" width="0.68642" height="3.125" fill="#EDE0D4"/>
<path d="M27.4973 20.9721C27.3906 21.2494 27.2466 21.6548 27.0653 22.1881C26.8946 22.7108 26.7239 23.3934 26.5533 24.2361H26.2333C26.2653 24.0868 26.2866 23.9321 26.2973 23.7721C26.3186 23.6121 26.3293 23.4628 26.3293 23.3241C26.3293 22.9294 26.2493 22.5721 26.0893 22.2521C25.9399 21.9214 25.6999 21.6601 25.3693 21.4681C25.0386 21.2654 24.6013 21.1641 24.0573 21.1641C23.4173 21.1641 22.8839 21.3294 22.4573 21.6601C22.0306 21.9908 21.8173 22.5028 21.8173 23.1961C21.8173 23.6014 21.9133 23.9801 22.1053 24.3321C22.3079 24.6734 22.5586 25.0041 22.8573 25.3241C23.1666 25.6334 23.4919 25.9481 23.8333 26.2681C24.1853 26.5774 24.5106 26.8974 24.8093 27.2281C25.1186 27.5588 25.3693 27.9108 25.5613 28.2841C25.7639 28.6468 25.8653 29.0521 25.8653 29.5001C25.8653 30.0548 25.7426 30.5294 25.4973 30.9241C25.2519 31.3188 24.9319 31.6441 24.5373 31.9001C24.1426 32.1454 23.7053 32.3268 23.2253 32.4441C22.7559 32.5721 22.2866 32.6361 21.8173 32.6361C21.3906 32.6361 21.0333 32.5934 20.7453 32.5081C20.4573 32.4334 20.2173 32.3374 20.0253 32.2201C19.8333 32.1028 19.6733 31.9961 19.5453 31.9001C19.4279 31.8041 19.3159 31.7401 19.2093 31.7081C19.1133 31.6761 19.0333 31.6601 18.9693 31.6601C18.8306 31.6601 18.7133 31.7348 18.6173 31.8841C18.5319 32.0228 18.4306 32.2361 18.3133 32.5241H17.9932C18.0892 32.2894 18.1906 32.0174 18.2973 31.7081C18.4039 31.3988 18.5213 31.0041 18.6493 30.5241C18.7773 30.0334 18.9213 29.4201 19.0813 28.6841H19.4013C19.3586 28.9081 19.3213 29.1268 19.2893 29.3401C19.2573 29.5428 19.2466 29.7561 19.2573 29.9801C19.2893 30.7054 19.5133 31.2761 19.9293 31.6921C20.3453 32.1081 20.9906 32.3161 21.8653 32.3161C22.5586 32.3161 23.1239 32.1561 23.5613 31.8361C23.9986 31.5161 24.2173 31.0094 24.2173 30.3161C24.2173 29.8681 24.1266 29.4681 23.9453 29.1161C23.7746 28.7641 23.5453 28.4388 23.2573 28.1401C22.9799 27.8308 22.6813 27.5321 22.3613 27.2441C22.0519 26.9561 21.7533 26.6574 21.4653 26.3481C21.1879 26.0281 20.9586 25.6761 20.7773 25.2921C20.6066 24.9081 20.5213 24.4708 20.5213 23.9801C20.5213 23.4681 20.6226 23.0201 20.8253 22.6361C21.0279 22.2414 21.2946 21.9161 21.6253 21.6601C21.9666 21.3934 22.3453 21.1961 22.7613 21.0681C23.1773 20.9294 23.6039 20.8601 24.0413 20.8601C24.4893 20.8601 24.8733 20.9134 25.1933 21.0201C25.5133 21.1268 25.8226 21.2974 26.1213 21.5321C26.2493 21.6281 26.3559 21.7028 26.4413 21.7561C26.5266 21.7988 26.5959 21.8201 26.6493 21.8201C26.7986 21.8201 26.9746 21.5374 27.1773 20.9721H27.4973ZM33.1406 24.1881L33.0926 24.5081H28.1166L28.1966 24.1881H33.1406ZM29.0766 31.0521C28.9806 31.4041 29.002 31.6601 29.1406 31.8201C29.29 31.9694 29.482 32.0441 29.7166 32.0441C29.9513 32.0441 30.186 31.9428 30.4206 31.7401C30.666 31.5374 30.906 31.1054 31.1406 30.4441L31.3646 29.8201H31.6686L31.3326 30.8281C31.098 31.5214 30.794 31.9961 30.4206 32.2521C30.058 32.5081 29.6313 32.6361 29.1406 32.6361C28.7033 32.6361 28.3673 32.5454 28.1326 32.3641C27.9086 32.1721 27.7753 31.9054 27.7326 31.5641C27.69 31.2228 27.7326 30.8334 27.8606 30.3961L30.3406 21.7561C30.5966 21.7454 30.8473 21.7241 31.0926 21.6921C31.3486 21.6601 31.578 21.6068 31.7806 21.5321L29.0766 31.0521ZM34.4516 32.4121H33.0596L34.9796 25.5481C35.0863 25.1854 35.1183 24.9294 35.0756 24.7801C35.0436 24.6308 34.937 24.5561 34.7556 24.5561C34.521 24.5561 34.3076 24.6788 34.1156 24.9241C33.9236 25.1694 33.721 25.5908 33.5076 26.1881L33.2996 26.7801H32.9956L33.3956 25.6121C33.5556 25.1641 33.7423 24.8228 33.9556 24.5881C34.1796 24.3534 34.409 24.1934 34.6436 24.1081C34.889 24.0121 35.1183 23.9641 35.3316 23.9641C35.6516 23.9641 35.8756 24.0334 36.0036 24.1721C36.1423 24.3108 36.217 24.4921 36.2276 24.7161C36.249 24.9401 36.233 25.1854 36.1796 25.4521C36.137 25.7081 36.0836 25.9588 36.0196 26.2041L34.4516 32.4121ZM38.5636 24.3641C38.3183 24.3641 38.0623 24.4814 37.7956 24.7161C37.5396 24.9401 37.273 25.2708 36.9956 25.7081C36.729 26.1348 36.457 26.6521 36.1796 27.2601C35.913 27.8574 35.6463 28.5241 35.3796 29.2601C35.1236 29.9961 34.873 30.7908 34.6276 31.6441L35.0276 29.5961C35.3796 28.5508 35.705 27.6708 36.0036 26.9561C36.313 26.2414 36.617 25.6654 36.9156 25.2281C37.2143 24.7801 37.5183 24.4601 37.8276 24.2681C38.1476 24.0654 38.4836 23.9641 38.8356 23.9641C39.1343 23.9641 39.3636 24.0494 39.5236 24.2201C39.6943 24.3908 39.7796 24.6094 39.7796 24.8761C39.7796 25.0894 39.7263 25.2868 39.6196 25.4681C39.513 25.6388 39.3743 25.7774 39.2036 25.8841C39.0436 25.9801 38.8623 26.0281 38.6596 26.0281C38.4783 26.0281 38.3236 25.9801 38.1956 25.8841C38.0783 25.7774 38.0196 25.6334 38.0196 25.4521C38.0196 25.2814 38.0516 25.1321 38.1156 25.0041C38.1796 24.8654 38.265 24.7481 38.3716 24.6521C38.4783 24.5561 38.601 24.4814 38.7396 24.4281C38.7183 24.4068 38.6916 24.3908 38.6596 24.3801C38.6383 24.3694 38.6063 24.3641 38.5636 24.3641ZM42.3521 21.2761C42.4055 20.9988 42.5441 20.7588 42.7681 20.5561C43.0028 20.3534 43.2535 20.2521 43.5201 20.2521C43.7975 20.2521 44.0108 20.3534 44.1601 20.5561C44.3201 20.7588 44.3735 20.9988 44.3201 21.2761C44.2668 21.5534 44.1228 21.7934 43.8881 21.9961C43.6641 22.1988 43.4135 22.3001 43.1361 22.3001C42.8695 22.3001 42.6561 22.1988 42.4961 21.9961C42.3468 21.7934 42.2988 21.5534 42.3521 21.2761ZM41.8561 25.5481C42.0801 24.8868 42.0055 24.5561 41.6321 24.5561C41.3868 24.5561 41.1681 24.6894 40.9761 24.9561C40.7841 25.2228 40.5815 25.6334 40.3681 26.1881L40.1441 26.7801H39.8401L40.2561 25.6121C40.4161 25.1641 40.6081 24.8228 40.8321 24.5881C41.0561 24.3534 41.2908 24.1934 41.5361 24.1081C41.7921 24.0121 42.0268 23.9641 42.2401 23.9641C42.5815 23.9641 42.8321 24.0334 42.9921 24.1721C43.1521 24.3108 43.2481 24.4921 43.2801 24.7161C43.3121 24.9401 43.3015 25.1854 43.2481 25.4521C43.1948 25.7081 43.1255 25.9588 43.0401 26.2041L41.3281 31.0521C41.2215 31.3614 41.1841 31.6068 41.2161 31.7881C41.2588 31.9588 41.3815 32.0441 41.5841 32.0441C41.7975 32.0441 42.0001 31.9268 42.1921 31.6921C42.3841 31.4574 42.5975 31.0308 42.8321 30.4121L43.0561 29.8201H43.3601L42.9441 30.9881C42.7948 31.4041 42.6135 31.7348 42.4001 31.9801C42.1868 32.2148 41.9575 32.3801 41.7121 32.4761C41.4668 32.5828 41.2215 32.6361 40.9761 32.6361C40.5175 32.6361 40.2081 32.5294 40.0481 32.3161C39.8881 32.1028 39.8295 31.8254 39.8721 31.4841C39.9148 31.1428 40.0055 30.7801 40.1441 30.3961L41.8561 25.5481ZM46.1083 32.4121H44.7163L46.6363 25.5481C46.6789 25.4201 46.7109 25.2814 46.7323 25.1321C46.7643 24.9721 46.7589 24.8388 46.7163 24.7321C46.6736 24.6148 46.5669 24.5561 46.3963 24.5561C46.1616 24.5561 45.9536 24.6734 45.7723 24.9081C45.5909 25.1321 45.3883 25.5588 45.1643 26.1881L44.9563 26.7801H44.6523L45.0523 25.6121C45.2869 24.9401 45.5749 24.4974 45.9163 24.2841C46.2683 24.0708 46.6149 23.9641 46.9563 23.9641C47.2763 23.9641 47.5056 24.0334 47.6443 24.1721C47.7936 24.3108 47.8736 24.4921 47.8843 24.7161C47.9056 24.9294 47.8896 25.1694 47.8363 25.4361C47.7936 25.6921 47.7403 25.9481 47.6763 26.2041L46.1083 32.4121ZM46.8443 29.0841C47.2176 28.1241 47.5803 27.3188 47.9323 26.6681C48.2843 26.0174 48.6309 25.4948 48.9723 25.1001C49.3136 24.6948 49.6603 24.4068 50.0123 24.2361C50.3749 24.0548 50.7483 23.9641 51.1323 23.9641C51.6336 23.9641 51.9749 24.0868 52.1562 24.3321C52.3483 24.5668 52.4336 24.8708 52.4123 25.2441C52.3909 25.6068 52.3163 25.9854 52.1883 26.3801L50.6363 31.0521C50.5403 31.3401 50.4976 31.5801 50.5083 31.7721C50.5296 31.9534 50.6576 32.0441 50.8923 32.0441C51.0949 32.0441 51.2923 31.9321 51.4843 31.7081C51.6869 31.4841 51.9003 31.0521 52.1243 30.4121L52.3323 29.8201H52.6363L52.2362 30.9881C52.0869 31.4361 51.9003 31.7774 51.6763 32.0121C51.4629 32.2468 51.2336 32.4068 50.9883 32.4921C50.7536 32.5881 50.5243 32.6361 50.3003 32.6361C50.0443 32.6361 49.8309 32.5934 49.6603 32.5081C49.5003 32.4228 49.3776 32.3108 49.2923 32.1721C49.1749 31.9801 49.1376 31.7294 49.1803 31.4201C49.2229 31.1108 49.3083 30.7694 49.4363 30.3961L50.9563 25.8201C51.0096 25.6708 51.0523 25.4948 51.0843 25.2921C51.1269 25.0788 51.1216 24.8921 51.0683 24.7321C51.0149 24.5614 50.8603 24.4761 50.6043 24.4761C50.3483 24.4761 50.0763 24.5881 49.7883 24.8121C49.5003 25.0361 49.2016 25.3561 48.8923 25.7721C48.5829 26.1774 48.2789 26.6681 47.9803 27.2441C47.6816 27.8094 47.3936 28.4388 47.1163 29.1321C46.8496 29.8148 46.6043 30.5454 46.3803 31.3241L46.8443 29.0841ZM56.8935 28.8121L57.2935 28.8281C56.9095 29.0414 56.5522 29.2388 56.2215 29.4201C55.9015 29.5908 55.6402 29.7508 55.4375 29.9001C55.2348 30.0494 55.1335 30.1934 55.1335 30.3321C55.1335 30.4388 55.2082 30.5401 55.3575 30.6361C55.5068 30.7214 55.7522 30.8068 56.0935 30.8921L57.2615 31.1961C57.6028 31.2814 57.9068 31.3828 58.1735 31.5001C58.4508 31.6068 58.6695 31.7454 58.8295 31.9161C58.9895 32.0868 59.0695 32.3108 59.0695 32.5881C59.0695 32.8548 58.9788 33.1534 58.7975 33.4841C58.6268 33.8254 58.3548 34.1508 57.9815 34.4601C57.6188 34.7694 57.1442 35.0254 56.5575 35.2281C55.9708 35.4308 55.2615 35.5321 54.4295 35.5321C53.8748 35.5321 53.4108 35.4788 53.0375 35.3721C52.6535 35.2761 52.3708 35.1374 52.1895 34.9561C51.9975 34.7748 51.9015 34.5668 51.9015 34.3321C51.9015 34.1614 51.9495 33.9801 52.0455 33.7881C52.1415 33.6068 52.2855 33.4254 52.4775 33.2441C52.6588 33.0734 52.8935 32.9081 53.1815 32.7481C53.4588 32.5988 53.7895 32.4708 54.1735 32.3641L54.2855 32.6041C53.8908 32.8068 53.6188 33.0361 53.4695 33.2921C53.3202 33.5481 53.2455 33.8041 53.2455 34.0601C53.2455 34.4868 53.3948 34.7908 53.6935 34.9721C53.9922 35.1641 54.3602 35.2601 54.7975 35.2601C55.1495 35.2601 55.5122 35.2014 55.8855 35.0841C56.2588 34.9774 56.6055 34.8281 56.9255 34.6361C57.2455 34.4548 57.5015 34.2414 57.6935 33.9961C57.8855 33.7508 57.9815 33.4948 57.9815 33.2281C57.9815 33.0681 57.9282 32.9614 57.8215 32.9081C57.7255 32.8548 57.5602 32.8014 57.3255 32.7481L54.8775 32.1241C54.6215 32.0601 54.4135 31.9534 54.2535 31.8041C54.0935 31.6441 54.0135 31.4308 54.0135 31.1641C54.0135 30.9508 54.0882 30.7321 54.2375 30.5081C54.3868 30.2841 54.6695 30.0388 55.0855 29.7721C55.5015 29.4948 56.1042 29.1748 56.8935 28.8121ZM57.7095 24.2521C57.3682 24.2521 57.0802 24.3534 56.8455 24.5561C56.6108 24.7481 56.4135 24.9988 56.2535 25.3081C56.1042 25.6068 55.9868 25.9214 55.9015 26.2521C55.8268 26.5828 55.7735 26.8868 55.7415 27.1641C55.7095 27.4308 55.6935 27.6281 55.6935 27.7561C55.6935 28.0974 55.7682 28.3428 55.9175 28.4921C56.0775 28.6414 56.2855 28.7161 56.5415 28.7161C56.9468 28.7161 57.2722 28.5934 57.5175 28.3481C57.7735 28.1028 57.9708 27.7988 58.1095 27.4361C58.2482 27.0734 58.3388 26.7108 58.3815 26.3481C58.4348 25.9854 58.4615 25.6814 58.4615 25.4361C58.4615 25.0734 58.4135 24.7854 58.3175 24.5721C58.2215 24.3588 58.0188 24.2521 57.7095 24.2521ZM57.7735 23.9641C58.4028 23.9641 58.9095 24.1081 59.2935 24.3961C59.6882 24.6734 59.8855 25.1268 59.8855 25.7561C59.8855 26.2681 59.7415 26.7748 59.4535 27.2761C59.1655 27.7774 58.7602 28.1934 58.2375 28.5241C57.7148 28.8441 57.0962 29.0041 56.3815 29.0041C55.7948 29.0041 55.2988 28.8654 54.8935 28.5881C54.4988 28.3001 54.3015 27.8574 54.3015 27.2601C54.3015 26.9721 54.3602 26.6414 54.4775 26.2681C54.6055 25.8841 54.8028 25.5214 55.0695 25.1801C55.3362 24.8281 55.6882 24.5401 56.1255 24.3161C56.5735 24.0814 57.1228 23.9641 57.7735 23.9641ZM58.9095 24.7961L58.6215 24.6841C58.7708 24.3214 59.0268 24.0014 59.3895 23.7241C59.7522 23.4468 60.1308 23.3081 60.5255 23.3081C60.8028 23.3081 61.0268 23.3881 61.1975 23.5481C61.3682 23.6974 61.4535 23.9374 61.4535 24.2681C61.4535 24.5668 61.3788 24.7854 61.2295 24.9241C61.0802 25.0628 60.9202 25.1321 60.7495 25.1321C60.5788 25.1321 60.4135 25.0788 60.2535 24.9721C60.1042 24.8548 60.0135 24.6734 59.9815 24.4281C59.9495 24.1828 60.0188 23.8681 60.1895 23.4841L60.3975 23.5321C59.9495 23.7028 59.6295 23.8841 59.4375 24.0761C59.2455 24.2574 59.0695 24.4974 58.9095 24.7961ZM67.9199 27.8681L67.9999 27.5481H68.7199C69.5092 27.5481 70.1759 27.4414 70.7199 27.2281C71.2639 27.0041 71.7012 26.6948 72.0319 26.3001C72.3625 25.9054 72.6025 25.4521 72.7519 24.9401C72.9012 24.4174 72.9759 23.8574 72.9759 23.2601C72.9759 22.6308 72.8159 22.1668 72.4959 21.8681C72.1865 21.5588 71.6692 21.4041 70.9439 21.4041C70.6345 21.4041 70.3839 21.4468 70.1919 21.5321C70.0105 21.6068 69.8612 21.7454 69.7439 21.9481C69.6372 22.1401 69.5359 22.4174 69.4399 22.7801L67.3279 30.7161C67.2425 31.0468 67.1945 31.3134 67.1839 31.5161C67.1732 31.7081 67.2425 31.8521 67.3919 31.9481C67.5519 32.0334 67.8452 32.0814 68.2719 32.0921L68.2079 32.4121C67.9625 32.3908 67.6639 32.3801 67.3119 32.3801C66.9599 32.3694 66.5972 32.3641 66.2239 32.3641C65.8079 32.3641 65.4132 32.3694 65.0399 32.3801C64.6665 32.3801 64.3679 32.3908 64.1439 32.4121L64.2079 32.0921C64.5705 32.0708 64.8532 32.0281 65.0559 31.9641C65.2585 31.9001 65.4185 31.7721 65.5359 31.5801C65.6532 31.3881 65.7599 31.1001 65.8559 30.7161L67.9679 22.7801C68.0639 22.4388 68.1065 22.1721 68.0959 21.9801C68.0959 21.7774 68.0159 21.6334 67.8559 21.5481C67.6959 21.4521 67.4185 21.4041 67.0239 21.4041L67.1039 21.0841C67.3172 21.0948 67.6105 21.1054 67.9839 21.1161C68.3572 21.1268 68.7199 21.1321 69.0719 21.1321C69.4559 21.1321 69.8399 21.1268 70.2239 21.1161C70.6185 21.1054 71.0132 21.1001 71.4079 21.1001C72.4852 21.1001 73.2852 21.3241 73.8079 21.7721C74.3305 22.2094 74.5919 22.7908 74.5919 23.5161C74.5919 24.3481 74.3359 25.0948 73.8239 25.7561C73.3225 26.4068 72.6185 26.9241 71.7119 27.3081C70.8052 27.6814 69.7545 27.8681 68.5599 27.8681H67.9199ZM80.4458 26.8761C80.0618 27.9428 79.6938 28.8441 79.3418 29.5801C78.9898 30.3161 78.6378 30.9081 78.2858 31.3561C77.9444 31.8041 77.5924 32.1294 77.2298 32.3321C76.8778 32.5348 76.5098 32.6361 76.1258 32.6361C75.6564 32.6361 75.3151 32.5294 75.1018 32.3161C74.8884 32.1028 74.7818 31.8148 74.7818 31.4521C74.7818 31.0894 74.8564 30.6788 75.0058 30.2201L76.5578 25.5481C76.6644 25.2281 76.7018 24.9828 76.6698 24.8121C76.6378 24.6414 76.5151 24.5561 76.3018 24.5561C76.0991 24.5561 75.8964 24.6681 75.6938 24.8921C75.5018 25.1161 75.2938 25.5481 75.0698 26.1881L74.8618 26.7801H74.5578L74.9578 25.6121C75.1178 25.1641 75.3044 24.8228 75.5178 24.5881C75.7418 24.3534 75.9711 24.1934 76.2057 24.1081C76.4511 24.0121 76.6804 23.9641 76.8938 23.9641C77.3631 23.9641 77.6724 24.0761 77.8218 24.3001C77.9818 24.5134 78.0404 24.7908 77.9978 25.1321C77.9658 25.4734 77.8858 25.8308 77.7578 26.2041L76.2378 30.7801C75.9391 31.6761 76.0564 32.1241 76.5898 32.1241C76.8458 32.1241 77.1178 32.0121 77.4058 31.7881C77.6938 31.5534 77.9871 31.2228 78.2858 30.7961C78.5844 30.3588 78.8778 29.8414 79.1658 29.2441C79.4644 28.6361 79.7471 27.9641 80.0138 27.2281C80.2911 26.4814 80.5418 25.6814 80.7658 24.8281L80.4458 26.8761ZM80.3978 31.0521C80.3231 31.3401 80.2858 31.5801 80.2858 31.7721C80.2964 31.9534 80.4084 32.0441 80.6218 32.0441C80.8564 32.0441 81.0698 31.9214 81.2618 31.6761C81.4644 31.4201 81.6671 30.9988 81.8698 30.4121L82.0778 29.8201H82.3818L81.9818 30.9881C81.8324 31.4361 81.6458 31.7774 81.4218 32.0121C81.2084 32.2468 80.9791 32.4068 80.7338 32.4921C80.4991 32.5881 80.2698 32.6361 80.0458 32.6361C79.8751 32.6361 79.7151 32.5988 79.5658 32.5241C79.4164 32.4494 79.3044 32.3428 79.2298 32.2041C79.1444 32.0228 79.1124 31.7934 79.1338 31.5161C79.1658 31.2388 79.2404 30.8654 79.3578 30.3961L80.9258 24.1881C81.1924 24.1774 81.4484 24.1561 81.6938 24.1241C81.9498 24.0921 82.1791 24.0388 82.3818 23.9641L80.3978 31.0521ZM84.8039 31.0521C84.7185 31.3614 84.6919 31.6068 84.7239 31.7881C84.7559 31.9588 84.8732 32.0441 85.0759 32.0441C85.2892 32.0441 85.4865 31.9268 85.6679 31.6921C85.8599 31.4468 86.0625 31.0201 86.2759 30.4121L86.4839 29.8201H86.7879L86.3879 30.9881C86.2492 31.3934 86.0785 31.7188 85.8759 31.9641C85.6839 32.1988 85.4705 32.3694 85.2359 32.4761C85.0012 32.5828 84.7452 32.6361 84.4679 32.6361C84.1159 32.6361 83.8545 32.5668 83.6839 32.4281C83.5239 32.3001 83.4225 32.1241 83.3799 31.9001C83.3479 31.6761 83.3532 31.4361 83.3959 31.1801C83.4492 30.9134 83.5132 30.6521 83.5879 30.3961L86.1959 21.7401C86.3025 21.3774 86.2919 21.1108 86.1639 20.9401C86.0359 20.7694 85.7105 20.6841 85.1879 20.6841L85.2999 20.3481C85.8865 20.3374 86.4039 20.2788 86.8519 20.1721C87.2999 20.0548 87.7319 19.8948 88.1479 19.6921L84.8039 31.0521ZM89.2414 31.0521C89.156 31.3614 89.1294 31.6068 89.1614 31.7881C89.1934 31.9588 89.3107 32.0441 89.5134 32.0441C89.7267 32.0441 89.924 31.9268 90.1054 31.6921C90.2974 31.4468 90.5 31.0201 90.7134 30.4121L90.9214 29.8201H91.2254L90.8254 30.9881C90.6867 31.3934 90.516 31.7188 90.3134 31.9641C90.1214 32.1988 89.908 32.3694 89.6734 32.4761C89.4387 32.5828 89.1827 32.6361 88.9054 32.6361C88.5534 32.6361 88.292 32.5668 88.1214 32.4281C87.9614 32.3001 87.86 32.1241 87.8174 31.9001C87.7854 31.6761 87.7907 31.4361 87.8334 31.1801C87.8867 30.9134 87.9507 30.6521 88.0254 30.3961L90.6334 21.7401C90.74 21.3774 90.7294 21.1108 90.6014 20.9401C90.4734 20.7694 90.148 20.6841 89.6254 20.6841L89.7374 20.3481C90.324 20.3374 90.8414 20.2788 91.2894 20.1721C91.7374 20.0548 92.1694 19.8948 92.5854 19.6921L89.2414 31.0521ZM93.3909 28.7801C93.9882 28.5774 94.5269 28.3801 95.0069 28.1881C95.4975 27.9854 95.8869 27.7721 96.1749 27.5481C96.5589 27.2388 96.8629 26.8654 97.0869 26.4281C97.3109 25.9908 97.4229 25.5108 97.4229 24.9881C97.4229 24.6788 97.4015 24.4814 97.3589 24.3961C97.3162 24.3108 97.2522 24.2681 97.1669 24.2681C96.9002 24.2681 96.6122 24.3854 96.3029 24.6201C95.9935 24.8548 95.6895 25.1801 95.3909 25.5961C95.0922 26.0014 94.8149 26.4654 94.5589 26.9881C94.3135 27.5108 94.1162 28.0708 93.9669 28.6681C93.8175 29.2548 93.7429 29.8414 93.7429 30.4281C93.7429 30.9721 93.8442 31.3668 94.0469 31.6121C94.2495 31.8468 94.5162 31.9641 94.8469 31.9641C95.2309 31.9641 95.6362 31.8468 96.0629 31.6121C96.4895 31.3774 96.9055 30.9614 97.3109 30.3641L97.5669 30.4921C97.3642 30.8441 97.0975 31.1854 96.7669 31.5161C96.4362 31.8468 96.0629 32.1188 95.6469 32.3321C95.2415 32.5348 94.8095 32.6361 94.3509 32.6361C93.9242 32.6361 93.5509 32.5508 93.2309 32.3801C92.9109 32.2094 92.6655 31.9588 92.4949 31.6281C92.3242 31.2868 92.2389 30.8708 92.2389 30.3801C92.2389 29.9214 92.3242 29.4094 92.4949 28.8441C92.6655 28.2681 92.9055 27.6974 93.2149 27.1321C93.5349 26.5561 93.9135 26.0281 94.3509 25.5481C94.7882 25.0681 95.2735 24.6841 95.8069 24.3961C96.3402 24.1081 96.9109 23.9641 97.5189 23.9641C97.8495 23.9641 98.1269 24.0548 98.3509 24.2361C98.5855 24.4068 98.7029 24.6681 98.7029 25.0201C98.7029 25.4468 98.5749 25.8468 98.3189 26.2201C98.0735 26.5828 97.7429 26.9188 97.3269 27.2281C96.9215 27.5268 96.4789 27.7934 95.9989 28.0281C95.5189 28.2628 95.0495 28.4654 94.5909 28.6361C94.1322 28.8068 93.7269 28.9454 93.3749 29.0521L93.3909 28.7801ZM100.842 32.4121H99.4503L101.37 25.5481C101.477 25.1854 101.509 24.9294 101.466 24.7801C101.434 24.6308 101.328 24.5561 101.146 24.5561C100.912 24.5561 100.698 24.6788 100.506 24.9241C100.314 25.1694 100.112 25.5908 99.8983 26.1881L99.6903 26.7801H99.3863L99.7863 25.6121C99.9463 25.1641 100.133 24.8228 100.346 24.5881C100.57 24.3534 100.8 24.1934 101.034 24.1081C101.28 24.0121 101.509 23.9641 101.722 23.9641C102.042 23.9641 102.266 24.0334 102.394 24.1721C102.533 24.3108 102.608 24.4921 102.618 24.7161C102.64 24.9401 102.624 25.1854 102.57 25.4521C102.528 25.7081 102.474 25.9588 102.41 26.2041L100.842 32.4121ZM104.954 24.3641C104.709 24.3641 104.453 24.4814 104.186 24.7161C103.93 24.9401 103.664 25.2708 103.386 25.7081C103.12 26.1348 102.848 26.6521 102.57 27.2601C102.304 27.8574 102.037 28.5241 101.77 29.2601C101.514 29.9961 101.264 30.7908 101.018 31.6441L101.418 29.5961C101.77 28.5508 102.096 27.6708 102.394 26.9561C102.704 26.2414 103.008 25.6654 103.306 25.2281C103.605 24.7801 103.909 24.4601 104.218 24.2681C104.538 24.0654 104.874 23.9641 105.226 23.9641C105.525 23.9641 105.754 24.0494 105.914 24.2201C106.085 24.3908 106.17 24.6094 106.17 24.8761C106.17 25.0894 106.117 25.2868 106.01 25.4681C105.904 25.6388 105.765 25.7774 105.594 25.8841C105.434 25.9801 105.253 26.0281 105.05 26.0281C104.869 26.0281 104.714 25.9801 104.586 25.8841C104.469 25.7774 104.41 25.6334 104.41 25.4521C104.41 25.2814 104.442 25.1321 104.506 25.0041C104.57 24.8654 104.656 24.7481 104.762 24.6521C104.869 24.5561 104.992 24.4814 105.13 24.4281C105.109 24.4068 105.082 24.3908 105.05 24.3801C105.029 24.3694 104.997 24.3641 104.954 24.3641Z" fill="#EDE0D4"/>
</svg>
