<svg width="139" height="51" viewBox="0 0 139 51" fill="none" xmlns="http://www.w3.org/2000/svg">
<path d="M136.963 0.412109H4.29012C4.29012 4.31836 1.76326 5.80065 0 7.44336V42.5996C1.02854 44.8393 4.27393 45.5108 3.93419 50.4121H137.043C135.85 46.3141 136.542 45.1049 139 41.8184V7.44336C136.326 4.89105 135.247 3.53711 136.963 0.412109Z" fill="#4A1D5F"/>
<path d="M133.631 3.53714H7.51039C7.51039 6.95511 5.10831 8.25212 3.43213 9.68948V40.4512C4.40988 42.4109 7.495 42.9985 7.17204 47.2871H133.707C132.573 43.7014 133.231 42.6434 135.568 39.7676V9.68948C133.026 7.45622 132 6.27151 133.631 3.53714Z" stroke="#EDE0D4" stroke-width="0.2"/>
<rect x="121.129" y="36.3495" width="0.68642" height="3.125" fill="#EDE0D4"/>
<rect x="121.129" y="42.5996" width="0.68642" height="3.125" fill="#EDE0D4"/>
<rect x="121.129" y="30.0996" width="0.68642" height="3.125" fill="#EDE0D4"/>
<rect x="121.129" y="23.8496" width="0.68642" height="3.125" fill="#EDE0D4"/>
<rect x="121.129" y="17.5996" width="0.68642" height="3.125" fill="#EDE0D4"/>
<rect x="121.129" y="11.3496" width="0.68642" height="3.125" fill="#EDE0D4"/>
<rect x="121.129" y="5.09961" width="0.68642" height="3.125" fill="#EDE0D4"/>
<path d="M27.3009 30.0441C27.7062 28.9241 28.0902 27.9748 28.4529 27.1961C28.8262 26.4174 29.1942 25.7934 29.5569 25.3241C29.9302 24.8441 30.3035 24.4974 30.6769 24.2841C31.0609 24.0708 31.4609 23.9641 31.8769 23.9641C32.3569 23.9641 32.6929 24.0761 32.8849 24.3001C33.0769 24.5241 33.1675 24.8228 33.1569 25.1961C33.1462 25.5588 33.0715 25.9534 32.9329 26.3801L31.3809 31.0521C31.3382 31.1908 31.3009 31.3401 31.2689 31.5001C31.2369 31.6494 31.2422 31.7774 31.2849 31.8841C31.3382 31.9908 31.4555 32.0441 31.6369 32.0441C31.8395 32.0441 32.0369 31.9321 32.2289 31.7081C32.4315 31.4841 32.6449 31.0521 32.8689 30.4121L33.0769 29.8201H33.3809L32.9809 30.9881C32.8315 31.4361 32.6449 31.7774 32.4209 32.0121C32.1969 32.2468 31.9675 32.4068 31.7329 32.4921C31.4982 32.5881 31.2689 32.6361 31.0449 32.6361C30.6182 32.6361 30.3195 32.5401 30.1489 32.3481C29.9782 32.1561 29.9035 31.8894 29.9249 31.5481C29.9569 31.2068 30.0422 30.8228 30.1809 30.3961L31.7009 25.8201C31.7649 25.6281 31.8129 25.4308 31.8449 25.2281C31.8875 25.0148 31.8769 24.8388 31.8129 24.7001C31.7489 24.5508 31.5942 24.4761 31.3489 24.4761C31.0075 24.4761 30.6449 24.6628 30.2609 25.0361C29.8769 25.4094 29.4875 25.9374 29.0929 26.6201C28.6982 27.2921 28.3142 28.0921 27.9409 29.0201C27.5782 29.9481 27.2422 30.9721 26.9329 32.0921L27.3009 30.0441ZM28.9649 19.9161C29.2315 19.9054 29.4875 19.8841 29.7329 19.8521C29.9889 19.8201 30.2182 19.7668 30.4209 19.6921L26.8529 32.4121C26.8529 32.4121 26.8049 32.4121 26.7089 32.4121C26.6129 32.4121 26.4955 32.4121 26.3569 32.4121C26.2289 32.4121 26.0955 32.4121 25.9569 32.4121C25.8182 32.4121 25.7009 32.4121 25.6049 32.4121C25.5089 32.4121 25.4609 32.4121 25.4609 32.4121L28.9649 19.9161ZM22.4849 21.3561C22.4849 21.3561 22.5329 21.3614 22.6289 21.3721C22.7249 21.3828 22.8422 21.3988 22.9809 21.4201C23.1302 21.4414 23.2742 21.4628 23.4129 21.4841C23.5622 21.5054 23.6849 21.5214 23.7809 21.5321C23.8769 21.5428 23.9249 21.5481 23.9249 21.5481L21.5249 30.5561C21.4182 30.9614 21.3755 31.2761 21.3969 31.5001C21.4182 31.7134 21.5302 31.8628 21.7329 31.9481C21.9462 32.0334 22.2769 32.0814 22.7249 32.0921L22.6609 32.4121C22.3835 32.3908 22.0315 32.3801 21.6049 32.3801C21.1782 32.3694 20.7355 32.3641 20.2769 32.3641C19.8182 32.3641 19.3755 32.3694 18.9489 32.3801C18.5329 32.3801 18.1969 32.3908 17.9409 32.4121L18.0049 32.0921C18.4529 32.0708 18.7995 32.0174 19.0449 31.9321C19.3009 31.8361 19.4982 31.6814 19.6369 31.4681C19.7862 31.2441 19.9195 30.9401 20.0369 30.5561L22.4849 21.3561ZM29.1089 21.2921C28.7142 21.5481 28.2982 21.7241 27.8609 21.8201C27.4342 21.9054 26.9222 21.9481 26.3249 21.9481C25.7915 21.9481 25.2689 21.9161 24.7569 21.8521C24.2555 21.7881 23.7542 21.7134 23.2529 21.6281C22.7622 21.5428 22.2769 21.4681 21.7969 21.4041C21.3275 21.3401 20.8582 21.3081 20.3889 21.3081C20.0582 21.3081 19.7169 21.3241 19.3649 21.3561C19.0235 21.3881 18.7675 21.4628 18.5969 21.5801C18.6822 21.6868 18.7515 21.8308 18.8049 22.0121C18.8582 22.1828 18.8849 22.3481 18.8849 22.5081C18.8849 22.7214 18.8209 22.9294 18.6929 23.1321C18.5649 23.3348 18.3622 23.4361 18.0849 23.4361C17.8502 23.4361 17.6742 23.3614 17.5569 23.2121C17.4395 23.0628 17.3809 22.8708 17.3809 22.6361C17.3809 22.4228 17.4395 22.2041 17.5569 21.9801C17.6742 21.7454 17.8982 21.5481 18.2289 21.3881C18.4742 21.2708 18.7355 21.1854 19.0129 21.1321C19.3009 21.0788 19.5675 21.0468 19.8129 21.0361C20.0689 21.0254 20.2555 21.0201 20.3729 21.0201C21.1195 21.0201 21.8129 21.0734 22.4529 21.1801C23.1035 21.2761 23.7489 21.3774 24.3889 21.4841C25.0289 21.5801 25.7115 21.6281 26.4369 21.6281C27.0022 21.6281 27.4715 21.5854 27.8449 21.5001C28.2289 21.4148 28.6182 21.2548 29.0129 21.0201L29.1089 21.2921ZM35.5315 28.7801C36.1288 28.5774 36.6675 28.3801 37.1475 28.1881C37.6382 27.9854 38.0275 27.7721 38.3155 27.5481C38.6995 27.2388 39.0035 26.8654 39.2275 26.4281C39.4515 25.9908 39.5635 25.5108 39.5635 24.9881C39.5635 24.6788 39.5422 24.4814 39.4995 24.3961C39.4568 24.3108 39.3928 24.2681 39.3075 24.2681C39.0408 24.2681 38.7528 24.3854 38.4435 24.6201C38.1342 24.8548 37.8302 25.1801 37.5315 25.5961C37.2328 26.0014 36.9555 26.4654 36.6995 26.9881C36.4542 27.5108 36.2568 28.0708 36.1075 28.6681C35.9582 29.2548 35.8835 29.8414 35.8835 30.4281C35.8835 30.9721 35.9848 31.3668 36.1875 31.6121C36.3902 31.8468 36.6568 31.9641 36.9875 31.9641C37.3715 31.9641 37.7768 31.8468 38.2035 31.6121C38.6302 31.3774 39.0462 30.9614 39.4515 30.3641L39.7075 30.4921C39.5048 30.8441 39.2382 31.1854 38.9075 31.5161C38.5768 31.8468 38.2035 32.1188 37.7875 32.3321C37.3822 32.5348 36.9502 32.6361 36.4915 32.6361C36.0648 32.6361 35.6915 32.5508 35.3715 32.3801C35.0515 32.2094 34.8062 31.9588 34.6355 31.6281C34.4648 31.2868 34.3795 30.8708 34.3795 30.3801C34.3795 29.9214 34.4648 29.4094 34.6355 28.8441C34.8062 28.2681 35.0462 27.6974 35.3555 27.1321C35.6755 26.5561 36.0542 26.0281 36.4915 25.5481C36.9288 25.0681 37.4142 24.6841 37.9475 24.3961C38.4808 24.1081 39.0515 23.9641 39.6595 23.9641C39.9902 23.9641 40.2675 24.0548 40.4915 24.2361C40.7262 24.4068 40.8435 24.6681 40.8435 25.0201C40.8435 25.4468 40.7155 25.8468 40.4595 26.2201C40.2142 26.5828 39.8835 26.9188 39.4675 27.2281C39.0622 27.5268 38.6195 27.7934 38.1395 28.0281C37.6595 28.2628 37.1902 28.4654 36.7315 28.6361C36.2728 28.8068 35.8675 28.9454 35.5155 29.0521L35.5315 28.7801ZM53.4138 24.8601L48.8698 32.4921H48.6138L47.3498 22.4281C47.2964 22.0121 47.1791 21.7401 46.9978 21.6121C46.8164 21.4841 46.6404 21.4148 46.4698 21.4041L46.5338 21.0841C46.7471 21.0948 46.9871 21.1054 47.2538 21.1161C47.5311 21.1268 47.8191 21.1321 48.1178 21.1321C48.4698 21.1321 48.7951 21.1268 49.0938 21.1161C49.4031 21.1054 49.6538 21.0948 49.8458 21.0841L49.7818 21.4041C49.4191 21.4254 49.1631 21.5214 49.0138 21.6921C48.8644 21.8628 48.8218 22.2148 48.8858 22.7481L49.7977 30.5241L49.6538 30.5881L53.2698 24.4761L53.4138 24.8601ZM58.5818 23.6761C58.8911 23.0574 59.0618 22.5881 59.0938 22.2681C59.1364 21.9481 59.0564 21.7294 58.8538 21.6121C58.6511 21.4841 58.3258 21.4148 57.8778 21.4041L57.9578 21.0841C58.1604 21.0948 58.3631 21.1054 58.5658 21.1161C58.7791 21.1161 58.9871 21.1214 59.1898 21.1321C59.4031 21.1321 59.6004 21.1321 59.7818 21.1321C60.0591 21.1321 60.2884 21.1268 60.4698 21.1161C60.6511 21.1054 60.8271 21.0948 60.9978 21.0841L60.9178 21.4041C60.7684 21.4361 60.6084 21.4948 60.4378 21.5801C60.2671 21.6654 60.0911 21.8041 59.9098 21.9961C59.7391 22.1881 59.5684 22.4548 59.3978 22.7961L54.6138 32.4921H54.3578L52.7738 22.4281C52.7098 22.0228 52.6084 21.7561 52.4698 21.6281C52.3418 21.4894 52.2031 21.4148 52.0538 21.4041L52.1178 21.0841C52.3098 21.0948 52.5284 21.1054 52.7738 21.1161C53.0191 21.1268 53.2751 21.1321 53.5417 21.1321C53.9578 21.1321 54.3471 21.1268 54.7098 21.1161C55.0724 21.1054 55.3658 21.0948 55.5898 21.0841L55.5258 21.4041C54.9711 21.4254 54.6084 21.5161 54.4378 21.6761C54.2671 21.8361 54.2244 22.1934 54.3098 22.7481L55.4778 30.1721L55.3658 30.2041L58.5818 23.6761ZM62.5553 21.2761C62.6086 20.9988 62.7473 20.7588 62.9713 20.5561C63.2059 20.3534 63.4566 20.2521 63.7233 20.2521C64.0006 20.2521 64.2139 20.3534 64.3633 20.5561C64.5233 20.7588 64.5766 20.9988 64.5233 21.2761C64.4699 21.5534 64.3259 21.7934 64.0913 21.9961C63.8673 22.1988 63.6166 22.3001 63.3393 22.3001C63.0726 22.3001 62.8593 22.1988 62.6993 21.9961C62.5499 21.7934 62.5019 21.5534 62.5553 21.2761ZM62.0593 25.5481C62.2833 24.8868 62.2086 24.5561 61.8353 24.5561C61.5899 24.5561 61.3713 24.6894 61.1793 24.9561C60.9873 25.2228 60.7846 25.6334 60.5713 26.1881L60.3473 26.7801H60.0433L60.4593 25.6121C60.6193 25.1641 60.8113 24.8228 61.0353 24.5881C61.2593 24.3534 61.4939 24.1934 61.7393 24.1081C61.9953 24.0121 62.2299 23.9641 62.4433 23.9641C62.7846 23.9641 63.0353 24.0334 63.1953 24.1721C63.3553 24.3108 63.4513 24.4921 63.4833 24.7161C63.5153 24.9401 63.5046 25.1854 63.4513 25.4521C63.3979 25.7081 63.3286 25.9588 63.2433 26.2041L61.5312 31.0521C61.4246 31.3614 61.3873 31.6068 61.4193 31.7881C61.4619 31.9588 61.5846 32.0441 61.7873 32.0441C62.0006 32.0441 62.2033 31.9268 62.3953 31.6921C62.5873 31.4574 62.8006 31.0308 63.0353 30.4121L63.2593 29.8201H63.5633L63.1473 30.9881C62.9979 31.4041 62.8166 31.7348 62.6033 31.9801C62.3899 32.2148 62.1606 32.3801 61.9153 32.4761C61.6699 32.5828 61.4246 32.6361 61.1793 32.6361C60.7206 32.6361 60.4113 32.5294 60.2513 32.3161C60.0913 32.1028 60.0326 31.8254 60.0753 31.4841C60.1179 31.1428 60.2086 30.7801 60.3473 30.3961L62.0593 25.5481ZM66.2726 31.0521C66.1873 31.3614 66.1606 31.6068 66.1926 31.7881C66.2246 31.9588 66.342 32.0441 66.5446 32.0441C66.758 32.0441 66.9553 31.9268 67.1366 31.6921C67.3286 31.4468 67.5313 31.0201 67.7446 30.4121L67.9526 29.8201H68.2566L67.8566 30.9881C67.718 31.3934 67.5473 31.7188 67.3446 31.9641C67.1526 32.1988 66.9393 32.3694 66.7046 32.4761C66.47 32.5828 66.214 32.6361 65.9366 32.6361C65.5846 32.6361 65.3233 32.5668 65.1526 32.4281C64.9926 32.3001 64.8913 32.1241 64.8486 31.9001C64.8166 31.6761 64.822 31.4361 64.8646 31.1801C64.918 30.9134 64.982 30.6521 65.0566 30.3961L67.6646 21.7401C67.7713 21.3774 67.7606 21.1108 67.6326 20.9401C67.5046 20.7694 67.1793 20.6841 66.6566 20.6841L66.7686 20.3481C67.3553 20.3374 67.8726 20.2788 68.3206 20.1721C68.7686 20.0548 69.2006 19.8948 69.6166 19.6921L66.2726 31.0521ZM74.9821 31.0521C74.9075 31.2974 74.8755 31.5268 74.8861 31.7401C74.9075 31.9428 75.0355 32.0441 75.2701 32.0441C75.4835 32.0441 75.6808 31.9268 75.8621 31.6921C76.0435 31.4468 76.2355 31.0201 76.4381 30.4121L76.6301 29.8201H76.9341L76.5661 30.9881C76.4381 31.4148 76.2675 31.7508 76.0541 31.9961C75.8408 32.2308 75.6168 32.3961 75.3821 32.4921C75.1475 32.5881 74.9235 32.6361 74.7101 32.6361C74.0701 32.6361 73.7341 32.3321 73.7021 31.7241C73.6915 31.5534 73.7021 31.3561 73.7341 31.1321C73.7768 30.9081 73.8355 30.6628 73.9101 30.3961L76.2141 21.7401C76.3101 21.3774 76.2941 21.1108 76.1661 20.9401C76.0381 20.7694 75.7128 20.6841 75.1901 20.6841L75.2861 20.3481C75.8728 20.3374 76.3901 20.2788 76.8381 20.1721C77.2861 20.0548 77.7128 19.8948 78.1181 19.6921L74.9821 31.0521ZM71.3981 32.1241C71.6648 32.1241 71.9635 31.9694 72.2941 31.6601C72.6355 31.3401 72.9768 30.9134 73.3181 30.3801C73.6701 29.8361 73.9901 29.2228 74.2781 28.5401C74.5768 27.8468 74.8115 27.1321 74.9821 26.3961L74.7421 28.1241C74.3261 29.2228 73.9101 30.1028 73.4941 30.7641C73.0888 31.4254 72.6728 31.9054 72.2461 32.2041C71.8301 32.4921 71.3928 32.6361 70.9341 32.6361C70.6035 32.6361 70.3101 32.5614 70.0541 32.4121C69.8088 32.2521 69.6168 32.0174 69.4781 31.7081C69.3395 31.3988 69.2701 31.0041 69.2701 30.5241C69.2701 30.0121 69.3501 29.4628 69.5101 28.8761C69.6808 28.2788 69.9208 27.6921 70.2301 27.1161C70.5395 26.5401 70.9075 26.0174 71.3341 25.5481C71.7715 25.0681 72.2515 24.6841 72.7741 24.3961C73.2968 24.1081 73.8515 23.9641 74.4381 23.9641C74.6835 23.9641 74.9128 24.0601 75.1261 24.2521C75.3395 24.4334 75.4568 24.7108 75.4781 25.0841L75.3501 25.4041C75.3075 25.0201 75.2008 24.7481 75.0301 24.5881C74.8595 24.4174 74.6675 24.3321 74.4541 24.3321C74.0488 24.3321 73.6541 24.4708 73.2701 24.7481C72.8968 25.0254 72.5555 25.3934 72.2461 25.8521C71.9368 26.3108 71.6648 26.8228 71.4301 27.3881C71.1955 27.9428 71.0141 28.5134 70.8861 29.1001C70.7581 29.6761 70.6941 30.2201 70.6941 30.7321C70.6941 31.2014 70.7528 31.5534 70.8701 31.7881C70.9875 32.0121 71.1635 32.1241 71.3981 32.1241ZM82.918 24.2841C82.5127 24.2841 82.1073 24.4494 81.702 24.7801C81.3073 25.1108 80.9447 25.5641 80.614 26.1401C80.2833 26.7161 80.0167 27.3721 79.814 28.1081C79.622 28.8441 79.526 29.6174 79.526 30.4281C79.526 30.9721 79.6273 31.3668 79.83 31.6121C80.0433 31.8468 80.3153 31.9641 80.646 31.9641C81.03 31.9641 81.4247 31.8468 81.83 31.6121C82.2353 31.3774 82.6407 30.9614 83.046 30.3641L83.366 30.4921C83.1633 30.8441 82.8967 31.1854 82.566 31.5161C82.2353 31.8468 81.862 32.1188 81.446 32.3321C81.0407 32.5348 80.6087 32.6361 80.15 32.6361C79.51 32.6361 78.998 32.4388 78.614 32.0441C78.23 31.6494 78.038 31.0628 78.038 30.2841C78.038 29.7934 78.1073 29.2654 78.246 28.7001C78.3953 28.1241 78.6033 27.5588 78.87 27.0041C79.1473 26.4388 79.4833 25.9321 79.878 25.4841C80.2727 25.0254 80.7207 24.6574 81.222 24.3801C81.7233 24.1028 82.2727 23.9641 82.87 23.9641C83.3393 23.9641 83.7447 24.0868 84.086 24.3321C84.4273 24.5668 84.598 24.8974 84.598 25.3241C84.598 25.5268 84.55 25.7294 84.454 25.9321C84.3687 26.1241 84.2407 26.2841 84.07 26.4121C83.8993 26.5401 83.6967 26.6041 83.462 26.6041C83.238 26.6041 83.0727 26.5454 82.966 26.4281C82.8593 26.3001 82.806 26.1508 82.806 25.9801C82.806 25.6708 82.9287 25.4094 83.174 25.1961C83.4193 24.9721 83.6967 24.8334 84.006 24.7801C83.8993 24.6308 83.7607 24.5134 83.59 24.4281C83.4193 24.3321 83.1953 24.2841 82.918 24.2841ZM86.7682 32.1241C87.0243 32.1241 87.3176 31.9641 87.6483 31.6441C87.9789 31.3134 88.3149 30.8708 88.6562 30.3161C88.9976 29.7614 89.3123 29.1321 89.6003 28.4281C89.8883 27.7241 90.1176 26.9934 90.2883 26.2361L90.0163 27.9641C89.6109 29.0948 89.2056 30.0068 88.8003 30.7001C88.3949 31.3828 87.9843 31.8788 87.5683 32.1881C87.1523 32.4868 86.7309 32.6361 86.3043 32.6361C85.8029 32.6361 85.4243 32.4548 85.1683 32.0921C84.9229 31.7294 84.8003 31.2654 84.8003 30.7001C84.8003 30.1881 84.8856 29.6334 85.0563 29.0361C85.2269 28.4281 85.4616 27.8254 85.7603 27.2281C86.0696 26.6308 86.4216 26.0868 86.8163 25.5961C87.2109 25.1054 87.6376 24.7108 88.0963 24.4121C88.5656 24.1134 89.0403 23.9641 89.5203 23.9641C89.8936 23.9641 90.1763 24.1508 90.3683 24.5241C90.5709 24.8868 90.6136 25.3988 90.4963 26.0601L90.3203 26.1561C90.3949 25.5908 90.3576 25.1374 90.2083 24.7961C90.0589 24.4441 89.8136 24.2681 89.4723 24.2681C89.1949 24.2681 88.9016 24.4068 88.5923 24.6841C88.2936 24.9508 88.0003 25.3188 87.7123 25.7881C87.4349 26.2468 87.1789 26.7641 86.9443 27.3401C86.7203 27.9161 86.5389 28.5134 86.4003 29.1321C86.2723 29.7401 86.2083 30.3268 86.2083 30.8921C86.2083 31.3508 86.2563 31.6708 86.3523 31.8521C86.4589 32.0334 86.5976 32.1241 86.7682 32.1241ZM90.8003 24.1881C91.0563 24.1774 91.3123 24.1561 91.5683 24.1241C91.8243 24.0921 92.0589 24.0388 92.2723 23.9641L90.2723 31.0361C90.2509 31.1321 90.2189 31.2601 90.1763 31.4201C90.1443 31.5694 90.1443 31.7081 90.1763 31.8361C90.2189 31.9641 90.3309 32.0281 90.5123 32.0281C90.7256 32.0281 90.9336 31.9108 91.1363 31.6761C91.3389 31.4414 91.5416 31.0148 91.7443 30.3961L91.9363 29.8041H92.2403L91.8403 30.9721C91.6909 31.3988 91.5096 31.7348 91.2963 31.9801C91.0936 32.2148 90.8803 32.3801 90.6563 32.4761C90.4323 32.5828 90.2136 32.6361 90.0003 32.6361C89.5843 32.6361 89.2909 32.4974 89.1203 32.2201C88.9816 31.9748 88.9443 31.6921 89.0083 31.3721C89.0723 31.0414 89.1469 30.7108 89.2323 30.3801L90.8003 24.1881ZM94.9673 32.4121H93.5753L95.4953 25.5481C95.6019 25.1854 95.6339 24.9294 95.5913 24.7801C95.5593 24.6308 95.4526 24.5561 95.2713 24.5561C95.0366 24.5561 94.8233 24.6788 94.6313 24.9241C94.4393 25.1694 94.2366 25.5908 94.0233 26.1881L93.8153 26.7801H93.5113L93.9113 25.6121C94.0713 25.1641 94.2579 24.8228 94.4713 24.5881C94.6953 24.3534 94.9246 24.1934 95.1593 24.1081C95.4046 24.0121 95.6339 23.9641 95.8473 23.9641C96.1673 23.9641 96.3913 24.0334 96.5193 24.1721C96.6579 24.3108 96.7326 24.4921 96.7433 24.7161C96.7646 24.9401 96.7486 25.1854 96.6953 25.4521C96.6526 25.7081 96.5993 25.9588 96.5353 26.2041L94.9673 32.4121ZM99.0793 24.3641C98.8339 24.3641 98.5779 24.4814 98.3113 24.7161C98.0553 24.9401 97.7886 25.2708 97.5113 25.7081C97.2446 26.1348 96.9726 26.6521 96.6953 27.2601C96.4286 27.8574 96.1619 28.5241 95.8953 29.2601C95.6393 29.9961 95.3886 30.7908 95.1432 31.6441L95.5433 29.5961C95.8953 28.5508 96.2206 27.6708 96.5193 26.9561C96.8286 26.2414 97.1326 25.6654 97.4313 25.2281C97.7299 24.7801 98.0339 24.4601 98.3433 24.2681C98.6633 24.0654 98.9993 23.9641 99.3513 23.9641C99.6499 23.9641 99.8793 24.0494 100.039 24.2201C100.21 24.3908 100.295 24.6094 100.295 24.8761C100.295 25.0894 100.242 25.2868 100.135 25.4681C100.029 25.6388 99.8899 25.7774 99.7193 25.8841C99.5593 25.9801 99.3779 26.0281 99.1753 26.0281C98.9939 26.0281 98.8393 25.9801 98.7113 25.8841C98.5939 25.7774 98.5353 25.6334 98.5353 25.4521C98.5353 25.2814 98.5673 25.1321 98.6313 25.0041C98.6953 24.8654 98.7806 24.7481 98.8873 24.6521C98.9939 24.5561 99.1166 24.4814 99.2553 24.4281C99.2339 24.4068 99.2073 24.3908 99.1753 24.3801C99.1539 24.3694 99.1219 24.3641 99.0793 24.3641ZM105.435 31.0521C105.361 31.2974 105.329 31.5268 105.339 31.7401C105.361 31.9428 105.489 32.0441 105.723 32.0441C105.937 32.0441 106.134 31.9268 106.315 31.6921C106.497 31.4468 106.689 31.0201 106.891 30.4121L107.083 29.8201H107.387L107.019 30.9881C106.891 31.4148 106.721 31.7508 106.507 31.9961C106.294 32.2308 106.07 32.3961 105.835 32.4921C105.601 32.5881 105.377 32.6361 105.163 32.6361C104.523 32.6361 104.187 32.3321 104.155 31.7241C104.145 31.5534 104.155 31.3561 104.187 31.1321C104.23 30.9081 104.289 30.6628 104.363 30.3961L106.667 21.7401C106.763 21.3774 106.747 21.1108 106.619 20.9401C106.491 20.7694 106.166 20.6841 105.643 20.6841L105.739 20.3481C106.326 20.3374 106.843 20.2788 107.291 20.1721C107.739 20.0548 108.166 19.8948 108.571 19.6921L105.435 31.0521ZM101.851 32.1241C102.118 32.1241 102.417 31.9694 102.747 31.6601C103.089 31.3401 103.43 30.9134 103.771 30.3801C104.123 29.8361 104.443 29.2228 104.731 28.5401C105.03 27.8468 105.265 27.1321 105.435 26.3961L105.195 28.1241C104.779 29.2228 104.363 30.1028 103.947 30.7641C103.542 31.4254 103.126 31.9054 102.699 32.2041C102.283 32.4921 101.846 32.6361 101.387 32.6361C101.057 32.6361 100.763 32.5614 100.507 32.4121C100.262 32.2521 100.07 32.0174 99.9313 31.7081C99.7926 31.3988 99.7233 31.0041 99.7233 30.5241C99.7233 30.0121 99.8033 29.4628 99.9633 28.8761C100.134 28.2788 100.374 27.6921 100.683 27.1161C100.993 26.5401 101.361 26.0174 101.787 25.5481C102.225 25.0681 102.705 24.6841 103.227 24.3961C103.75 24.1081 104.305 23.9641 104.891 23.9641C105.137 23.9641 105.366 24.0601 105.579 24.2521C105.793 24.4334 105.91 24.7108 105.931 25.0841L105.803 25.4041C105.761 25.0201 105.654 24.7481 105.483 24.5881C105.313 24.4174 105.121 24.3321 104.907 24.3321C104.502 24.3321 104.107 24.4708 103.723 24.7481C103.35 25.0254 103.009 25.3934 102.699 25.8521C102.39 26.3108 102.118 26.8228 101.883 27.3881C101.649 27.9428 101.467 28.5134 101.339 29.1001C101.211 29.6761 101.147 30.2201 101.147 30.7321C101.147 31.2014 101.206 31.5534 101.323 31.7881C101.441 32.0121 101.617 32.1241 101.851 32.1241Z" fill="#EDE0D4"/>
</svg>
