<svg width="336" height="100" viewBox="0 0 336 100" fill="none" xmlns="http://www.w3.org/2000/svg">
<path d="M260.509 31H77.4204C77.4204 36.3906 73.9333 38.4362 71.5 40.7031V89.2188C72.9194 92.3096 77.398 93.2361 76.9292 100H260.619C258.973 94.3447 259.928 92.6761 263.32 88.1406V40.7031C259.63 37.1809 258.141 35.3125 260.509 31Z" fill="#4A1D5F"/>
<path d="M255.911 35.3125H81.8643C81.8643 40.0293 78.5495 41.8192 76.2363 43.8028V86.254C77.5856 88.9584 81.8431 89.7692 81.3974 95.6875H256.016C254.451 90.7392 255.359 89.2791 258.584 85.3106V43.8028C255.076 40.7209 253.66 39.086 255.911 35.3125Z" stroke="#EDE0D4" stroke-width="0.2"/>
<rect x="238.659" y="80.5937" width="0.947259" height="4.3125" fill="#EDE0D4"/>
<rect x="238.659" y="89.2187" width="0.947259" height="4.3125" fill="#EDE0D4"/>
<rect x="238.659" y="71.9687" width="0.947259" height="4.3125" fill="#EDE0D4"/>
<rect x="238.659" y="63.3438" width="0.947259" height="4.3125" fill="#EDE0D4"/>
<rect x="238.659" y="54.7187" width="0.947259" height="4.3125" fill="#EDE0D4"/>
<rect x="238.659" y="46.0938" width="0.947259" height="4.3125" fill="#EDE0D4"/>
<rect x="238.659" y="37.4688" width="0.947259" height="4.3125" fill="#EDE0D4"/>
<path d="M105.451 71.448C106.059 69.768 106.635 68.344 107.179 67.176C107.739 66.008 108.291 65.072 108.835 64.368C109.395 63.648 109.955 63.128 110.515 62.808C111.091 62.488 111.691 62.328 112.315 62.328C113.035 62.328 113.539 62.496 113.827 62.832C114.115 63.168 114.251 63.616 114.235 64.176C114.219 64.72 114.107 65.312 113.899 65.952L111.571 72.96C111.507 73.168 111.451 73.392 111.403 73.632C111.355 73.856 111.363 74.048 111.427 74.208C111.507 74.368 111.683 74.448 111.955 74.448C112.259 74.448 112.555 74.28 112.843 73.944C113.147 73.608 113.467 72.96 113.803 72L114.115 71.112H114.571L113.971 72.864C113.747 73.536 113.467 74.048 113.131 74.4C112.795 74.752 112.451 74.992 112.099 75.12C111.747 75.264 111.403 75.336 111.067 75.336C110.427 75.336 109.979 75.192 109.723 74.904C109.467 74.616 109.355 74.216 109.387 73.704C109.435 73.192 109.563 72.616 109.771 71.976L112.051 65.112C112.147 64.824 112.219 64.528 112.267 64.224C112.331 63.904 112.315 63.64 112.219 63.432C112.123 63.208 111.891 63.096 111.523 63.096C111.011 63.096 110.467 63.376 109.891 63.936C109.315 64.496 108.731 65.288 108.139 66.312C107.547 67.32 106.971 68.52 106.411 69.912C105.867 71.304 105.363 72.84 104.899 74.52L105.451 71.448ZM107.947 56.256C108.347 56.24 108.731 56.208 109.099 56.16C109.483 56.112 109.827 56.032 110.131 55.92L104.779 75C104.779 75 104.707 75 104.563 75C104.419 75 104.243 75 104.035 75C103.843 75 103.643 75 103.435 75C103.227 75 103.051 75 102.907 75C102.763 75 102.691 75 102.691 75L107.947 56.256ZM98.2273 58.416C98.2273 58.416 98.2993 58.424 98.4433 58.44C98.5873 58.456 98.7633 58.48 98.9713 58.512C99.1953 58.544 99.4113 58.576 99.6193 58.608C99.8433 58.64 100.027 58.664 100.171 58.68C100.315 58.696 100.387 58.704 100.387 58.704L96.7873 72.216C96.6273 72.824 96.5633 73.296 96.5953 73.632C96.6273 73.952 96.7953 74.176 97.0993 74.304C97.4193 74.432 97.9153 74.504 98.5873 74.52L98.4913 75C98.0753 74.968 97.5473 74.952 96.9073 74.952C96.2673 74.936 95.6033 74.928 94.9153 74.928C94.2273 74.928 93.5633 74.936 92.9233 74.952C92.2993 74.952 91.7953 74.968 91.4113 75L91.5073 74.52C92.1793 74.488 92.6993 74.408 93.0673 74.28C93.4513 74.136 93.7473 73.904 93.9553 73.584C94.1793 73.248 94.3793 72.792 94.5553 72.216L98.2273 58.416ZM108.163 58.32C107.571 58.704 106.947 58.968 106.291 59.112C105.651 59.24 104.883 59.304 103.987 59.304C103.187 59.304 102.403 59.256 101.635 59.16C100.883 59.064 100.131 58.952 99.3793 58.824C98.6433 58.696 97.9153 58.584 97.1953 58.488C96.4913 58.392 95.7873 58.344 95.0833 58.344C94.5873 58.344 94.0753 58.368 93.5473 58.416C93.0353 58.464 92.6513 58.576 92.3953 58.752C92.5233 58.912 92.6273 59.128 92.7073 59.4C92.7873 59.656 92.8273 59.904 92.8273 60.144C92.8273 60.464 92.7313 60.776 92.5393 61.08C92.3473 61.384 92.0433 61.536 91.6273 61.536C91.2753 61.536 91.0113 61.424 90.8353 61.2C90.6593 60.976 90.5713 60.688 90.5713 60.336C90.5713 60.016 90.6593 59.688 90.8353 59.352C91.0113 59 91.3473 58.704 91.8433 58.464C92.2113 58.288 92.6033 58.16 93.0193 58.08C93.4513 58 93.8513 57.952 94.2193 57.936C94.6033 57.92 94.8833 57.912 95.0593 57.912C96.1793 57.912 97.2193 57.992 98.1793 58.152C99.1553 58.296 100.123 58.448 101.083 58.608C102.043 58.752 103.067 58.824 104.155 58.824C105.003 58.824 105.707 58.76 106.267 58.632C106.843 58.504 107.427 58.264 108.019 57.912L108.163 58.32ZM117.797 69.552C118.693 69.248 119.501 68.952 120.221 68.664C120.957 68.36 121.541 68.04 121.973 67.704C122.549 67.24 123.005 66.68 123.341 66.024C123.677 65.368 123.845 64.648 123.845 63.864C123.845 63.4 123.813 63.104 123.749 62.976C123.685 62.848 123.589 62.784 123.461 62.784C123.061 62.784 122.629 62.96 122.165 63.312C121.701 63.664 121.245 64.152 120.797 64.776C120.349 65.384 119.933 66.08 119.549 66.864C119.181 67.648 118.885 68.488 118.661 69.384C118.437 70.264 118.325 71.144 118.325 72.024C118.325 72.84 118.477 73.432 118.781 73.8C119.085 74.152 119.485 74.328 119.981 74.328C120.557 74.328 121.165 74.152 121.805 73.8C122.445 73.448 123.069 72.824 123.677 71.928L124.061 72.12C123.757 72.648 123.357 73.16 122.861 73.656C122.365 74.152 121.805 74.56 121.181 74.88C120.573 75.184 119.925 75.336 119.237 75.336C118.597 75.336 118.037 75.208 117.557 74.952C117.077 74.696 116.709 74.32 116.453 73.824C116.197 73.312 116.069 72.688 116.069 71.952C116.069 71.264 116.197 70.496 116.453 69.648C116.709 68.784 117.069 67.928 117.533 67.08C118.013 66.216 118.581 65.424 119.237 64.704C119.893 63.984 120.621 63.408 121.421 62.976C122.221 62.544 123.077 62.328 123.989 62.328C124.485 62.328 124.901 62.464 125.237 62.736C125.589 62.992 125.765 63.384 125.765 63.912C125.765 64.552 125.573 65.152 125.189 65.712C124.821 66.256 124.325 66.76 123.701 67.224C123.093 67.672 122.429 68.072 121.709 68.424C120.989 68.776 120.285 69.08 119.597 69.336C118.909 69.592 118.301 69.8 117.773 69.96L117.797 69.552ZM144.621 63.672L137.805 75.12H137.421L135.525 60.024C135.445 59.4 135.269 58.992 134.997 58.8C134.725 58.608 134.461 58.504 134.205 58.488L134.301 58.008C134.621 58.024 134.981 58.04 135.381 58.056C135.797 58.072 136.229 58.08 136.677 58.08C137.205 58.08 137.693 58.072 138.141 58.056C138.605 58.04 138.981 58.024 139.269 58.008L139.173 58.488C138.629 58.52 138.245 58.664 138.021 58.92C137.797 59.176 137.733 59.704 137.829 60.504L139.197 72.168L138.981 72.264L144.405 63.096L144.621 63.672ZM152.373 61.896C152.837 60.968 153.093 60.264 153.141 59.784C153.205 59.304 153.085 58.976 152.781 58.8C152.477 58.608 151.989 58.504 151.317 58.488L151.437 58.008C151.741 58.024 152.045 58.04 152.349 58.056C152.669 58.056 152.981 58.064 153.285 58.08C153.605 58.08 153.901 58.08 154.173 58.08C154.589 58.08 154.933 58.072 155.205 58.056C155.477 58.04 155.741 58.024 155.997 58.008L155.877 58.488C155.653 58.536 155.413 58.624 155.157 58.752C154.901 58.88 154.637 59.088 154.365 59.376C154.109 59.664 153.853 60.064 153.597 60.576L146.421 75.12H146.037L143.661 60.024C143.565 59.416 143.413 59.016 143.205 58.824C143.013 58.616 142.805 58.504 142.581 58.488L142.677 58.008C142.965 58.024 143.293 58.04 143.661 58.056C144.029 58.072 144.413 58.08 144.813 58.08C145.437 58.08 146.021 58.072 146.565 58.056C147.109 58.04 147.549 58.024 147.885 58.008L147.789 58.488C146.957 58.52 146.413 58.656 146.157 58.896C145.901 59.136 145.837 59.672 145.965 60.504L147.717 71.64L147.549 71.688L152.373 61.896ZM158.333 58.296C158.413 57.88 158.621 57.52 158.957 57.216C159.309 56.912 159.685 56.76 160.085 56.76C160.501 56.76 160.821 56.912 161.045 57.216C161.285 57.52 161.365 57.88 161.285 58.296C161.205 58.712 160.989 59.072 160.637 59.376C160.301 59.68 159.925 59.832 159.509 59.832C159.109 59.832 158.789 59.68 158.549 59.376C158.325 59.072 158.253 58.712 158.333 58.296ZM157.589 64.704C157.925 63.712 157.813 63.216 157.253 63.216C156.885 63.216 156.557 63.416 156.269 63.816C155.981 64.216 155.677 64.832 155.357 65.664L155.021 66.552H154.565L155.189 64.8C155.429 64.128 155.717 63.616 156.053 63.264C156.389 62.912 156.741 62.672 157.109 62.544C157.493 62.4 157.845 62.328 158.165 62.328C158.677 62.328 159.053 62.432 159.293 62.64C159.533 62.848 159.677 63.12 159.725 63.456C159.773 63.792 159.757 64.16 159.677 64.56C159.597 64.944 159.493 65.32 159.365 65.688L156.797 72.96C156.637 73.424 156.581 73.792 156.629 74.064C156.693 74.32 156.877 74.448 157.181 74.448C157.501 74.448 157.805 74.272 158.093 73.92C158.381 73.568 158.701 72.928 159.053 72L159.389 71.112H159.845L159.221 72.864C158.997 73.488 158.725 73.984 158.405 74.352C158.085 74.704 157.741 74.952 157.373 75.096C157.005 75.256 156.637 75.336 156.269 75.336C155.581 75.336 155.117 75.176 154.877 74.856C154.637 74.536 154.549 74.12 154.613 73.608C154.677 73.096 154.813 72.552 155.021 71.976L157.589 64.704ZM163.909 72.96C163.781 73.424 163.741 73.792 163.789 74.064C163.837 74.32 164.013 74.448 164.317 74.448C164.637 74.448 164.933 74.272 165.205 73.92C165.493 73.552 165.797 72.912 166.117 72L166.429 71.112H166.885L166.285 72.864C166.077 73.472 165.821 73.96 165.517 74.328C165.229 74.68 164.909 74.936 164.557 75.096C164.205 75.256 163.821 75.336 163.405 75.336C162.877 75.336 162.485 75.232 162.229 75.024C161.989 74.832 161.837 74.568 161.773 74.232C161.725 73.896 161.733 73.536 161.797 73.152C161.877 72.752 161.973 72.36 162.085 71.976L165.997 58.992C166.157 58.448 166.141 58.048 165.949 57.792C165.757 57.536 165.269 57.408 164.485 57.408L164.653 56.904C165.533 56.888 166.309 56.8 166.981 56.64C167.653 56.464 168.301 56.224 168.925 55.92L163.909 72.96ZM176.973 72.96C176.861 73.328 176.813 73.672 176.829 73.992C176.861 74.296 177.053 74.448 177.405 74.448C177.725 74.448 178.021 74.272 178.293 73.92C178.565 73.552 178.853 72.912 179.157 72L179.445 71.112H179.901L179.349 72.864C179.157 73.504 178.901 74.008 178.581 74.376C178.261 74.728 177.925 74.976 177.573 75.12C177.221 75.264 176.885 75.336 176.565 75.336C175.605 75.336 175.101 74.88 175.053 73.968C175.037 73.712 175.053 73.416 175.101 73.08C175.165 72.744 175.253 72.376 175.365 71.976L178.821 58.992C178.965 58.448 178.941 58.048 178.749 57.792C178.557 57.536 178.069 57.408 177.285 57.408L177.429 56.904C178.309 56.888 179.085 56.8 179.757 56.64C180.429 56.464 181.069 56.224 181.677 55.92L176.973 72.96ZM171.597 74.568C171.997 74.568 172.445 74.336 172.941 73.872C173.453 73.392 173.965 72.752 174.477 71.952C175.005 71.136 175.485 70.216 175.917 69.192C176.365 68.152 176.717 67.08 176.973 65.976L176.613 68.568C175.989 70.216 175.365 71.536 174.741 72.528C174.133 73.52 173.509 74.24 172.869 74.688C172.245 75.12 171.589 75.336 170.901 75.336C170.405 75.336 169.965 75.224 169.581 75C169.213 74.76 168.925 74.408 168.717 73.944C168.509 73.48 168.405 72.888 168.405 72.168C168.405 71.4 168.525 70.576 168.765 69.696C169.021 68.8 169.381 67.92 169.845 67.056C170.309 66.192 170.861 65.408 171.501 64.704C172.157 63.984 172.877 63.408 173.661 62.976C174.445 62.544 175.277 62.328 176.157 62.328C176.525 62.328 176.869 62.472 177.189 62.76C177.509 63.032 177.685 63.448 177.717 64.008L177.525 64.488C177.461 63.912 177.301 63.504 177.045 63.264C176.789 63.008 176.501 62.88 176.181 62.88C175.573 62.88 174.981 63.088 174.405 63.504C173.845 63.92 173.333 64.472 172.869 65.16C172.405 65.848 171.997 66.616 171.645 67.464C171.293 68.296 171.021 69.152 170.829 70.032C170.637 70.896 170.541 71.712 170.541 72.48C170.541 73.184 170.629 73.712 170.805 74.064C170.981 74.4 171.245 74.568 171.597 74.568ZM188.877 62.808C188.269 62.808 187.661 63.056 187.053 63.552C186.461 64.048 185.917 64.728 185.421 65.592C184.925 66.456 184.525 67.44 184.221 68.544C183.933 69.648 183.789 70.808 183.789 72.024C183.789 72.84 183.941 73.432 184.245 73.8C184.565 74.152 184.973 74.328 185.469 74.328C186.045 74.328 186.637 74.152 187.245 73.8C187.853 73.448 188.461 72.824 189.069 71.928L189.549 72.12C189.245 72.648 188.845 73.16 188.349 73.656C187.853 74.152 187.293 74.56 186.669 74.88C186.061 75.184 185.413 75.336 184.725 75.336C183.765 75.336 182.997 75.04 182.421 74.448C181.845 73.856 181.557 72.976 181.557 71.808C181.557 71.072 181.661 70.28 181.869 69.432C182.093 68.568 182.405 67.72 182.805 66.888C183.221 66.04 183.725 65.28 184.317 64.608C184.909 63.92 185.581 63.368 186.333 62.952C187.085 62.536 187.909 62.328 188.805 62.328C189.509 62.328 190.117 62.512 190.629 62.88C191.141 63.232 191.397 63.728 191.397 64.368C191.397 64.672 191.325 64.976 191.181 65.28C191.053 65.568 190.861 65.808 190.605 66C190.349 66.192 190.045 66.288 189.693 66.288C189.357 66.288 189.109 66.2 188.949 66.024C188.789 65.832 188.709 65.608 188.709 65.352C188.709 64.888 188.893 64.496 189.261 64.176C189.629 63.84 190.045 63.632 190.509 63.552C190.349 63.328 190.141 63.152 189.885 63.024C189.629 62.88 189.293 62.808 188.877 62.808ZM194.652 74.568C195.036 74.568 195.476 74.328 195.972 73.848C196.468 73.352 196.972 72.688 197.484 71.856C197.996 71.024 198.468 70.08 198.9 69.024C199.332 67.968 199.676 66.872 199.932 65.736L199.524 68.328C198.916 70.024 198.308 71.392 197.7 72.432C197.092 73.456 196.476 74.2 195.852 74.664C195.228 75.112 194.596 75.336 193.956 75.336C193.204 75.336 192.636 75.064 192.252 74.52C191.884 73.976 191.7 73.28 191.7 72.432C191.7 71.664 191.828 70.832 192.084 69.936C192.34 69.024 192.692 68.12 193.14 67.224C193.604 66.328 194.132 65.512 194.724 64.776C195.316 64.04 195.956 63.448 196.644 63C197.348 62.552 198.06 62.328 198.78 62.328C199.34 62.328 199.764 62.608 200.052 63.168C200.356 63.712 200.42 64.48 200.244 65.472L199.98 65.616C200.092 64.768 200.036 64.088 199.812 63.576C199.588 63.048 199.22 62.784 198.708 62.784C198.292 62.784 197.852 62.992 197.388 63.408C196.94 63.808 196.5 64.36 196.068 65.064C195.652 65.752 195.268 66.528 194.916 67.392C194.58 68.256 194.308 69.152 194.1 70.08C193.908 70.992 193.812 71.872 193.812 72.72C193.812 73.408 193.884 73.888 194.028 74.16C194.188 74.432 194.396 74.568 194.652 74.568ZM200.7 62.664C201.084 62.648 201.468 62.616 201.852 62.568C202.236 62.52 202.588 62.44 202.908 62.328L199.908 72.936C199.876 73.08 199.828 73.272 199.764 73.512C199.716 73.736 199.716 73.944 199.764 74.136C199.828 74.328 199.996 74.424 200.268 74.424C200.588 74.424 200.9 74.248 201.204 73.896C201.508 73.544 201.812 72.904 202.116 71.976L202.404 71.088H202.86L202.26 72.84C202.036 73.48 201.764 73.984 201.444 74.352C201.14 74.704 200.82 74.952 200.484 75.096C200.148 75.256 199.82 75.336 199.5 75.336C198.876 75.336 198.436 75.128 198.18 74.712C197.972 74.344 197.916 73.92 198.012 73.44C198.108 72.944 198.22 72.448 198.348 71.952L200.7 62.664ZM206.951 75H204.863L207.743 64.704C207.903 64.16 207.951 63.776 207.887 63.552C207.839 63.328 207.679 63.216 207.407 63.216C207.055 63.216 206.735 63.4 206.447 63.768C206.159 64.136 205.855 64.768 205.535 65.664L205.223 66.552H204.767L205.367 64.8C205.607 64.128 205.887 63.616 206.207 63.264C206.543 62.912 206.887 62.672 207.239 62.544C207.607 62.4 207.951 62.328 208.271 62.328C208.751 62.328 209.087 62.432 209.279 62.64C209.487 62.848 209.599 63.12 209.615 63.456C209.647 63.792 209.623 64.16 209.543 64.56C209.479 64.944 209.399 65.32 209.303 65.688L206.951 75ZM213.119 62.928C212.751 62.928 212.367 63.104 211.967 63.456C211.583 63.792 211.183 64.288 210.767 64.944C210.367 65.584 209.959 66.36 209.543 67.272C209.143 68.168 208.743 69.168 208.343 70.272C207.959 71.376 207.583 72.568 207.215 73.848L207.815 70.776C208.343 69.208 208.831 67.888 209.279 66.816C209.743 65.744 210.199 64.88 210.647 64.224C211.095 63.552 211.551 63.072 212.015 62.784C212.495 62.48 212.999 62.328 213.527 62.328C213.975 62.328 214.319 62.456 214.559 62.712C214.815 62.968 214.943 63.296 214.943 63.696C214.943 64.016 214.863 64.312 214.703 64.584C214.543 64.84 214.335 65.048 214.079 65.208C213.839 65.352 213.567 65.424 213.263 65.424C212.991 65.424 212.759 65.352 212.567 65.208C212.391 65.048 212.303 64.832 212.303 64.56C212.303 64.304 212.351 64.08 212.447 63.888C212.543 63.68 212.671 63.504 212.831 63.36C212.991 63.216 213.175 63.104 213.383 63.024C213.351 62.992 213.311 62.968 213.263 62.952C213.231 62.936 213.183 62.928 213.119 62.928ZM222.653 72.96C222.541 73.328 222.493 73.672 222.509 73.992C222.541 74.296 222.733 74.448 223.085 74.448C223.405 74.448 223.701 74.272 223.973 73.92C224.245 73.552 224.533 72.912 224.837 72L225.125 71.112H225.581L225.029 72.864C224.837 73.504 224.581 74.008 224.261 74.376C223.941 74.728 223.605 74.976 223.253 75.12C222.901 75.264 222.565 75.336 222.245 75.336C221.285 75.336 220.781 74.88 220.733 73.968C220.717 73.712 220.733 73.416 220.781 73.08C220.845 72.744 220.933 72.376 221.045 71.976L224.501 58.992C224.645 58.448 224.621 58.048 224.429 57.792C224.237 57.536 223.749 57.408 222.965 57.408L223.109 56.904C223.989 56.888 224.765 56.8 225.437 56.64C226.109 56.464 226.749 56.224 227.357 55.92L222.653 72.96ZM217.277 74.568C217.677 74.568 218.125 74.336 218.621 73.872C219.133 73.392 219.645 72.752 220.157 71.952C220.685 71.136 221.165 70.216 221.597 69.192C222.045 68.152 222.397 67.08 222.653 65.976L222.293 68.568C221.669 70.216 221.045 71.536 220.421 72.528C219.813 73.52 219.189 74.24 218.549 74.688C217.925 75.12 217.269 75.336 216.581 75.336C216.085 75.336 215.645 75.224 215.261 75C214.893 74.76 214.605 74.408 214.397 73.944C214.189 73.48 214.085 72.888 214.085 72.168C214.085 71.4 214.205 70.576 214.445 69.696C214.701 68.8 215.061 67.92 215.525 67.056C215.989 66.192 216.541 65.408 217.181 64.704C217.837 63.984 218.557 63.408 219.341 62.976C220.125 62.544 220.957 62.328 221.837 62.328C222.205 62.328 222.549 62.472 222.869 62.76C223.189 63.032 223.365 63.448 223.397 64.008L223.205 64.488C223.141 63.912 222.981 63.504 222.725 63.264C222.469 63.008 222.181 62.88 221.861 62.88C221.253 62.88 220.661 63.088 220.085 63.504C219.525 63.92 219.013 64.472 218.549 65.16C218.085 65.848 217.677 66.616 217.325 67.464C216.973 68.296 216.701 69.152 216.509 70.032C216.317 70.896 216.221 71.712 216.221 72.48C216.221 73.184 216.309 73.712 216.485 74.064C216.661 74.4 216.925 74.568 217.277 74.568Z" fill="#EDE0D4"/>
<path d="M32.105 75.395C30.2796 73.8724 29.3953 72.9528 27.9074 71.1974C26.3323 72.9205 25.4231 73.8438 23.7098 75.395C25.4596 76.9223 26.3694 77.8525 27.9074 79.5926C29.4066 77.8675 30.3338 76.9517 32.105 75.395Z" fill="#4A1D5F"/>
<path d="M303.129 75.395C304.955 73.8724 305.839 72.9528 307.327 71.1974C308.902 72.9205 309.811 73.8438 311.525 75.395C309.775 76.9223 308.865 77.8525 307.327 79.5926C305.828 77.8675 304.901 76.9517 303.129 75.395Z" fill="#4A1D5F"/>
<path d="M76.2344 15.9128C74.3014 14.3006 73.3651 13.3269 71.7895 11.468C70.1217 13.2927 69.159 14.2704 67.3447 15.9128C69.1975 17.5301 70.161 18.5151 71.7895 20.3577C73.3771 18.5311 74.3589 17.5613 76.2344 15.9128Z" fill="#4A1D5F"/>
<path d="M259 15.9128C260.933 14.3006 261.869 13.3269 263.445 11.468C265.113 13.2927 266.075 14.2704 267.89 15.9128C266.037 17.5301 265.073 18.5151 263.445 20.3577C261.857 18.5311 260.875 17.5613 259 15.9128Z" fill="#4A1D5F"/>
<path d="M0 6.43768C2.64134 4.23461 3.92078 2.90397 6.07382 0.363861C8.35288 2.85725 9.66845 4.19325 12.1476 6.43768C9.61574 8.64771 8.29921 9.99362 6.07382 12.5115C3.90443 10.0155 2.56283 8.69026 0 6.43768Z" fill="#4A1D5F"/>
<path d="M335.234 6.43768C332.593 4.23461 331.314 2.90397 329.161 0.363861C326.881 2.85725 325.566 4.19325 323.087 6.43768C325.619 8.64771 326.935 9.99362 329.161 12.5115C331.33 10.0155 332.672 8.69026 335.234 6.43768Z" fill="#4A1D5F"/>
</svg>
